<svg width="18" height="18" viewBox="0 0 18 18" fill="none" xmlns="http://www.w3.org/2000/svg">
<path d="M13.16 1.07988H4.57C4.36609 1.07591 4.16343 1.11247 3.97377 1.18745C3.7841 1.26244 3.61123 1.37435 3.46517 1.51669C3.31911 1.65903 3.20277 1.82896 3.12292 2.01662C3.04307 2.20429 3.00129 2.40594 3 2.60988V15.3199C3.00262 15.7249 3.16466 16.1125 3.45102 16.3989C3.73739 16.6852 4.12503 16.8473 4.53 16.8499H13.12C13.525 16.8473 13.9126 16.6852 14.199 16.3989C14.4853 16.1125 14.6474 15.7249 14.65 15.3199V2.60988C14.6476 2.2117 14.4911 1.82991 14.2133 1.54464C13.9355 1.25938 13.558 1.0928 13.16 1.07988ZM5.28 3.57988C5.28 3.54806 5.29264 3.51753 5.31515 3.49503C5.33765 3.47253 5.36817 3.45988 5.4 3.45988H12.3C12.3318 3.45988 12.3623 3.47253 12.3849 3.49503C12.4074 3.51753 12.42 3.54806 12.42 3.57988V6.25988C12.42 6.29171 12.4074 6.32223 12.3849 6.34474C12.3623 6.36724 12.3318 6.37988 12.3 6.37988H5.4C5.36817 6.37988 5.33765 6.36724 5.31515 6.34474C5.29264 6.32223 5.28 6.29171 5.28 6.25988V3.57988ZM8.2 14.4499C8.2 14.4817 8.18736 14.5122 8.16485 14.5347C8.14235 14.5572 8.11183 14.5699 8.08 14.5699H5.4C5.36817 14.5699 5.33765 14.5572 5.31515 14.5347C5.29264 14.5122 5.28 14.4817 5.28 14.4499V11.9999C5.28 11.9681 5.29264 11.9375 5.31515 11.915C5.33765 11.8925 5.36817 11.8799 5.4 11.8799H8.08C8.11183 11.8799 8.14235 11.8925 8.16485 11.915C8.18736 11.9375 8.2 11.9681 8.2 11.9999V14.4499ZM8.2 10.4499C8.2 10.4817 8.18736 10.5122 8.16485 10.5347C8.14235 10.5572 8.11183 10.5699 8.08 10.5699H5.4C5.36817 10.5699 5.33765 10.5572 5.31515 10.5347C5.29264 10.5122 5.28 10.4817 5.28 10.4499V7.99988C5.27994 7.98456 5.28308 7.96939 5.28922 7.95534C5.29536 7.9413 5.30437 7.9287 5.31567 7.91834C5.32697 7.90798 5.34031 7.9001 5.35483 7.8952C5.36935 7.8903 5.38474 7.88849 5.4 7.88988H8.08C8.09526 7.88849 8.11065 7.8903 8.12517 7.8952C8.13969 7.9001 8.15303 7.90798 8.16433 7.91834C8.17563 7.9287 8.18464 7.9413 8.19078 7.95534C8.19692 7.96939 8.20006 7.98456 8.2 7.99988V10.4499ZM12.45 14.4499C12.45 14.4817 12.4374 14.5122 12.4149 14.5347C12.3923 14.5572 12.3618 14.5699 12.33 14.5699H9.65C9.61817 14.5699 9.58765 14.5572 9.56515 14.5347C9.54264 14.5122 9.53 14.4817 9.53 14.4499V11.9999C9.53 11.9681 9.54264 11.9375 9.56515 11.915C9.58765 11.8925 9.61817 11.8799 9.65 11.8799H12.33C12.3618 11.8799 12.3923 11.8925 12.4149 11.915C12.4374 11.9375 12.45 11.9681 12.45 11.9999V14.4499ZM12.45 10.4499C12.45 10.4817 12.4374 10.5122 12.4149 10.5347C12.3923 10.5572 12.3618 10.5699 12.33 10.5699H9.65C9.61817 10.5699 9.58765 10.5572 9.56515 10.5347C9.54264 10.5122 9.53 10.4817 9.53 10.4499V7.99988C9.52994 7.98456 9.53308 7.96939 9.53922 7.95534C9.54536 7.9413 9.55437 7.9287 9.56567 7.91834C9.57697 7.90798 9.59031 7.9001 9.60483 7.8952C9.61935 7.8903 9.63474 7.88849 9.65 7.88988H12.33C12.3453 7.88849 12.3606 7.8903 12.3752 7.8952C12.3897 7.9001 12.403 7.90798 12.4143 7.91834C12.4256 7.9287 12.4346 7.9413 12.4408 7.95534C12.4469 7.96939 12.4501 7.98456 12.45 7.99988V10.4499Z" fill="#310078"/>
</svg>
