<svg width="18" height="18" viewBox="0 0 18 18" fill="none" xmlns="http://www.w3.org/2000/svg">
<path d="M9.00001 1.38005C7.50045 1.37018 6.03165 1.80532 4.77946 2.63043C3.52727 3.45554 2.54795 4.63352 1.96541 6.01535C1.38288 7.39718 1.22331 8.92074 1.50688 10.3933C1.79046 11.8658 2.50445 13.2212 3.55851 14.2878C4.61256 15.3545 5.95932 16.0845 7.42839 16.3856C8.89746 16.6866 10.4228 16.5452 11.8115 15.9791C13.2001 15.413 14.3897 14.4478 15.2296 13.2054C16.0695 11.9631 16.5221 10.4996 16.53 9.00005C16.5407 6.99142 15.7536 5.06069 14.3417 3.63195C12.9299 2.2032 11.0086 1.39327 9.00001 1.38005ZM9.63001 13.53C9.53657 13.6227 9.42576 13.6961 9.30392 13.7458C9.18208 13.7956 9.05162 13.8208 8.92001 13.82C8.78673 13.8221 8.65438 13.7976 8.53073 13.7478C8.40708 13.698 8.29464 13.6239 8.20001 13.53C8.10447 13.4446 8.02828 13.3397 7.97654 13.2225C7.9248 13.1052 7.89871 12.9782 7.90001 12.85C7.89857 12.7204 7.92455 12.5919 7.97625 12.473C8.02795 12.3541 8.10421 12.2474 8.20001 12.16C8.29345 12.0674 8.40427 11.994 8.52611 11.9443C8.64795 11.8945 8.77841 11.8693 8.91001 11.87C9.17439 11.8658 9.42967 11.9665 9.62001 12.15C9.71714 12.2369 9.79493 12.3432 9.84834 12.4621C9.90174 12.581 9.92957 12.7097 9.93001 12.84C9.92043 12.9725 9.88454 13.1018 9.82445 13.2203C9.76435 13.3387 9.68126 13.444 9.58001 13.53H9.63001ZM11.16 8.10005C11.0461 8.25726 10.919 8.40447 10.78 8.54005L10.43 8.88005L10.07 9.23005L9.82001 9.49005C9.64973 9.72803 9.56833 10.0182 9.59001 10.31V10.9H8.10001V10.1C8.08315 9.83028 8.12759 9.56019 8.23001 9.31005C8.37401 9.05995 8.55621 8.83389 8.77001 8.64005L9.77001 7.64005C9.97208 7.41567 10.0796 7.12185 10.07 6.82005C10.0748 6.6712 10.0498 6.5229 9.9966 6.38382C9.94337 6.24474 9.86294 6.11767 9.76001 6.01005C9.65238 5.90361 9.52411 5.82032 9.38309 5.76529C9.24207 5.71026 9.09129 5.68465 8.94001 5.69005C8.78171 5.68169 8.62332 5.70479 8.474 5.758C8.32467 5.8112 8.18737 5.89347 8.07001 6.00005C7.84182 6.21483 7.70263 6.50749 7.68001 6.82005H6.09001C6.14334 6.11763 6.47008 5.46416 7.00001 5.00005C7.5623 4.54062 8.27472 4.30552 9.00001 4.34005C9.68921 4.3097 10.3655 4.53394 10.9 4.97005C11.1481 5.19294 11.3433 5.46842 11.4713 5.77637C11.5993 6.08432 11.657 6.41698 11.64 6.75005C11.6522 7.24388 11.4812 7.72477 11.16 8.10005Z" fill="#310078"/>
</svg>
