<svg width="18" height="18" viewBox="0 0 18 18" fill="none" xmlns="http://www.w3.org/2000/svg">
<path d="M17.3099 4H0.729883C0.57247 3.99998 0.421354 4.06182 0.309115 4.17219C0.196877 4.28255 0.132506 4.43261 0.129883 4.59V13.59C0.129872 13.6683 0.145457 13.7459 0.175731 13.8181C0.206005 13.8904 0.25036 13.9558 0.30621 14.0108C0.36206 14.0657 0.428287 14.1089 0.501027 14.138C0.573768 14.167 0.651565 14.1813 0.729883 14.18H17.3099C17.3877 14.1814 17.4651 14.167 17.5373 14.1378C17.6095 14.1087 17.675 14.0653 17.7301 14.0102C17.7852 13.9552 17.8286 13.8896 17.8577 13.8174C17.8869 13.7452 17.9012 13.6679 17.8999 13.59V4.59C17.8999 4.43352 17.8377 4.28345 17.7271 4.17281C17.6164 4.06216 17.4664 4 17.3099 4ZM3.83988 10.12C3.66781 10.12 3.49961 10.069 3.35654 9.97338C3.21347 9.87778 3.10196 9.74191 3.03611 9.58293C2.97026 9.42396 2.95303 9.24904 2.9866 9.08027C3.02017 8.91151 3.10303 8.75649 3.2247 8.63482C3.34637 8.51315 3.50139 8.43029 3.67015 8.39672C3.83892 8.36315 4.01385 8.38038 4.17282 8.44623C4.33179 8.51207 4.46766 8.62358 4.56326 8.76665C4.65886 8.90972 4.70988 9.07793 4.70988 9.25C4.70988 9.48074 4.61822 9.70203 4.45507 9.86518C4.29191 10.0283 4.07062 10.12 3.83988 10.12ZM8.99988 11.49C8.5505 11.492 8.11064 11.3605 7.73603 11.1123C7.36141 10.8641 7.06891 10.5103 6.89556 10.0956C6.72221 9.68103 6.67583 9.2243 6.76229 8.78331C6.84874 8.34231 7.06415 7.9369 7.38121 7.61844C7.69827 7.29997 8.10273 7.08278 8.54334 6.99438C8.98394 6.90597 9.44088 6.95034 9.85625 7.12185C10.2716 7.29337 10.6267 7.58431 10.8766 7.95782C11.1265 8.33134 11.2599 8.77061 11.2599 9.22C11.2599 9.82031 11.0221 10.3962 10.5986 10.8216C10.175 11.247 9.60019 11.4874 8.99988 11.49ZM14.1599 10.12C13.9878 10.12 13.8196 10.069 13.6765 9.97338C13.5335 9.87778 13.422 9.74191 13.3561 9.58293C13.2903 9.42396 13.273 9.24904 13.3066 9.08027C13.3402 8.91151 13.423 8.75649 13.5447 8.63482C13.6664 8.51315 13.8214 8.43029 13.9902 8.39672C14.1589 8.36315 14.3338 8.38038 14.4928 8.44623C14.6518 8.51207 14.7877 8.62358 14.8833 8.76665C14.9789 8.90972 15.0299 9.07793 15.0299 9.25C15.0299 9.47731 14.941 9.69562 14.7822 9.85822C14.6233 10.0208 14.4071 10.1148 14.1799 10.12H14.1599Z" fill="#310078"/>
</svg>
