<svg width="40" height="40" viewBox="0 0 40 40" fill="none" xmlns="http://www.w3.org/2000/svg">
<g clip-path="url(#clip0)">
<circle cx="20" cy="20" r="20" fill="white"/>
<path d="M28.3 25.4199C27.794 25.0753 27.3769 24.6155 27.0831 24.0783C26.7893 23.5411 26.6272 22.9419 26.61 22.3299V17.3299C26.6075 15.7863 26.1055 14.2849 25.179 13.0502C24.2525 11.8155 22.9514 10.9138 21.47 10.4799V9.8999C21.47 9.36947 21.2593 8.86076 20.8842 8.48569C20.5091 8.11062 20.0004 7.8999 19.47 7.8999C18.9396 7.8999 18.4309 8.11062 18.0558 8.48569C17.6807 8.86076 17.47 9.36947 17.47 9.8999V10.5099C15.9905 10.9456 14.6915 11.8481 13.767 13.0826C12.8424 14.3172 12.3419 15.8176 12.34 17.3599V22.3599C12.3167 22.9687 12.1496 23.5634 11.8524 24.0952C11.5552 24.6271 11.1363 25.081 10.63 25.4199C10.5464 25.476 10.478 25.552 10.4309 25.641C10.3838 25.7299 10.3594 25.8292 10.36 25.9299V26.7199C10.36 26.887 10.4264 27.0472 10.5445 27.1654C10.6627 27.2835 10.8229 27.3499 10.99 27.3499H15.71C15.8165 28.2711 16.2579 29.1211 16.9503 29.738C17.6426 30.355 18.5376 30.6959 19.465 30.6959C20.3924 30.6959 21.2874 30.355 21.9797 29.738C22.6721 29.1211 23.1135 28.2711 23.22 27.3499H27.94C28.1071 27.3499 28.2673 27.2835 28.3855 27.1654C28.5036 27.0472 28.57 26.887 28.57 26.7199V25.9299C28.5706 25.8292 28.5462 25.7299 28.4991 25.641C28.452 25.552 28.3836 25.476 28.3 25.4199ZM18.7 9.8999C18.6876 9.7921 18.6982 9.6829 18.731 9.57947C18.7639 9.47604 18.8182 9.38071 18.8904 9.29973C18.9626 9.21876 19.0511 9.15396 19.1502 9.1096C19.2492 9.06523 19.3565 9.04229 19.465 9.04229C19.5735 9.04229 19.6808 9.06523 19.7798 9.1096C19.8788 9.15396 19.9674 9.21876 20.0396 9.29973C20.1118 9.38071 20.1661 9.47604 20.199 9.57947C20.2318 9.6829 20.2423 9.7921 20.23 9.8999V10.2599C19.9736 10.2447 19.7164 10.2447 19.46 10.2599C19.2069 10.2447 18.9531 10.2447 18.7 10.2599V9.8999ZM19.47 29.4199C18.8829 29.412 18.3165 29.2017 17.8665 28.8246C17.4165 28.4474 17.1105 27.9266 17 27.3499H22C21.8876 27.9367 21.5727 28.4653 21.1103 28.8436C20.6479 29.2219 20.0674 29.4259 19.47 29.4199ZM11.79 26.0999C12.3223 25.6363 12.7546 25.0691 13.0606 24.433C13.3667 23.7969 13.54 23.1052 13.57 22.3999V17.3999C13.6327 15.8785 14.2812 14.4402 15.3798 13.3858C16.4785 12.3315 17.9423 11.7427 19.465 11.7427C20.9877 11.7427 22.4515 12.3315 23.5502 13.3858C24.6488 14.4402 25.2973 15.8785 25.36 17.3999V22.3999C25.3797 23.1144 25.5481 23.8169 25.8546 24.4626C26.1611 25.1083 26.5989 25.6829 27.14 26.1499L11.79 26.0999Z" fill="#310178"/>
<path d="M27.91 26.5201H10.92C11.5079 26.0397 11.9893 25.4422 12.3336 24.7656C12.6779 24.089 12.8776 23.3481 12.92 22.5901V17.4201C12.9041 16.0615 13.3223 14.7333 14.1137 13.6289C14.9051 12.5246 16.0284 11.7017 17.32 11.2801C18.2876 10.9505 19.3192 10.853 20.3314 10.9956C21.3436 11.1381 22.3081 11.5166 23.1471 12.1006C23.9861 12.6846 24.676 13.4576 25.1611 14.3573C25.6463 15.2571 25.9131 16.2583 25.94 17.2801V22.5801C25.9712 23.3388 26.1629 24.0822 26.5025 24.7614C26.842 25.4406 27.3218 26.04 27.91 26.5201Z" fill="#310178"/>
</g>
<defs>
<clipPath id="clip0">
<rect width="40" height="40" fill="white"/>
</clipPath>
</defs>
</svg>
