<svg width="40" height="40" viewBox="0 0 40 40" fill="none" xmlns="http://www.w3.org/2000/svg">
<g clip-path="url(#clip0)">
<rect width="40" height="40" fill="white"/>
<path d="M28.29 25.4199C27.7877 25.0746 27.3739 24.6157 27.082 24.0806C26.7901 23.5455 26.6284 22.9492 26.61 22.3399V17.3399C26.608 15.795 26.1064 14.2921 25.18 13.0557C24.2536 11.8193 22.9522 10.9158 21.47 10.4799V9.8999C21.47 9.36947 21.2593 8.86076 20.8842 8.48569C20.5091 8.11062 20.0004 7.8999 19.47 7.8999C18.9396 7.8999 18.4309 8.11062 18.0558 8.48569C17.6807 8.86076 17.47 9.36947 17.47 9.8999V10.5099C15.9905 10.949 14.6922 11.8537 13.768 13.0896C12.8437 14.3255 12.3429 15.8266 12.34 17.3699V22.3699C12.3159 22.9772 12.1484 23.5701 11.8512 24.1002C11.554 24.6303 11.1355 25.0826 10.63 25.4199C10.5462 25.4782 10.4779 25.556 10.4309 25.6466C10.3838 25.7372 10.3595 25.8378 10.36 25.9399V26.7299C10.36 26.8943 10.4253 27.052 10.5416 27.1683C10.6579 27.2846 10.8156 27.3499 10.98 27.3499H15.71C15.8165 28.2711 16.2579 29.1211 16.9503 29.738C17.6426 30.355 18.5376 30.6959 19.465 30.6959C20.3924 30.6959 21.2874 30.355 21.9797 29.738C22.6721 29.1211 23.1135 28.2711 23.22 27.3499H27.94C28.1054 27.3499 28.2641 27.2849 28.382 27.1689C28.4998 27.0529 28.5674 26.8953 28.57 26.7299V25.9399C28.5685 25.8371 28.5423 25.7362 28.4936 25.6457C28.4448 25.5552 28.375 25.4777 28.29 25.4199ZM18.69 9.8999C18.69 9.69569 18.7711 9.49983 18.9155 9.35543C19.0599 9.21103 19.2558 9.1299 19.46 9.1299C19.6642 9.1299 19.8601 9.21103 20.0045 9.35543C20.1489 9.49983 20.23 9.69569 20.23 9.8999V10.2599C19.98 10.2599 19.72 10.2599 19.46 10.2599C19.2 10.2599 18.95 10.2599 18.69 10.2599V9.8999ZM19.46 29.4299C18.8732 29.4192 18.3081 29.2065 17.8599 28.8276C17.4118 28.4486 17.1081 27.9267 17 27.3499H22C21.8875 27.9393 21.5716 28.4705 21.1073 28.8507C20.6431 29.2308 20.06 29.4359 19.46 29.4299ZM26 26.0999H11.79C12.3209 25.6358 12.7517 25.0683 13.056 24.4322C13.3603 23.796 13.5318 23.1045 13.56 22.3999V17.3999C13.56 15.8351 14.1816 14.3344 15.2881 13.228C16.3945 12.1215 17.8952 11.4999 19.46 11.4999C21.0248 11.4999 22.5255 12.1215 23.6319 13.228C24.7384 14.3344 25.36 15.8351 25.36 17.3999V22.3999C25.3802 23.1133 25.5479 23.8147 25.8525 24.4601C26.1572 25.1055 26.5921 25.6809 27.13 26.1499L26 26.0999Z" fill="#282828"/>
</g>
<defs>
<clipPath id="clip0">
<rect width="40" height="40" fill="white"/>
</clipPath>
</defs>
</svg>
