<svg width="42" height="40" viewBox="0 0 42 40" fill="none" xmlns="http://www.w3.org/2000/svg">
<rect width="42" height="40" fill="white"/>
<path d="M32.6403 21.3802C37.6716 21.3802 41.7503 17.3015 41.7503 12.2702C41.7503 7.23884 37.6716 3.16016 32.6403 3.16016C27.609 3.16016 23.5303 7.23884 23.5303 12.2702C23.5303 17.3015 27.609 21.3802 32.6403 21.3802Z" fill="#310178"/>
<path d="M28.2904 25.4199C27.7881 25.0746 27.3742 24.6157 27.0824 24.0806C26.7905 23.5455 26.6288 22.9492 26.6104 22.3399V20.3399C26.1642 20.0081 25.7462 19.6402 25.3604 19.2399V22.3199C25.3806 23.0333 25.5483 23.7347 25.8529 24.3801C26.1575 25.0255 26.5925 25.6009 27.1304 26.0699H11.7904C12.3213 25.6058 12.752 25.0383 13.0564 24.4022C13.3607 23.766 13.5322 23.0745 13.5604 22.3699V17.3699C13.5604 15.8051 14.182 14.3044 15.2884 13.198C16.3949 12.0915 17.8956 11.4699 19.4604 11.4699C20.5448 11.4682 21.6081 11.7696 22.5304 12.3399V12.2699C22.5363 11.8452 22.5663 11.4212 22.6204 10.9999C22.2506 10.8174 21.8658 10.6668 21.4704 10.5499C21.4704 10.5499 21.4704 10.5499 21.4704 10.4899V9.8999C21.4704 9.36947 21.2596 8.86076 20.8846 8.48569C20.5095 8.11062 20.0008 7.8999 19.4704 7.8999C18.9399 7.8999 18.4312 8.11062 18.0561 8.48569C17.6811 8.86076 17.4704 9.36947 17.4704 9.8999V10.5099C15.9909 10.949 14.6926 11.8537 13.7683 13.0896C12.8441 14.3255 12.3433 15.8266 12.3404 17.3699V22.3699C12.3163 22.9772 12.1488 23.5701 11.8516 24.1002C11.5544 24.6303 11.1359 25.0826 10.6304 25.4199C10.5466 25.4782 10.4783 25.556 10.4312 25.6466C10.3842 25.7372 10.3599 25.8378 10.3604 25.9399V26.7299C10.3604 26.8943 10.4257 27.052 10.542 27.1683C10.6582 27.2846 10.8159 27.3499 10.9804 27.3499H15.7104C15.8168 28.2711 16.2583 29.1211 16.9506 29.738C17.643 30.355 18.538 30.6959 19.4654 30.6959C20.3927 30.6959 21.2877 30.355 21.9801 29.738C22.6725 29.1211 23.1139 28.2711 23.2204 27.3499H27.9404C28.1057 27.3499 28.2645 27.2849 28.3823 27.1689C28.5002 27.0529 28.5677 26.8953 28.5704 26.7299V25.9399C28.5689 25.8371 28.5427 25.7362 28.4939 25.6457C28.4452 25.5552 28.3754 25.4777 28.2904 25.4199ZM18.6904 9.8999C18.6904 9.69569 18.7715 9.49983 18.9159 9.35543C19.0603 9.21103 19.2561 9.1299 19.4604 9.1299C19.6646 9.1299 19.8604 9.21103 20.0048 9.35543C20.1492 9.49983 20.2304 9.69569 20.2304 9.8999V10.2699C19.9739 10.2547 19.7168 10.2547 19.4604 10.2699C19.2004 10.2699 18.9504 10.2699 18.6904 10.2699V9.8999ZM19.4604 29.4299C18.8736 29.4192 18.3085 29.2065 17.8603 28.8276C17.4122 28.4486 17.1084 27.9267 17.0004 27.3499H22.0004C21.8879 27.9393 21.5719 28.4705 21.1077 28.8507C20.6434 29.2308 20.0604 29.4359 19.4604 29.4299Z" fill="#282828"/>
</svg>
