<svg width="24" height="24" viewBox="0 0 24 24" fill="none" xmlns="http://www.w3.org/2000/svg">
<path d="M11.7597 1.56006C9.66717 1.56006 7.62163 2.18056 5.88176 3.34311C4.14189 4.50566 2.78582 6.15803 1.98505 8.09127C1.18427 10.0245 0.974752 12.1518 1.38298 14.2041C1.79122 16.2564 2.79886 18.1416 4.2785 19.6212C5.75814 21.1009 7.64332 22.1085 9.69564 22.5168C11.748 22.925 13.8752 22.7155 15.8085 21.9147C17.7417 21.1139 19.3941 19.7579 20.5566 18.018C21.7192 16.2781 22.3397 14.2326 22.3397 12.1401C22.3344 9.33569 21.218 6.6477 19.235 4.66471C17.2521 2.68172 14.5641 1.56534 11.7597 1.56006ZM12.6497 18.6601C12.5195 18.7926 12.3637 18.8974 12.1918 18.9678C12.0199 19.0383 11.8355 19.0731 11.6497 19.0701C11.2772 19.0711 10.9187 18.9277 10.6497 18.6701C10.5084 18.5457 10.3965 18.3914 10.3221 18.2185C10.2478 18.0455 10.2128 17.8582 10.2197 17.6701C10.2161 17.4833 10.2517 17.2979 10.324 17.1257C10.3963 16.9535 10.5039 16.7983 10.6397 16.6701C10.9116 16.4177 11.2688 16.2775 11.6397 16.2775C12.0106 16.2775 12.3678 16.4177 12.6397 16.6701C12.7812 16.7948 12.8939 16.9489 12.9698 17.1216C13.0458 17.2943 13.0833 17.4814 13.0797 17.6701C13.0812 17.856 13.0437 18.0401 12.9696 18.2106C12.8956 18.3812 12.7866 18.5343 12.6497 18.6601ZM14.9097 10.9201C14.6697 11.2201 14.4897 11.4301 14.3697 11.5601L13.8697 12.0401L13.3497 12.5401L12.9997 12.9101C12.756 13.246 12.6359 13.6558 12.6597 14.0701V14.9101H10.5497V13.7701C10.5268 13.3889 10.5848 13.0072 10.7197 12.6501C10.9283 12.2797 11.1913 11.9426 11.4997 11.6501L12.8697 10.2801C13.1599 9.96492 13.3144 9.54821 13.2997 9.12006C13.3023 8.91292 13.2639 8.70731 13.1866 8.51509C13.1094 8.32286 12.9949 8.14782 12.8497 8.00006C12.6991 7.84669 12.5182 7.72652 12.3184 7.6473C12.1186 7.56808 11.9044 7.53155 11.6897 7.54006C11.4707 7.53391 11.2527 7.57141 11.0484 7.65039C10.8441 7.72937 10.6576 7.84823 10.4997 8.00006C10.1944 8.31099 10.0161 8.72463 9.99969 9.16006H7.67969C7.75879 8.14733 8.23289 7.20631 8.99969 6.54006C9.78049 5.89779 10.7693 5.56343 11.7797 5.60006C12.7677 5.55672 13.7367 5.88092 14.4997 6.51006C14.8451 6.8322 15.1141 7.22745 15.2871 7.66691C15.4601 8.10636 15.5327 8.57893 15.4997 9.05006C15.5304 9.72356 15.3214 10.3861 14.9097 10.9201Z" fill="#310078"/>
</svg>
