<svg width="24" height="24" viewBox="0 0 24 24" fill="none" xmlns="http://www.w3.org/2000/svg">
<path d="M18.2 0.860107H6C5.46957 0.860107 4.96086 1.07082 4.58579 1.44589C4.21071 1.82097 4 2.32967 4 2.86011V21.0001C4 21.5305 4.21071 22.0392 4.58579 22.4143C4.96086 22.7894 5.46957 23.0001 6 23.0001H18.2C18.7304 23.0001 19.2391 22.7894 19.6142 22.4143C19.9893 22.0392 20.2 21.5305 20.2 21.0001V2.86011C20.2 2.32967 19.9893 1.82097 19.6142 1.44589C19.2391 1.07082 18.7304 0.860107 18.2 0.860107ZM7 4.24011C6.9999 4.20729 7.01222 4.17566 7.03447 4.15155C7.05673 4.12743 7.08728 4.11263 7.12 4.11011H17C17.0166 4.11005 17.0331 4.11345 17.0484 4.1201C17.0636 4.12674 17.0773 4.13649 17.0886 4.14871C17.0999 4.16094 17.1085 4.17537 17.1139 4.19111C17.1193 4.20684 17.1214 4.22353 17.12 4.24011V8.06011C17.1214 8.07669 17.1193 8.09337 17.1139 8.10911C17.1085 8.12484 17.0999 8.13928 17.0886 8.1515C17.0773 8.16373 17.0636 8.17347 17.0484 8.18012C17.0331 8.18676 17.0166 8.19016 17 8.19011H7.13C7.09552 8.19011 7.06246 8.17641 7.03808 8.15203C7.0137 8.12765 7 8.09459 7 8.06011V4.24011ZM11.08 19.7501C11.08 19.7819 11.0674 19.8125 11.0449 19.835C11.0223 19.8575 10.9918 19.8701 10.96 19.8701H7.13C7.11342 19.8715 7.09674 19.8694 7.081 19.864C7.06527 19.8586 7.05083 19.85 7.03861 19.8387C7.02638 19.8274 7.01664 19.8137 7.00999 19.7985C7.00334 19.7832 6.99994 19.7667 7 19.7501V16.2701C6.9999 16.2373 7.01222 16.2057 7.03447 16.1815C7.05673 16.1574 7.08728 16.1426 7.12 16.1401H11C11.0327 16.1426 11.0633 16.1574 11.0855 16.1815C11.1078 16.2057 11.1201 16.2373 11.12 16.2701L11.08 19.7501ZM11.08 14.0801C11.0777 14.1112 11.0643 14.1404 11.0423 14.1624C11.0203 14.1844 10.9911 14.1978 10.96 14.2001H7.13C7.09719 14.2002 7.06555 14.1879 7.04144 14.1656C7.01733 14.1434 7.00252 14.1128 7 14.0801V10.6001C6.9999 10.5673 7.01222 10.5357 7.03447 10.5115C7.05673 10.4874 7.08728 10.4726 7.12 10.4701H11C11.0327 10.4726 11.0633 10.4874 11.0855 10.5115C11.1078 10.5357 11.1201 10.5673 11.12 10.6001L11.08 14.0801ZM17.14 19.7501C17.14 19.7819 17.1274 19.8125 17.1049 19.835C17.0823 19.8575 17.0518 19.8701 17.02 19.8701H13.19C13.1582 19.8701 13.1277 19.8575 13.1051 19.835C13.0826 19.8125 13.07 19.7819 13.07 19.7501V16.2701C13.0699 16.2373 13.0822 16.2057 13.1045 16.1815C13.1267 16.1574 13.1573 16.1426 13.19 16.1401H17C17.0166 16.14 17.0331 16.1435 17.0484 16.1501C17.0636 16.1567 17.0773 16.1665 17.0886 16.1787C17.0999 16.1909 17.1085 16.2054 17.1139 16.2211C17.1193 16.2368 17.1214 16.2535 17.12 16.2701L17.14 19.7501ZM17.14 14.0801C17.14 14.1119 17.1274 14.1425 17.1049 14.165C17.0823 14.1875 17.0518 14.2001 17.02 14.2001H13.19C13.1589 14.1978 13.1297 14.1844 13.1077 14.1624C13.0857 14.1404 13.0723 14.1112 13.07 14.0801V10.6001C13.0699 10.5673 13.0822 10.5357 13.1045 10.5115C13.1267 10.4874 13.1573 10.4726 13.19 10.4701H17C17.0166 10.47 17.0331 10.4735 17.0484 10.4801C17.0636 10.4867 17.0773 10.4965 17.0886 10.5087C17.0999 10.5209 17.1085 10.5354 17.1139 10.5511C17.1193 10.5668 17.1214 10.5835 17.12 10.6001L17.14 14.0801Z" fill="#310078"/>
</svg>
