<svg width="24" height="24" viewBox="0 0 24 24" fill="none" xmlns="http://www.w3.org/2000/svg">
<path d="M21.3895 22.1101C21.4672 22.0093 21.5126 21.8872 21.5195 21.7601V9.76012L22.5195 10.3701C22.6189 10.4317 22.7327 10.4661 22.8495 10.4701C22.9856 10.47 23.118 10.4258 23.2268 10.3442C23.3357 10.2626 23.4152 10.1479 23.4535 10.0173C23.4918 9.88674 23.4867 9.74728 23.4392 9.61981C23.3916 9.49233 23.304 9.38368 23.1895 9.31012L20.9795 7.91012L18.8495 6.51012V3.51012C18.8608 3.42141 18.853 3.33132 18.8267 3.24584C18.8005 3.16037 18.7563 3.08146 18.6972 3.01437C18.6381 2.94729 18.5653 2.89355 18.4838 2.85675C18.4023 2.81994 18.3139 2.8009 18.2245 2.8009C18.1351 2.8009 18.0467 2.81994 17.9652 2.85675C17.8837 2.89355 17.811 2.94729 17.7519 3.01437C17.6927 3.08146 17.6486 3.16037 17.6223 3.24584C17.5961 3.33132 17.5883 3.42141 17.5995 3.51012V5.70012L12.2995 2.25012C12.1965 2.1842 12.0768 2.14917 11.9545 2.14917C11.8322 2.14917 11.7125 2.1842 11.6095 2.25012L3.75952 7.51012L0.999525 9.27012C0.859027 9.36035 0.760097 9.50267 0.72447 9.6658C0.688844 9.82893 0.719436 9.99953 0.809525 10.1401C0.867158 10.2284 0.945692 10.301 1.03815 10.3516C1.13061 10.4022 1.23413 10.4292 1.33952 10.4301C1.45637 10.4261 1.57013 10.3917 1.66952 10.3301L2.66952 9.69012V21.7601C2.67297 21.8863 2.71483 22.0084 2.78952 22.1101C2.83406 22.1653 2.88435 22.2156 2.93952 22.2601C3.04126 22.3348 3.16336 22.3767 3.28952 22.3801H20.8895C21.0188 22.3768 21.1441 22.335 21.2495 22.2601C21.3033 22.2173 21.3505 22.1667 21.3895 22.1101ZM11.9195 8.00012C12.1665 8.00025 12.4077 8.0741 12.6124 8.2122C12.8171 8.3503 12.9759 8.54638 13.0685 8.7753C13.161 9.00422 13.1831 9.25556 13.132 9.49712C13.0808 9.73869 12.9586 9.95947 12.7812 10.1312C12.6038 10.3029 12.3791 10.4177 12.136 10.461C11.8929 10.5042 11.6424 10.4739 11.4166 10.3738C11.1909 10.2738 11.0001 10.1087 10.8688 9.89958C10.7375 9.69047 10.6716 9.44692 10.6795 9.20012C10.6874 8.87739 10.8218 8.57069 11.0538 8.3462C11.2858 8.1217 11.5967 7.9974 11.9195 8.00012ZM14.3095 21.5501H9.90952V14.2901H14.3095V21.5501Z" fill="#310078"/>
</svg>
