<svg width="24" height="24" viewBox="0 0 24 24" fill="none" xmlns="http://www.w3.org/2000/svg">
<path d="M23.2502 5.73999H0.750156C0.592766 5.74261 0.44271 5.80698 0.332342 5.91922C0.221974 6.03146 0.160134 6.18258 0.160156 6.33999V18.58C0.160134 18.7374 0.221974 18.8885 0.332342 19.0008C0.44271 19.113 0.592766 19.1774 0.750156 19.18H23.2502C23.3285 19.18 23.406 19.1644 23.4783 19.1341C23.5505 19.1039 23.616 19.0595 23.6709 19.0037C23.7258 18.9478 23.7691 18.8816 23.7981 18.8088C23.8272 18.7361 23.8415 18.6583 23.8402 18.58V6.33999C23.8415 6.26167 23.8272 6.18388 23.7981 6.11114C23.7691 6.03839 23.7258 5.97217 23.6709 5.91632C23.616 5.86047 23.5505 5.81611 23.4783 5.78584C23.406 5.75556 23.3285 5.73998 23.2502 5.73999ZM5.00016 13.79C4.76636 13.792 4.53724 13.7245 4.34188 13.596C4.14652 13.4676 3.99372 13.284 3.90287 13.0685C3.81203 12.8531 3.78723 12.6155 3.83162 12.386C3.87602 12.1564 3.98761 11.9452 4.15223 11.7792C4.31685 11.6132 4.52708 11.4998 4.75625 11.4534C4.98541 11.4071 5.22318 11.4299 5.43938 11.5189C5.65558 11.6079 5.84047 11.7591 5.97057 11.9534C6.10068 12.1477 6.17015 12.3762 6.17016 12.61C6.17017 12.9212 6.04722 13.2199 5.82809 13.4409C5.60895 13.6619 5.31138 13.7874 5.00016 13.79ZM12.0002 15.64C11.3925 15.64 10.7986 15.4597 10.2935 15.1219C9.78845 14.7841 9.39497 14.3041 9.1629 13.7425C8.93084 13.181 8.87063 12.5632 8.9899 11.9674C9.10917 11.3716 9.40255 10.8246 9.8329 10.3956C10.2632 9.96669 10.8112 9.67509 11.4074 9.55777C12.0036 9.44044 12.6211 9.50267 13.1819 9.73656C13.7427 9.97046 14.2215 10.3655 14.5576 10.8717C14.8938 11.3778 15.0721 11.9724 15.0702 12.58C15.0702 12.9827 14.9907 13.3814 14.8363 13.7533C14.6819 14.1252 14.4556 14.463 14.1704 14.7473C13.8852 15.0316 13.5467 15.2567 13.1742 15.4099C12.8018 15.5631 12.4028 15.6413 12.0002 15.64ZM19.0002 13.79C18.7668 13.79 18.5386 13.7208 18.3446 13.5911C18.1505 13.4615 17.9993 13.2772 17.91 13.0616C17.8207 12.8459 17.7973 12.6087 17.8428 12.3798C17.8884 12.1509 18.0007 11.9406 18.1658 11.7756C18.3308 11.6106 18.5411 11.4982 18.7699 11.4527C18.9988 11.4071 19.2361 11.4305 19.4517 11.5198C19.6673 11.6091 19.8516 11.7604 19.9813 11.9544C20.111 12.1485 20.1802 12.3766 20.1802 12.61C20.1815 12.7653 20.1519 12.9194 20.0931 13.0631C20.0342 13.2069 19.9474 13.3375 19.8375 13.4473C19.7277 13.5572 19.5971 13.6441 19.4533 13.7029C19.3095 13.7617 19.1555 13.7913 19.0002 13.79Z" fill="#310078"/>
</svg>
