<svg width="287" height="120" viewBox="0 0 287 120" fill="none" xmlns="http://www.w3.org/2000/svg">
<rect width="287" height="120" fill="white"/>
<path d="M80.6 53.25C81.0494 53.2484 81.4915 53.1367 81.8877 52.9247C82.2839 52.7127 82.6221 52.4068 82.8727 52.0338C83.1234 51.6608 83.2788 51.2321 83.3254 50.7852C83.372 50.3382 83.3083 49.8867 83.14 49.47C81.6 45.64 78.33 40.18 72.14 39.54C69.6448 39.3697 67.1686 40.0772 65.14 41.54C65.0628 41.6 64.9678 41.6326 64.87 41.6326C64.7722 41.6326 64.6772 41.6 64.6 41.54C63.1331 40.2284 61.2276 39.5148 59.26 39.54C55.26 39.54 52.04 42.26 52.04 45.62C52.0403 45.6813 52.0277 45.742 52.0031 45.7982C51.9786 45.8544 51.9425 45.9048 51.8973 45.9462C51.8521 45.9876 51.7988 46.0192 51.7407 46.0388C51.6826 46.0584 51.6211 46.0656 51.56 46.06C51.3744 46.0308 51.1875 46.0108 51 46C49.9066 45.9551 48.8243 46.2338 47.8886 46.8013C46.953 47.3687 46.2055 48.1997 45.74 49.19C45.7193 49.2451 45.6874 49.2953 45.6465 49.3376C45.6056 49.3798 45.5564 49.4133 45.502 49.4358C45.4477 49.4582 45.3892 49.4693 45.3304 49.4684C45.2716 49.4674 45.2136 49.4543 45.16 49.43C44.4792 49.1332 43.7425 48.9866 43 49C42.2666 49.0242 41.5497 49.2239 40.9094 49.5824C40.2691 49.9408 39.7241 50.4475 39.32 51.06C39.1734 51.2639 39.0856 51.504 39.0662 51.7544C39.0468 52.0047 39.0966 52.2556 39.2102 52.4795C39.3237 52.7035 39.4966 52.8919 39.7099 53.0243C39.9233 53.1566 40.1689 53.2278 40.42 53.23L80.6 53.25Z" fill="#E6EBEF"/>
<path d="M162.44 26.11H153.17V28.45H162.44V26.11Z" fill="#E6EBEF"/>
<path d="M72.81 98.58C71.9371 98.439 71.0542 98.3688 70.17 98.37C67.6237 98.3702 65.1133 98.9706 62.8424 100.123C60.5716 101.274 58.6042 102.945 57.1 105C56.8087 105.387 56.4015 105.672 55.9376 105.812C55.4737 105.952 54.9771 105.941 54.52 105.78C53.3428 105.373 52.1056 105.167 50.86 105.17C49.1607 105.161 47.4812 105.535 45.947 106.266C44.4128 106.997 43.0636 108.065 42 109.39C40.5735 111.399 39.726 113.762 39.55 116.22H72.93L72.81 98.58Z" fill="white"/>
<path d="M108.17 116.38V81.55H127.2V116.38" fill="#DAD3E4"/>
<path d="M127.2 116.79C127.091 116.79 126.987 116.747 126.91 116.67C126.833 116.593 126.79 116.489 126.79 116.38V82H108.59V116.41C108.59 116.465 108.579 116.519 108.558 116.569C108.537 116.62 108.506 116.665 108.466 116.704C108.427 116.742 108.381 116.772 108.33 116.792C108.279 116.812 108.225 116.821 108.17 116.82C108.061 116.82 107.957 116.777 107.88 116.7C107.803 116.623 107.76 116.519 107.76 116.41V81.55C107.76 81.4413 107.803 81.337 107.88 81.2601C107.957 81.1832 108.061 81.14 108.17 81.14H127.17C127.225 81.1387 127.279 81.1483 127.33 81.1683C127.381 81.1883 127.427 81.2183 127.466 81.2565C127.506 81.2947 127.537 81.3404 127.558 81.3908C127.579 81.4412 127.59 81.4953 127.59 81.55V116.38C127.59 116.485 127.55 116.587 127.477 116.663C127.404 116.739 127.305 116.785 127.2 116.79V116.79Z" fill="black"/>
<path d="M117.32 91.16C117.773 91.16 118.14 90.7929 118.14 90.34C118.14 89.8871 117.773 89.52 117.32 89.52C116.867 89.52 116.5 89.8871 116.5 90.34C116.5 90.7929 116.867 91.16 117.32 91.16Z" fill="white"/>
<path d="M117.32 91.44C117.102 91.44 116.89 91.3755 116.709 91.2546C116.528 91.1337 116.387 90.9619 116.304 90.7609C116.22 90.5599 116.199 90.3388 116.241 90.1254C116.284 89.912 116.388 89.716 116.542 89.5622C116.696 89.4083 116.892 89.3036 117.105 89.2611C117.319 89.2187 117.54 89.2405 117.741 89.3237C117.942 89.407 118.114 89.548 118.235 89.7289C118.355 89.9098 118.42 90.1224 118.42 90.34C118.42 90.6317 118.304 90.9115 118.098 91.1178C117.892 91.3241 117.612 91.44 117.32 91.44ZM117.32 89.79C117.176 89.7926 117.039 89.8517 116.938 89.9546C116.837 90.0574 116.78 90.1958 116.78 90.34C116.78 90.4832 116.837 90.6206 116.938 90.7218C117.039 90.8231 117.177 90.88 117.32 90.88C117.464 90.88 117.603 90.8234 117.705 90.7224C117.808 90.6215 117.867 90.4841 117.87 90.34C117.87 90.1941 117.812 90.0542 117.709 89.9511C117.606 89.8479 117.466 89.79 117.32 89.79V89.79Z" fill="black"/>
<path d="M161.66 70.29H72.48V68.29L162.19 68L165.57 64.53L165.65 67.32L163.43 69.57C162.959 70.0349 162.322 70.2939 161.66 70.29V70.29Z" fill="#BAC2CA"/>
<path d="M43.11 108.43C44.4104 107.54 45.888 106.941 47.4415 106.675C48.9949 106.409 50.5875 106.483 52.11 106.89C57.68 108.16 58.35 106.82 60.03 104.81C61.71 102.8 68.17 99.9499 73.03 101.32V98.6699C73.03 98.6699 67.36 97.4299 62.6 100.25C57.84 103.07 57.17 105.25 56.43 105.55C55.69 105.85 55.43 106.01 53.11 105.38C50.79 104.75 45.63 105.51 42.98 108.56" fill="#DCE2E7"/>
<path d="M66.71 64.1299L92.34 36.2H186.44L160.31 64.6699H118.7L66.71 64.1299Z" fill="#BAC2CA"/>
<path d="M162.48 35.1801H153.27V41.1501H162.48V35.1801Z" fill="white"/>
<path d="M163.09 23.8299V25.9999L162.61 26.0899V41.3599L167.37 36.1599V25.9999C167.37 25.9999 168.05 25.4699 168 25.2799C167.95 25.0899 167.76 24.0199 167.76 24.0199L167.42 23.6899L163.09 23.8299Z" fill="#DCE2E7"/>
<path d="M235.57 116.31C235.57 116.16 235.57 116.02 235.57 115.86C235.562 115.052 235.395 114.254 235.079 113.511C234.763 112.768 234.303 112.094 233.726 111.529C233.15 110.963 232.467 110.517 231.718 110.215C230.969 109.913 230.168 109.762 229.36 109.77H229C227.948 108.02 226.459 106.574 224.68 105.573C222.901 104.572 220.892 104.051 218.85 104.06C218.57 104.06 218.29 104.06 218.02 104.06C217.46 104.108 216.897 103.997 216.397 103.741C215.897 103.484 215.478 103.093 215.19 102.61C214.133 100.856 212.638 99.4068 210.851 98.4056C209.064 97.4045 207.048 96.8856 205 96.8999V116.26" fill="#EFF3F6"/>
<path d="M247.92 24.2C248.246 24.2004 248.565 24.1073 248.839 23.9316C249.113 23.756 249.331 23.5052 249.467 23.2092C249.603 22.9132 249.651 22.5843 249.606 22.2618C249.56 21.9393 249.423 21.6367 249.21 21.3899C247.62 19.5299 244.42 18.26 240.74 18.26C240.155 18.2605 239.571 18.2972 238.99 18.37C238.842 18.3854 238.692 18.3695 238.55 18.3232C238.409 18.2769 238.279 18.2012 238.168 18.1012C238.058 18.0012 237.97 17.8791 237.91 17.7427C237.85 17.6064 237.819 17.4589 237.82 17.31V17.31C237.82 14.1 233.76 11.5 228.76 11.5C227.44 11.4936 226.125 11.6823 224.86 12.06C224.729 12.1006 224.59 12.1137 224.454 12.0985C224.317 12.0834 224.185 12.0402 224.066 11.9717C223.947 11.9031 223.843 11.8108 223.761 11.7004C223.679 11.59 223.621 11.4639 223.59 11.33C222.54 6.56995 217.43 2.94995 211.28 2.94995C204.36 2.94995 198.75 7.51995 198.75 13.15C198.75 13.35 198.75 13.55 198.75 13.75C198.455 13.7064 198.158 13.683 197.86 13.68C196.634 13.6796 195.44 14.066 194.447 14.7843C193.454 15.5025 192.713 16.5159 192.33 17.68C192.254 17.9327 192.08 18.145 191.848 18.2705C191.616 18.3961 191.343 18.4246 191.09 18.35C189.985 18.0393 188.813 18.0636 187.721 18.4196C186.63 18.7756 185.669 19.4474 184.96 20.35C184.681 20.7009 184.507 21.1233 184.458 21.5687C184.409 22.0141 184.487 22.4643 184.682 22.8676C184.877 23.2709 185.183 23.6108 185.563 23.8483C185.943 24.0857 186.382 24.2111 186.83 24.2099L247.92 24.2Z" fill="#E6EBEF"/>
<path d="M154 101.73H152.51C152.245 101.73 151.99 101.835 151.803 102.023C151.615 102.21 151.51 102.465 151.51 102.73V103C151.51 103.265 151.615 103.52 151.803 103.707C151.99 103.895 152.245 104 152.51 104H154" fill="#E0E0E0"/>
<path d="M97.75 101.73H96.26C95.9948 101.73 95.7404 101.835 95.5529 102.023C95.3654 102.21 95.26 102.465 95.26 102.73V103C95.26 103.265 95.3654 103.52 95.5529 103.707C95.7404 103.895 95.9948 104 96.26 104H97.75" fill="#E0E0E0"/>
<path d="M153.66 79.8199H139.58V101.48H153.66V79.8199Z" fill="#E6EBEF"/>
<path opacity="0.7" d="M145.52 101.48H139.02L148.45 79.8199H154.95L145.52 101.48Z" fill="white"/>
<path d="M97.34 79.8199H83.26V101.48H97.34V79.8199Z" fill="#E6EBEF"/>
<path opacity="0.7" d="M79.75 101.48H73.25L82.69 79.8199H89.19L79.75 101.48Z" fill="white"/>
<path opacity="0.7" d="M90.97 101.48H86.93L96.36 79.8199H100.41L90.97 101.48Z" fill="white"/>
<path d="M177.58 46.0001L185.79 37.0001C185.951 36.817 186.15 36.6705 186.372 36.5701C186.595 36.4697 186.836 36.4177 187.08 36.4177C187.324 36.4177 187.565 36.4697 187.788 36.5701C188.01 36.6705 188.209 36.817 188.37 37.0001L211.8 64.4901C212.097 64.8375 212.244 65.2887 212.208 65.7444C212.173 66.2001 211.957 66.623 211.61 66.9201C211.263 67.2171 210.811 67.364 210.356 67.3283C209.9 67.2927 209.477 67.0775 209.18 66.7301L187 40.7401L162.73 67.4701C162.422 67.8082 161.993 68.0103 161.536 68.0319C161.08 68.0534 160.633 67.8927 160.295 67.5851C159.957 67.2774 159.755 66.848 159.733 66.3914C159.712 65.9347 159.872 65.4882 160.18 65.1501L175.12 48.7101" fill="#DCE2E7"/>
<path d="M187.06 40.83L165.88 64.13V116.36H204.78V67.4H209.59L187.06 40.83Z" fill="#E6EBEF"/>
<path d="M185.47 42.78L205.01 65.49V62.21L187.07 41.05L185.47 42.78Z" fill="#BAC2CA"/>
<path d="M205.02 61.96V67.42L209.71 67.55L205.02 61.96Z" fill="#BAC2CA"/>
<path d="M186.65 63.86C187.832 63.86 188.79 62.2124 188.79 60.18C188.79 58.1476 187.832 56.5 186.65 56.5C185.468 56.5 184.51 58.1476 184.51 60.18C184.51 62.2124 185.468 63.86 186.65 63.86Z" fill="#EFF1EF"/>
<path d="M162.54 41.7299H153.24C153.185 41.73 153.131 41.719 153.081 41.6978C153.03 41.6766 152.985 41.6455 152.946 41.6063C152.908 41.5672 152.878 41.5208 152.858 41.4699C152.838 41.419 152.829 41.3646 152.83 41.3099V26.1099C152.829 26.0553 152.838 26.0009 152.858 25.95C152.878 25.8991 152.908 25.8527 152.946 25.8135C152.985 25.7744 153.03 25.7433 153.081 25.7221C153.131 25.7009 153.185 25.6899 153.24 25.6899C153.351 25.6899 153.458 25.7342 153.537 25.813C153.616 25.8917 153.66 25.9986 153.66 26.1099V40.8999H162.36L167 35.9999V26.1899C167 26.0786 167.044 25.9717 167.123 25.893C167.202 25.8142 167.309 25.7699 167.42 25.7699C167.475 25.7699 167.529 25.7809 167.579 25.8021C167.63 25.8233 167.675 25.8544 167.714 25.8935C167.752 25.9327 167.782 25.9791 167.802 26.03C167.822 26.0809 167.831 26.1353 167.83 26.1899V36.1899C167.83 36.2938 167.791 36.3939 167.72 36.4699L162.84 41.5799C162.804 41.6252 162.758 41.662 162.706 41.6879C162.655 41.7138 162.598 41.7281 162.54 41.7299Z" fill="black"/>
<path d="M162.52 34.94C162.446 34.94 162.375 34.9105 162.322 34.858C162.269 34.8055 162.24 34.7343 162.24 34.66V26.05C162.24 25.9758 162.269 25.9045 162.322 25.852C162.375 25.7995 162.446 25.77 162.52 25.77C162.594 25.77 162.665 25.7995 162.718 25.852C162.77 25.9045 162.8 25.9758 162.8 26.05V34.66C162.8 34.7343 162.77 34.8055 162.718 34.858C162.665 34.9105 162.594 34.94 162.52 34.94Z" fill="black"/>
<path d="M162.52 38.85C162.447 38.85 162.378 38.8219 162.325 38.7715C162.273 38.7212 162.243 38.6525 162.24 38.58V36C162.24 35.9257 162.269 35.8545 162.322 35.802C162.375 35.7495 162.446 35.72 162.52 35.72C162.594 35.72 162.665 35.7495 162.718 35.802C162.77 35.8545 162.8 35.9257 162.8 36V38.57C162.8 38.6442 162.77 38.7154 162.718 38.768C162.665 38.8205 162.594 38.85 162.52 38.85Z" fill="black"/>
<path d="M167.4 26.37H152.83C152.69 26.3772 152.55 26.355 152.42 26.3047C152.289 26.2545 152.171 26.1774 152.072 26.0784C151.973 25.9795 151.896 25.8608 151.845 25.7302C151.795 25.5995 151.773 25.4598 151.78 25.32V24.32C151.779 24.1813 151.805 24.0437 151.857 23.9151C151.909 23.7866 151.986 23.6696 152.084 23.5711C152.182 23.4725 152.298 23.3943 152.426 23.3409C152.554 23.2875 152.691 23.26 152.83 23.26H167.4C167.671 23.2729 167.927 23.3906 168.114 23.5883C168.3 23.786 168.403 24.0483 168.4 24.32V25.32C168.407 25.4555 168.386 25.5909 168.339 25.7181C168.292 25.8452 168.219 25.9614 168.125 26.0597C168.032 26.1579 167.919 26.236 167.795 26.2894C167.67 26.3428 167.536 26.3702 167.4 26.37V26.37ZM152.83 24.11C152.8 24.11 152.771 24.116 152.743 24.1277C152.716 24.1393 152.691 24.1564 152.671 24.1779C152.65 24.1994 152.634 24.2249 152.624 24.2527C152.613 24.2806 152.609 24.3103 152.61 24.34V25.34C152.61 25.3984 152.633 25.4543 152.674 25.4956C152.716 25.5368 152.772 25.56 152.83 25.56H167.4C167.458 25.56 167.514 25.5368 167.556 25.4956C167.597 25.4543 167.62 25.3984 167.62 25.34V24.34C167.621 24.3103 167.617 24.2806 167.606 24.2527C167.596 24.2249 167.58 24.1994 167.559 24.1779C167.539 24.1564 167.514 24.1393 167.487 24.1277C167.459 24.116 167.43 24.11 167.4 24.11H152.83Z" fill="black"/>
<path d="M163 26C162.926 26 162.855 25.9705 162.802 25.918C162.75 25.8655 162.72 25.7942 162.72 25.72V23.82C162.712 23.7795 162.714 23.7378 162.724 23.6978C162.734 23.6579 162.753 23.6207 162.779 23.5889C162.805 23.5571 162.838 23.5315 162.876 23.514C162.913 23.4964 162.954 23.4873 162.995 23.4873C163.036 23.4873 163.077 23.4964 163.114 23.514C163.152 23.5315 163.185 23.5571 163.211 23.5889C163.237 23.6207 163.256 23.6579 163.266 23.6978C163.276 23.7378 163.278 23.7795 163.27 23.82V25.72C163.27 25.7925 163.242 25.8623 163.192 25.9145C163.141 25.9668 163.073 25.9974 163 26V26Z" fill="black"/>
<path d="M187.13 36.69H169.49C169.435 36.69 169.381 36.6791 169.331 36.6578C169.28 36.6366 169.235 36.6055 169.197 36.5664C169.158 36.5272 169.128 36.4809 169.108 36.43C169.088 36.3791 169.079 36.3247 169.08 36.27C169.08 36.1612 169.123 36.057 169.2 35.9801C169.277 35.9032 169.381 35.86 169.49 35.86H187.13C187.239 35.86 187.343 35.9032 187.42 35.9801C187.497 36.057 187.54 36.1612 187.54 36.27C187.541 36.3247 187.532 36.3791 187.512 36.43C187.492 36.4809 187.462 36.5272 187.424 36.5664C187.385 36.6055 187.34 36.6366 187.289 36.6578C187.239 36.6791 187.185 36.69 187.13 36.69V36.69Z" fill="black"/>
<path d="M115.33 65.09H66.33C66.2496 65.0881 66.1714 65.0636 66.1042 65.0194C66.0371 64.9752 65.9836 64.9131 65.95 64.84C65.9185 64.7653 65.9092 64.6831 65.9234 64.6032C65.9376 64.5233 65.9746 64.4493 66.03 64.39L92 35.92C92.0821 35.8374 92.1935 35.7906 92.31 35.79H103.31C103.365 35.7887 103.419 35.7983 103.47 35.8183C103.521 35.8383 103.567 35.8683 103.606 35.9065C103.646 35.9447 103.677 35.9904 103.698 36.0408C103.719 36.0912 103.73 36.1453 103.73 36.2C103.73 36.3114 103.686 36.4183 103.607 36.497C103.528 36.5758 103.421 36.62 103.31 36.62H92.52L67.23 64.25H115.33C115.441 64.25 115.548 64.2943 115.627 64.3731C115.706 64.4518 115.75 64.5586 115.75 64.67C115.75 64.7814 115.706 64.8883 115.627 64.967C115.548 65.0458 115.441 65.09 115.33 65.09V65.09Z" fill="black"/>
<path d="M107.4 36.62H105.8C105.689 36.62 105.582 36.5758 105.503 36.497C105.424 36.4183 105.38 36.3114 105.38 36.2C105.38 36.1453 105.391 36.0912 105.412 36.0408C105.433 35.9904 105.464 35.9447 105.504 35.9065C105.543 35.8683 105.589 35.8383 105.64 35.8183C105.691 35.7983 105.745 35.7887 105.8 35.79H107.4C107.455 35.7887 107.509 35.7983 107.56 35.8183C107.611 35.8383 107.657 35.8683 107.696 35.9065C107.736 35.9447 107.767 35.9904 107.788 36.0408C107.809 36.0912 107.82 36.1453 107.82 36.2C107.82 36.3114 107.776 36.4183 107.697 36.497C107.618 36.5758 107.511 36.62 107.4 36.62Z" fill="black"/>
<path d="M153.2 36.62H109.68C109.569 36.62 109.462 36.5758 109.383 36.497C109.304 36.4183 109.26 36.3114 109.26 36.2C109.26 36.1453 109.271 36.0912 109.292 36.0408C109.313 35.9904 109.344 35.9447 109.384 35.9065C109.423 35.8683 109.469 35.8383 109.52 35.8183C109.571 35.7983 109.625 35.7887 109.68 35.79H153.2C153.309 35.79 153.413 35.8332 153.49 35.9101C153.567 35.987 153.61 36.0913 153.61 36.2C153.611 36.2547 153.602 36.3091 153.582 36.36C153.562 36.4109 153.532 36.4573 153.494 36.4964C153.455 36.5356 153.41 36.5667 153.359 36.5879C153.309 36.6091 153.255 36.6201 153.2 36.62Z" fill="black"/>
<path d="M161.9 68.43H66.83C66.7753 68.4313 66.7209 68.4217 66.67 68.4017C66.6191 68.3817 66.5727 68.3517 66.5336 68.3135C66.4945 68.2753 66.4634 68.2296 66.4421 68.1792C66.4209 68.1288 66.41 68.0747 66.41 68.02C66.41 67.9086 66.4542 67.8018 66.533 67.723C66.6118 67.6442 66.7186 67.6 66.83 67.6H161.9C161.955 67.6 162.009 67.6109 162.059 67.6321C162.11 67.6533 162.155 67.6844 162.194 67.7236C162.232 67.7627 162.262 67.8091 162.282 67.86C162.302 67.9109 162.311 67.9653 162.31 68.02C162.31 68.1287 162.267 68.233 162.19 68.3099C162.113 68.3868 162.009 68.43 161.9 68.43V68.43Z" fill="black"/>
<path d="M72.74 116.46C72.6286 116.46 72.5218 116.416 72.443 116.337C72.3643 116.258 72.32 116.151 72.32 116.04V79.6001C72.32 79.4887 72.3643 79.3818 72.443 79.3031C72.5218 79.2243 72.6286 79.1801 72.74 79.1801C72.8514 79.1801 72.9582 79.2243 73.037 79.3031C73.1158 79.3818 73.16 79.4887 73.16 79.6001V116C73.1656 116.058 73.1589 116.117 73.1403 116.173C73.1217 116.229 73.0917 116.28 73.0521 116.323C73.0125 116.367 72.9643 116.401 72.9105 116.425C72.8568 116.448 72.7987 116.46 72.74 116.46Z" fill="black"/>
<path d="M72.74 77.65C72.6286 77.65 72.5218 77.6057 72.443 77.5269C72.3643 77.4482 72.32 77.3413 72.32 77.23V68.75C72.32 68.6386 72.3643 68.5317 72.443 68.453C72.5218 68.3742 72.6286 68.33 72.74 68.33C72.8514 68.33 72.9582 68.3742 73.037 68.453C73.1158 68.5317 73.16 68.6386 73.16 68.75V77.23C73.16 77.3413 73.1158 77.4482 73.037 77.5269C72.9582 77.6057 72.8514 77.65 72.74 77.65V77.65Z" fill="black"/>
<path d="M165.79 116.46C165.679 116.46 165.572 116.416 165.493 116.337C165.414 116.258 165.37 116.151 165.37 116.04V93C165.37 92.9453 165.381 92.8911 165.402 92.8407C165.423 92.7903 165.454 92.7447 165.494 92.7065C165.533 92.6683 165.579 92.6383 165.63 92.6183C165.681 92.5983 165.735 92.5886 165.79 92.59C165.899 92.59 166.003 92.6332 166.08 92.7101C166.157 92.7869 166.2 92.8912 166.2 93V116C166.207 116.058 166.202 116.117 166.184 116.172C166.167 116.228 166.138 116.279 166.099 116.323C166.06 116.366 166.013 116.401 165.959 116.425C165.906 116.448 165.848 116.46 165.79 116.46Z" fill="black"/>
<path d="M165.79 89.83C165.735 89.8313 165.681 89.8217 165.63 89.8017C165.579 89.7817 165.533 89.7517 165.494 89.7135C165.454 89.6753 165.423 89.6297 165.402 89.5793C165.381 89.5288 165.37 89.4747 165.37 89.42V64.42C165.37 64.3653 165.381 64.3112 165.402 64.2608C165.423 64.2104 165.454 64.1647 165.494 64.1265C165.533 64.0883 165.579 64.0583 165.63 64.0383C165.681 64.0183 165.735 64.0087 165.79 64.01C165.899 64.01 166.003 64.0532 166.08 64.1301C166.157 64.207 166.2 64.3113 166.2 64.42V89.42C166.2 89.5287 166.157 89.633 166.08 89.7099C166.003 89.7868 165.899 89.83 165.79 89.83V89.83Z" fill="black"/>
<path d="M205 116.46C204.889 116.46 204.782 116.416 204.703 116.337C204.624 116.258 204.58 116.151 204.58 116.04V63.04C204.58 62.9286 204.624 62.8218 204.703 62.743C204.782 62.6642 204.889 62.62 205 62.62C205.111 62.62 205.218 62.6642 205.297 62.743C205.376 62.8218 205.42 62.9286 205.42 63.04V116.04C205.42 116.151 205.376 116.258 205.297 116.337C205.218 116.416 205.111 116.46 205 116.46V116.46Z" fill="black"/>
<path d="M209.85 67.7799H205C204.94 67.7893 204.879 67.7855 204.821 67.769C204.762 67.7524 204.708 67.7234 204.662 67.684C204.616 67.6445 204.579 67.5956 204.554 67.5405C204.529 67.4855 204.515 67.4256 204.515 67.3649C204.515 67.3043 204.529 67.2444 204.554 67.1894C204.579 67.1343 204.616 67.0854 204.662 67.0459C204.708 67.0065 204.762 66.9775 204.821 66.9609C204.879 66.9444 204.94 66.9406 205 66.9499H209.82C209.88 66.9406 209.941 66.9444 209.999 66.9609C210.058 66.9775 210.112 67.0065 210.158 67.0459C210.204 67.0854 210.241 67.1343 210.266 67.1894C210.291 67.2444 210.305 67.3043 210.305 67.3649C210.305 67.4256 210.291 67.4855 210.266 67.5405C210.241 67.5956 210.204 67.6445 210.158 67.684C210.112 67.7234 210.058 67.7524 209.999 67.769C209.941 67.7855 209.88 67.7893 209.82 67.7799H209.85Z" fill="black"/>
<path d="M257.26 116.84H26.14C26.0286 116.84 25.9218 116.796 25.843 116.717C25.7643 116.638 25.72 116.531 25.72 116.42C25.72 116.365 25.7309 116.311 25.7521 116.261C25.7734 116.21 25.8045 116.165 25.8436 116.127C25.8827 116.088 25.9291 116.058 25.98 116.038C26.0309 116.018 26.0853 116.009 26.14 116.01H257.26C257.315 116.009 257.369 116.018 257.42 116.038C257.471 116.058 257.517 116.088 257.556 116.127C257.596 116.165 257.627 116.21 257.648 116.261C257.669 116.311 257.68 116.365 257.68 116.42C257.68 116.531 257.636 116.638 257.557 116.717C257.478 116.796 257.371 116.84 257.26 116.84Z" fill="black"/>
<path d="M97.58 102.1H81.86C81.8053 102.1 81.7512 102.089 81.7008 102.068C81.6503 102.047 81.6047 102.016 81.5665 101.976C81.5283 101.937 81.4983 101.891 81.4783 101.84C81.4583 101.789 81.4487 101.735 81.45 101.68V78.47C81.4487 78.4154 81.4583 78.361 81.4783 78.3101C81.4983 78.2592 81.5283 78.2128 81.5665 78.1736C81.6047 78.1345 81.6503 78.1034 81.7008 78.0822C81.7512 78.061 81.8053 78.05 81.86 78.05H97.58C97.6347 78.05 97.6888 78.061 97.7392 78.0822C97.7896 78.1034 97.8353 78.1345 97.8735 78.1736C97.9117 78.2128 97.9417 78.2592 97.9617 78.3101C97.9817 78.361 97.9913 78.4154 97.99 78.47V101.68C97.9913 101.735 97.9817 101.789 97.9617 101.84C97.9417 101.891 97.9117 101.937 97.8735 101.976C97.8353 102.016 97.7896 102.047 97.7392 102.068C97.6888 102.089 97.6347 102.1 97.58 102.1V102.1ZM82.28 101.27H97.16V78.88H82.28V101.27Z" fill="black"/>
<path d="M83.28 100.44C83.2065 100.438 83.1367 100.407 83.0848 100.355C83.0328 100.303 83.0025 100.234 83 100.16V79.8401C83.0025 79.7666 83.0328 79.6968 83.0848 79.6448C83.1367 79.5929 83.2065 79.5626 83.28 79.5601H97.69C97.7643 79.5601 97.8355 79.5896 97.888 79.6421C97.9405 79.6946 97.97 79.7658 97.97 79.8401C97.97 79.9143 97.9405 79.9855 97.888 80.038C97.8355 80.0906 97.7643 80.1201 97.69 80.1201H83.56V100.12C83.5641 100.16 83.5601 100.2 83.548 100.238C83.5359 100.276 83.5161 100.311 83.4898 100.341C83.4635 100.371 83.4313 100.395 83.3952 100.412C83.3591 100.43 83.3199 100.439 83.28 100.44V100.44Z" fill="black"/>
<path d="M97.58 104.45H86.12C86.0113 104.45 85.907 104.407 85.8301 104.33C85.7532 104.253 85.71 104.149 85.71 104.04C85.7087 103.985 85.7183 103.931 85.7383 103.88C85.7583 103.829 85.7883 103.783 85.8265 103.744C85.8647 103.705 85.9103 103.673 85.9608 103.652C86.0112 103.631 86.0653 103.62 86.12 103.62H97.12V102.14H80.85C80.7704 102.14 80.6915 102.156 80.6181 102.187C80.5446 102.217 80.478 102.263 80.4222 102.319C80.3663 102.376 80.3223 102.443 80.2928 102.517C80.2632 102.591 80.2487 102.67 80.25 102.75V103C80.2487 103.08 80.2632 103.159 80.2928 103.233C80.3223 103.307 80.3663 103.374 80.4222 103.431C80.478 103.488 80.5446 103.533 80.6181 103.563C80.6915 103.594 80.7704 103.61 80.85 103.61H84.49C84.6014 103.61 84.7082 103.654 84.787 103.733C84.8658 103.812 84.91 103.919 84.91 104.03C84.91 104.085 84.8991 104.139 84.8779 104.189C84.8566 104.24 84.8255 104.285 84.7864 104.324C84.7473 104.362 84.7009 104.392 84.65 104.412C84.5991 104.432 84.5447 104.441 84.49 104.44H80.85C80.4698 104.437 80.1061 104.285 79.8382 104.015C79.5703 103.745 79.42 103.38 79.42 103V102.74C79.42 102.36 79.5703 101.995 79.8382 101.725C80.1061 101.456 80.4698 101.303 80.85 101.3H97.58C97.6347 101.3 97.6888 101.311 97.7392 101.332C97.7896 101.353 97.8353 101.385 97.8735 101.424C97.9117 101.463 97.9417 101.509 97.9617 101.56C97.9817 101.611 97.9913 101.665 97.99 101.72V104C97.9956 104.057 97.9892 104.115 97.9711 104.169C97.953 104.224 97.9237 104.274 97.885 104.316C97.8464 104.359 97.7993 104.392 97.7467 104.415C97.6942 104.439 97.6374 104.45 97.58 104.45V104.45Z" fill="black"/>
<path d="M97.63 104.31H96.13C95.7852 104.31 95.4546 104.173 95.2108 103.929C94.967 103.685 94.83 103.355 94.83 103.01V102.75C94.83 102.405 94.967 102.075 95.2108 101.831C95.4546 101.587 95.7852 101.45 96.13 101.45H97.63C97.694 101.462 97.7516 101.496 97.7931 101.547C97.8346 101.597 97.8573 101.66 97.8573 101.725C97.8573 101.79 97.8346 101.853 97.7931 101.903C97.7516 101.954 97.694 101.988 97.63 102H96.13C95.9319 102.003 95.7426 102.082 95.6025 102.222C95.4624 102.363 95.3826 102.552 95.38 102.75V103C95.3826 103.198 95.4624 103.387 95.6025 103.527C95.7426 103.668 95.9319 103.747 96.13 103.75H97.63C97.694 103.762 97.7516 103.796 97.7931 103.847C97.8346 103.897 97.8573 103.96 97.8573 104.025C97.8573 104.09 97.8346 104.153 97.7931 104.203C97.7516 104.254 97.694 104.288 97.63 104.3V104.31Z" fill="black"/>
<path d="M90 100.11C89.9453 100.111 89.8909 100.102 89.84 100.082C89.7891 100.062 89.7427 100.032 89.7036 99.9935C89.6645 99.9553 89.6334 99.9097 89.6121 99.8593C89.5909 99.8089 89.58 99.7547 89.58 99.7V88.94C89.58 88.8853 89.5909 88.8312 89.6121 88.7808C89.6334 88.7304 89.6645 88.6847 89.7036 88.6465C89.7427 88.6083 89.7891 88.5783 89.84 88.5583C89.8909 88.5383 89.9453 88.5287 90 88.53C90.1087 88.53 90.213 88.5732 90.2899 88.6501C90.3668 88.727 90.41 88.8313 90.41 88.94V99.7C90.41 99.8088 90.3668 99.9131 90.2899 99.9899C90.213 100.067 90.1087 100.11 90 100.11V100.11Z" fill="black"/>
<path d="M90 87.12C89.9453 87.1213 89.8909 87.1117 89.84 87.0917C89.7891 87.0717 89.7427 87.0417 89.7036 87.0035C89.6645 86.9653 89.6334 86.9196 89.6121 86.8692C89.5909 86.8188 89.58 86.7647 89.58 86.71V81.15C89.58 81.0386 89.6243 80.9318 89.703 80.853C89.7818 80.7742 89.8886 80.73 90 80.73C90.0547 80.73 90.1088 80.7409 90.1592 80.7621C90.2097 80.7833 90.2553 80.8144 90.2935 80.8536C90.3317 80.8927 90.3617 80.9391 90.3817 80.99C90.4017 81.0409 90.4113 81.0953 90.41 81.15V86.71C90.41 86.8187 90.3668 86.923 90.2899 86.9999C90.213 87.0768 90.1087 87.12 90 87.12V87.12Z" fill="black"/>
<path d="M97.56 90.93H84.56C84.4513 90.93 84.347 90.8868 84.2701 90.8099C84.1932 90.733 84.15 90.6287 84.15 90.52C84.1487 90.4653 84.1583 90.4109 84.1783 90.36C84.1983 90.3091 84.2283 90.2627 84.2665 90.2236C84.3047 90.1844 84.3503 90.1533 84.4007 90.1321C84.4512 90.1109 84.5053 90.1 84.56 90.1H97.56C97.6714 90.1 97.7782 90.1442 97.857 90.223C97.9357 90.3018 97.98 90.4086 97.98 90.52C97.98 90.5747 97.9691 90.6288 97.9479 90.6792C97.9266 90.7296 97.8955 90.7753 97.8564 90.8135C97.8173 90.8517 97.7709 90.8817 97.72 90.9017C97.6691 90.9217 97.6147 90.9313 97.56 90.93V90.93Z" fill="black"/>
<path d="M153.94 102.1H138.22C138.109 102.1 138.002 102.056 137.923 101.977C137.844 101.898 137.8 101.791 137.8 101.68V93.91C137.8 93.7987 137.844 93.6918 137.923 93.6131C138.002 93.5343 138.109 93.49 138.22 93.49C138.331 93.49 138.438 93.5343 138.517 93.6131C138.596 93.6918 138.64 93.7987 138.64 93.91V101.27H153.52V78.88H138.64V92.24C138.64 92.3514 138.596 92.4583 138.517 92.537C138.438 92.6158 138.331 92.66 138.22 92.66C138.109 92.66 138.002 92.6158 137.923 92.537C137.844 92.4583 137.8 92.3514 137.8 92.24V78.47C137.8 78.3587 137.844 78.2518 137.923 78.1731C138.002 78.0943 138.109 78.05 138.22 78.05H153.94C153.995 78.05 154.049 78.061 154.099 78.0822C154.15 78.1034 154.195 78.1345 154.234 78.1736C154.272 78.2128 154.302 78.2592 154.322 78.3101C154.342 78.361 154.351 78.4154 154.35 78.47V101.68C154.351 101.735 154.342 101.789 154.322 101.84C154.302 101.891 154.272 101.937 154.234 101.976C154.195 102.016 154.15 102.047 154.099 102.068C154.049 102.089 153.995 102.1 153.94 102.1V102.1Z" fill="black"/>
<path d="M139.64 100.51C139.604 100.511 139.568 100.505 139.534 100.492C139.5 100.479 139.469 100.46 139.443 100.435C139.416 100.409 139.396 100.379 139.381 100.346C139.367 100.312 139.36 100.276 139.36 100.24V79.88C139.36 79.8432 139.367 79.8068 139.381 79.7728C139.395 79.7389 139.416 79.708 139.442 79.682C139.468 79.656 139.499 79.6354 139.533 79.6213C139.567 79.6072 139.603 79.6 139.64 79.6H152.64C152.714 79.6 152.785 79.6295 152.838 79.682C152.891 79.7345 152.92 79.8057 152.92 79.88C152.92 79.9542 152.891 80.0255 152.838 80.078C152.785 80.1305 152.714 80.16 152.64 80.16H139.91V100.24C139.91 100.275 139.903 100.311 139.889 100.343C139.876 100.376 139.856 100.406 139.831 100.431C139.806 100.456 139.776 100.476 139.743 100.489C139.711 100.503 139.675 100.51 139.64 100.51Z" fill="black"/>
<path d="M153.92 104.45H137C136.681 104.447 136.376 104.319 136.151 104.092C135.926 103.866 135.8 103.559 135.8 103.24V102.52C135.8 102.201 135.926 101.895 136.151 101.668C136.376 101.441 136.681 101.313 137 101.31H153.94C154.051 101.31 154.158 101.354 154.237 101.433C154.316 101.512 154.36 101.619 154.36 101.73V104C154.366 104.06 154.359 104.12 154.339 104.177C154.319 104.233 154.287 104.285 154.245 104.328C154.203 104.371 154.152 104.404 154.096 104.425C154.04 104.446 153.98 104.455 153.92 104.45V104.45ZM137 102.14C136.901 102.143 136.807 102.184 136.738 102.255C136.669 102.326 136.63 102.421 136.63 102.52V103.24C136.63 103.339 136.669 103.434 136.738 103.505C136.807 103.576 136.901 103.617 137 103.62H153.53V102.14H137Z" fill="black"/>
<path d="M154 104.31H152.51C152.165 104.31 151.835 104.173 151.591 103.929C151.347 103.685 151.21 103.355 151.21 103.01V102.75C151.21 102.405 151.347 102.075 151.591 101.831C151.835 101.587 152.165 101.45 152.51 101.45H154C154.04 101.442 154.082 101.443 154.122 101.454C154.162 101.464 154.199 101.483 154.231 101.509C154.263 101.535 154.288 101.568 154.306 101.606C154.324 101.643 154.333 101.684 154.333 101.725C154.333 101.766 154.324 101.807 154.306 101.844C154.288 101.882 154.263 101.914 154.231 101.941C154.199 101.967 154.162 101.986 154.122 101.996C154.082 102.006 154.04 102.008 154 102H152.51C152.312 102.003 152.123 102.082 151.983 102.222C151.842 102.363 151.763 102.552 151.76 102.75V103C151.763 103.198 151.842 103.387 151.983 103.527C152.123 103.668 152.312 103.747 152.51 103.75H154C154.04 103.742 154.082 103.743 154.122 103.754C154.162 103.764 154.199 103.783 154.231 103.809C154.263 103.835 154.288 103.868 154.306 103.906C154.324 103.943 154.333 103.984 154.333 104.025C154.333 104.066 154.324 104.107 154.306 104.144C154.288 104.182 154.263 104.214 154.231 104.241C154.199 104.267 154.162 104.286 154.122 104.296C154.082 104.306 154.04 104.308 154 104.3V104.31Z" fill="black"/>
<path d="M146.37 100.11C146.315 100.111 146.261 100.102 146.21 100.082C146.159 100.062 146.113 100.032 146.074 99.9935C146.034 99.9553 146.003 99.9096 145.982 99.8592C145.961 99.8088 145.95 99.7547 145.95 99.7V94.26C145.95 94.1486 145.994 94.0417 146.073 93.963C146.152 93.8842 146.259 93.84 146.37 93.84C146.425 93.8399 146.479 93.8509 146.529 93.8721C146.58 93.8933 146.625 93.9244 146.664 93.9636C146.702 94.0027 146.732 94.0491 146.752 94.1C146.772 94.1509 146.781 94.2053 146.78 94.26V99.7C146.78 99.8087 146.737 99.913 146.66 99.9899C146.583 100.067 146.479 100.11 146.37 100.11V100.11Z" fill="black"/>
<path d="M146.37 92.9C146.315 92.9014 146.261 92.8917 146.21 92.8717C146.159 92.8517 146.113 92.8217 146.074 92.7835C146.034 92.7453 146.003 92.6997 145.982 92.6493C145.961 92.5989 145.95 92.5447 145.95 92.49V81.58C145.95 81.4686 145.994 81.3618 146.073 81.283C146.152 81.2043 146.259 81.16 146.37 81.16C146.425 81.16 146.479 81.1709 146.529 81.1922C146.58 81.2134 146.625 81.2445 146.664 81.2836C146.702 81.3228 146.732 81.3692 146.752 81.4201C146.772 81.471 146.781 81.5254 146.78 81.58V92.49C146.78 92.5988 146.737 92.7031 146.66 92.7799C146.583 92.8568 146.479 92.9 146.37 92.9V92.9Z" fill="black"/>
<path d="M153.92 90.93H141.28C141.225 90.9313 141.171 90.9217 141.12 90.9017C141.069 90.8817 141.023 90.8517 140.984 90.8135C140.944 90.7753 140.913 90.7296 140.892 90.6792C140.871 90.6288 140.86 90.5747 140.86 90.52C140.86 90.4086 140.904 90.3018 140.983 90.223C141.062 90.1442 141.169 90.1 141.28 90.1H153.92C154.031 90.1 154.138 90.1442 154.217 90.223C154.296 90.3018 154.34 90.4086 154.34 90.52C154.34 90.5747 154.329 90.6288 154.308 90.6792C154.287 90.7296 154.256 90.7753 154.216 90.8135C154.177 90.8517 154.131 90.8817 154.08 90.9017C154.029 90.9217 153.975 90.9313 153.92 90.93V90.93Z" fill="black"/>
<path d="M161.45 68.45C161.036 68.4494 160.63 68.3286 160.283 68.1021C159.936 67.8756 159.663 67.5532 159.495 67.1741C159.328 66.795 159.274 66.3755 159.341 65.9665C159.407 65.5575 159.591 65.1766 159.87 64.87L174.14 49.16C174.175 49.1125 174.219 49.0728 174.27 49.0435C174.321 49.0142 174.378 48.9959 174.436 48.9899C174.495 48.9839 174.554 48.9902 174.61 49.0085C174.666 49.0267 174.717 49.0566 174.761 49.096C174.804 49.1354 174.839 49.1836 174.863 49.2374C174.887 49.2912 174.899 49.3493 174.899 49.4082C174.899 49.467 174.887 49.5252 174.863 49.5789C174.839 49.6326 174.804 49.6807 174.76 49.72L160.48 65.43C160.365 65.557 160.277 65.7055 160.221 65.8669C160.164 66.0283 160.14 66.1993 160.15 66.37C160.155 66.5422 160.195 66.7115 160.267 66.8678C160.339 67.0242 160.442 67.1644 160.57 67.28C160.833 67.5015 161.17 67.6153 161.513 67.5986C161.856 67.5819 162.18 67.436 162.42 67.19L186.71 40.46C186.749 40.414 186.799 40.3775 186.854 40.3533C186.909 40.329 186.97 40.3176 187.03 40.32C187.089 40.3217 187.148 40.3359 187.201 40.3618C187.255 40.3876 187.302 40.4245 187.34 40.47L209.5 66.47C209.611 66.6013 209.746 66.7094 209.899 66.7881C210.051 66.8667 210.218 66.9144 210.389 66.9283C210.56 66.9423 210.732 66.9222 210.895 66.8693C211.058 66.8164 211.21 66.7317 211.34 66.62C211.603 66.3952 211.766 66.0756 211.794 65.7309C211.822 65.3862 211.713 65.0444 211.49 64.78L188.06 37.28C187.935 37.1379 187.781 37.0236 187.609 36.9443C187.436 36.8651 187.25 36.8228 187.06 36.82C186.872 36.8171 186.686 36.8539 186.514 36.928C186.342 37.0021 186.187 37.1119 186.06 37.25L178.06 45.94C178.025 45.9875 177.981 46.0272 177.93 46.0565C177.879 46.0859 177.822 46.1041 177.764 46.1102C177.705 46.1162 177.646 46.1099 177.59 46.0916C177.534 46.0733 177.483 46.0435 177.439 46.0041C177.396 45.9646 177.361 45.9165 177.337 45.8627C177.313 45.8089 177.301 45.7507 177.301 45.6919C177.301 45.633 177.313 45.5749 177.337 45.5212C177.361 45.4674 177.396 45.4194 177.44 45.38L185.44 36.69C185.644 36.4654 185.894 36.2869 186.173 36.1662C186.452 36.0456 186.753 35.9856 187.056 35.9904C187.36 35.9951 187.659 36.0644 187.934 36.1936C188.209 36.3229 188.453 36.5092 188.65 36.74L212.08 64.22C212.301 64.4248 212.475 64.6737 212.593 64.9506C212.711 65.2275 212.769 65.5261 212.763 65.8269C212.758 66.1278 212.689 66.4241 212.562 66.6965C212.434 66.9689 212.25 67.2114 212.022 67.408C211.795 67.6046 211.528 67.751 211.24 67.8376C210.952 67.9242 210.648 67.9491 210.35 67.9106C210.052 67.8721 209.765 67.7711 209.508 67.6142C209.251 67.4573 209.03 67.248 208.86 67L187 41.37L163 67.75C162.803 67.966 162.564 68.1394 162.297 68.2598C162.031 68.3802 161.742 68.4449 161.45 68.45V68.45Z" fill="black"/>
<path d="M175.8 48.3799C175.696 48.3782 175.597 48.3391 175.52 48.2699C175.442 48.1913 175.399 48.0854 175.399 47.9749C175.399 47.8645 175.442 47.7585 175.52 47.6799L176.3 46.8299C176.337 46.7906 176.382 46.7593 176.432 46.7379C176.482 46.7165 176.536 46.7054 176.59 46.7054C176.644 46.7054 176.698 46.7165 176.748 46.7379C176.798 46.7593 176.843 46.7906 176.88 46.8299C176.92 46.8682 176.951 46.914 176.973 46.9647C176.994 47.0154 177.005 47.0699 177.005 47.1249C177.005 47.18 176.994 47.2345 176.973 47.2852C176.951 47.3359 176.92 47.3817 176.88 47.4199L176.11 48.2699C176.025 48.3463 175.914 48.3858 175.8 48.3799Z" fill="black"/>
<path d="M69.45 68.42H67.24C66.683 68.42 66.1489 68.1987 65.7551 67.8049C65.3612 67.4111 65.14 66.8769 65.14 66.32C65.14 65.763 65.3612 65.2289 65.7551 64.835C66.1489 64.4412 66.683 64.22 67.24 64.22H69.45C69.5047 64.2186 69.5591 64.2283 69.61 64.2483C69.6609 64.2683 69.7073 64.2983 69.7464 64.3365C69.7855 64.3747 69.8166 64.4203 69.8379 64.4707C69.8591 64.5211 69.87 64.5753 69.87 64.63C69.87 64.7414 69.8258 64.8482 69.747 64.927C69.6682 65.0057 69.5614 65.05 69.45 65.05H67.24C66.9032 65.05 66.5801 65.1838 66.342 65.4219C66.1038 65.6601 65.97 65.9831 65.97 66.32C65.97 66.6568 66.1038 66.9798 66.342 67.218C66.5801 67.4562 66.9032 67.59 67.24 67.59H69.45C69.5047 67.5886 69.5591 67.5983 69.61 67.6183C69.6609 67.6383 69.7073 67.6683 69.7464 67.7065C69.7855 67.7447 69.8166 67.7903 69.8379 67.8407C69.8591 67.8911 69.87 67.9453 69.87 68C69.87 68.1114 69.8258 68.2182 69.747 68.297C69.6682 68.3757 69.5614 68.42 69.45 68.42Z" fill="black"/>
<path d="M39.54 116.48C39.4329 116.483 39.329 116.443 39.2505 116.371C39.172 116.298 39.1252 116.197 39.12 116.09C39.1255 114.038 39.7302 112.033 40.86 110.32C40.9213 110.228 41.0159 110.163 41.1239 110.139C41.232 110.114 41.3452 110.133 41.44 110.19C41.4853 110.216 41.5249 110.25 41.5563 110.292C41.5876 110.333 41.6101 110.381 41.6223 110.432C41.6345 110.482 41.6361 110.535 41.6271 110.586C41.6181 110.638 41.5987 110.686 41.57 110.73C40.5362 112.326 39.9906 114.189 40 116.09C39.9977 116.147 39.9836 116.202 39.9587 116.253C39.9339 116.304 39.8987 116.349 39.8555 116.386C39.8123 116.422 39.7619 116.45 39.7076 116.466C39.6533 116.482 39.5962 116.487 39.54 116.48Z" fill="black"/>
<path d="M42 109.8C41.9058 109.799 41.8145 109.768 41.74 109.71C41.6569 109.64 41.6041 109.54 41.5929 109.432C41.5818 109.324 41.613 109.216 41.68 109.13C43.163 107.251 45.1936 105.88 47.4906 105.206C49.7875 104.532 52.2371 104.59 54.5 105.37C54.8696 105.505 55.2731 105.517 55.6499 105.403C56.0267 105.29 56.3566 105.057 56.59 104.74C58.1232 102.65 60.1273 100.951 62.4397 99.7797C64.7522 98.6088 67.308 97.999 69.9 98C70.7977 98.0029 71.6938 98.0764 72.58 98.22C72.6342 98.2284 72.6861 98.2477 72.7328 98.2766C72.7794 98.3054 72.8198 98.3434 72.8515 98.3881C72.8832 98.4329 72.9056 98.4835 72.9173 98.5371C72.9291 98.5907 72.93 98.6461 72.92 98.7C72.9128 98.7538 72.8947 98.8055 72.8668 98.8521C72.839 98.8987 72.802 98.9391 72.758 98.9709C72.714 99.0027 72.664 99.0252 72.6111 99.0371C72.5581 99.049 72.5033 99.05 72.45 99.04C71.6064 98.908 70.7539 98.8412 69.9 98.84C67.4377 98.8487 65.0122 99.4372 62.8197 100.558C60.6272 101.678 58.7294 103.3 57.28 105.29C56.9462 105.747 56.4737 106.083 55.933 106.249C55.3922 106.415 54.8124 106.401 54.28 106.21C52.1759 105.49 49.9005 105.439 47.7662 106.064C45.6319 106.689 43.7434 107.959 42.36 109.7C42.3122 109.744 42.2546 109.776 42.192 109.793C42.1295 109.811 42.0636 109.813 42 109.8Z" fill="black"/>
<path d="M187.21 64.64C185.36 64.64 183.85 62.64 183.85 60.08C183.85 57.52 185.36 55.53 187.21 55.53C189.06 55.53 190.56 57.53 190.56 60.08C190.56 62.63 189.06 64.64 187.21 64.64ZM187.21 56.36C185.82 56.36 184.69 58.03 184.69 60.08C184.69 62.13 185.82 63.81 187.21 63.81C188.6 63.81 189.73 62.14 189.73 60.08C189.73 58.02 188.6 56.36 187.21 56.36Z" fill="black"/>
<path d="M186.66 64.4499C186.6 64.4488 186.541 64.4289 186.493 64.393C186.445 64.3572 186.409 64.3072 186.39 64.2499C186.371 64.1797 186.381 64.1049 186.416 64.0415C186.452 63.978 186.51 63.9309 186.58 63.9099C187.81 63.5399 188.7 61.9099 188.7 60.1199C188.721 59.5284 188.625 58.9384 188.418 58.3841C188.21 57.8298 187.895 57.322 187.49 56.8899C187.443 56.837 187.417 56.7682 187.419 56.6973C187.42 56.6264 187.449 56.5588 187.498 56.508C187.548 56.4572 187.615 56.4271 187.686 56.4238C187.756 56.4204 187.826 56.4441 187.88 56.4899C188.337 56.9746 188.695 57.5447 188.931 58.1676C189.168 58.7904 189.28 59.4539 189.26 60.1199C189.26 62.2199 188.26 63.9899 186.74 64.4399L186.66 64.4499Z" fill="black"/>
<path d="M235.57 116.84C235.516 116.836 235.463 116.822 235.415 116.798C235.367 116.773 235.324 116.74 235.289 116.699C235.253 116.658 235.226 116.611 235.209 116.559C235.193 116.508 235.186 116.454 235.19 116.4C235.19 116.26 235.19 116.12 235.19 115.98C235.179 114.453 234.564 112.993 233.479 111.919C232.394 110.845 230.927 110.245 229.4 110.25H229.04C228.962 110.254 228.885 110.236 228.816 110.199C228.747 110.162 228.69 110.107 228.65 110.04C227.636 108.349 226.201 106.951 224.485 105.98C222.769 105.009 220.831 104.499 218.86 104.5H218.3C217.591 104.538 216.885 104.386 216.254 104.061C215.623 103.736 215.09 103.249 214.71 102.65C213.686 101.002 212.254 99.6445 210.554 98.7093C208.853 97.7741 206.941 97.2922 205 97.31C204.946 97.31 204.893 97.2994 204.843 97.2788C204.793 97.2582 204.748 97.2279 204.71 97.1899C204.672 97.1518 204.642 97.1066 204.621 97.0569C204.601 97.0071 204.59 96.9538 204.59 96.9C204.59 96.8461 204.601 96.7928 204.621 96.7431C204.642 96.6933 204.672 96.6481 204.71 96.6101C204.748 96.572 204.793 96.5418 204.843 96.5212C204.893 96.5006 204.946 96.49 205 96.49C207.081 96.4775 209.129 97.0009 210.949 98.0097C212.769 99.0185 214.298 100.479 215.39 102.25C215.69 102.724 216.112 103.11 216.611 103.367C217.111 103.623 217.669 103.742 218.23 103.71H218.83C220.903 103.71 222.943 104.236 224.758 105.238C226.573 106.24 228.105 107.686 229.21 109.44C230.088 109.419 230.962 109.572 231.78 109.891C232.599 110.211 233.345 110.689 233.977 111.3C234.609 111.91 235.113 112.64 235.46 113.447C235.808 114.254 235.991 115.122 236 116C236 116.16 236 116.32 236 116.48C235.985 116.582 235.933 116.676 235.854 116.742C235.775 116.809 235.673 116.843 235.57 116.84V116.84Z" fill="black"/>
<path d="M260.86 116.85H259C258.889 116.85 258.782 116.806 258.703 116.727C258.624 116.648 258.58 116.541 258.58 116.43C258.58 116.319 258.624 116.212 258.703 116.133C258.782 116.054 258.889 116.01 259 116.01H260.89C261.001 116.01 261.108 116.054 261.187 116.133C261.266 116.212 261.31 116.319 261.31 116.43C261.31 116.541 261.266 116.648 261.187 116.727C261.108 116.806 261.001 116.85 260.89 116.85H260.86Z" fill="black"/>
<path d="M188.29 117.37C188.29 115.32 186.86 113.54 185.19 113.54C184.522 113.585 183.886 113.844 183.377 114.281C182.869 114.717 182.515 115.306 182.37 115.96C182.173 115.579 181.878 115.258 181.516 115.028C181.155 114.797 180.738 114.667 180.31 114.65C179.627 114.721 178.993 115.043 178.532 115.552C178.071 116.061 177.814 116.723 177.81 117.41" fill="white"/>
<path d="M177.81 116.94C177.7 116.927 177.6 116.872 177.531 116.786C177.461 116.7 177.429 116.59 177.44 116.48C177.495 115.944 177.698 115.433 178.025 115.005C178.353 114.576 178.793 114.247 179.296 114.053C179.799 113.86 180.346 113.809 180.877 113.908C181.407 114.006 181.899 114.249 182.3 114.61C182.607 114.108 183.038 113.693 183.55 113.404C184.063 113.115 184.641 112.962 185.23 112.96C186.161 112.973 187.051 113.349 187.708 114.009C188.366 114.668 188.74 115.559 188.75 116.49C188.75 116.601 188.706 116.708 188.627 116.787C188.548 116.866 188.441 116.91 188.33 116.91C188.275 116.91 188.221 116.899 188.171 116.878C188.12 116.857 188.075 116.825 188.036 116.786C187.998 116.747 187.968 116.701 187.948 116.65C187.928 116.599 187.919 116.545 187.92 116.49C187.902 115.781 187.614 115.106 187.113 114.604C186.613 114.101 185.939 113.81 185.23 113.79C184.699 113.794 184.182 113.959 183.747 114.262C183.311 114.565 182.978 114.993 182.79 115.49C182.766 115.562 182.722 115.625 182.664 115.673C182.606 115.72 182.535 115.751 182.46 115.76C182.384 115.769 182.308 115.758 182.238 115.728C182.167 115.698 182.106 115.65 182.06 115.59C181.814 115.241 181.468 114.975 181.067 114.829C180.666 114.682 180.23 114.662 179.817 114.771C179.404 114.88 179.035 115.113 178.758 115.438C178.482 115.763 178.311 116.165 178.27 116.59C178.251 116.695 178.193 116.789 178.108 116.854C178.023 116.918 177.916 116.949 177.81 116.94V116.94Z" fill="black"/>
<path d="M160.42 65.12H118.19C118.079 65.12 117.972 65.0758 117.893 64.997C117.814 64.9183 117.77 64.8114 117.77 64.7C117.77 64.6453 117.781 64.5912 117.802 64.5408C117.823 64.4904 117.854 64.4447 117.894 64.4065C117.933 64.3683 117.979 64.3383 118.03 64.3183C118.081 64.2983 118.135 64.2887 118.19 64.29H160.42C160.475 64.2887 160.529 64.2983 160.58 64.3183C160.631 64.3383 160.677 64.3683 160.716 64.4065C160.756 64.4447 160.787 64.4904 160.808 64.5408C160.829 64.5912 160.84 64.6453 160.84 64.7C160.84 64.8114 160.796 64.9183 160.717 64.997C160.638 65.0758 160.531 65.12 160.42 65.12Z" fill="black"/>
<path d="M256.5 77.8601C250.45 41.3 242 42.94 242 42.94C242 42.94 233.84 41.2701 227.79 77.8301C227.605 78.9708 227.511 80.1244 227.51 81.28C227.51 91.15 234.07 99.1501 242.16 99.1501C250.25 99.1501 256.82 91.15 256.82 81.28C256.804 80.1334 256.697 78.9898 256.5 77.8601V77.8601Z" fill="#EFF3F6"/>
<path d="M256.78 81.3099C256.779 80.1543 256.685 79.0007 256.5 77.86V77.86C250.45 41.2999 242 42.9399 242 42.9399C241.512 42.9006 241.023 43.0123 240.6 43.2599C242.76 47.6499 249.6 62.5599 250.28 76.4499C250.9 89.1899 246.68 95.7699 242.07 99.1399H242.19C250.22 99.1799 256.78 91.1799 256.78 81.3099Z" fill="#DCE2E7"/>
<path d="M242.12 99.59C233.82 99.59 227.06 91.39 227.06 81.31C227.057 80.1849 227.144 79.0613 227.32 77.95C227.305 77.8977 227.305 77.8423 227.32 77.79C231.54 52.29 236.86 45.26 239.66 43.33C240.283 42.8399 241.047 42.5629 241.84 42.54V42.54C242.768 42.4835 243.682 42.7881 244.39 43.39C247.26 45.39 252.7 52.52 256.89 77.8V77.9C257.069 79.0313 257.159 80.1747 257.16 81.32C257.19 91.39 250.43 99.59 242.12 99.59ZM228.12 77.77C228.135 77.8223 228.135 77.8777 228.12 77.93C227.941 79.0478 227.851 80.178 227.85 81.31C227.85 90.93 234.24 98.76 242.08 98.76C249.92 98.76 256.32 90.93 256.32 81.31C256.319 80.178 256.228 79.0478 256.05 77.93C256.045 77.8968 256.045 77.8631 256.05 77.83C250.72 45.74 243.53 43.49 242.21 43.35C242.127 43.4257 242.022 43.4715 241.91 43.48C241.811 43.4787 241.716 43.4434 241.64 43.38C240.48 43.48 233.52 45.53 228.15 77.77H228.12Z" fill="black"/>
<path d="M241.94 116.31C241.831 116.31 241.727 116.267 241.65 116.19C241.573 116.113 241.53 116.009 241.53 115.9V81.12C241.53 81.0112 241.573 80.9069 241.65 80.83C241.727 80.7532 241.831 80.71 241.94 80.71C241.995 80.7086 242.049 80.7182 242.1 80.7383C242.151 80.7583 242.197 80.7882 242.236 80.8265C242.276 80.8647 242.307 80.9103 242.328 80.9607C242.349 81.0111 242.36 81.0653 242.36 81.12V115.9C242.36 115.955 242.349 116.009 242.328 116.059C242.307 116.11 242.276 116.155 242.236 116.193C242.197 116.232 242.151 116.262 242.1 116.282C242.049 116.302 241.995 116.311 241.94 116.31Z" fill="black"/>
<path d="M241.78 88.8901C241.693 88.8924 241.608 88.8641 241.54 88.8101L236.19 85.0001C236.136 84.9722 236.089 84.933 236.052 84.8852C236.015 84.8374 235.988 84.7822 235.974 84.7232C235.96 84.6642 235.959 84.6029 235.971 84.5435C235.983 84.4841 236.008 84.428 236.044 84.3791C236.08 84.3302 236.126 84.2896 236.179 84.2601C236.232 84.2306 236.29 84.2129 236.351 84.2083C236.411 84.2036 236.472 84.2121 236.529 84.2331C236.586 84.2541 236.637 84.2872 236.68 84.3301L242.02 88.1301C242.11 88.1962 242.171 88.2947 242.189 88.4048C242.208 88.5149 242.183 88.628 242.12 88.7201C242.081 88.7731 242.029 88.8162 241.97 88.8457C241.911 88.8753 241.846 88.8905 241.78 88.8901V88.8901Z" fill="black"/>
<path d="M242.08 93.36C242.013 93.3601 241.947 93.3438 241.888 93.3124C241.828 93.281 241.778 93.2356 241.74 93.18C241.676 93.0908 241.65 92.9801 241.667 92.8717C241.684 92.7633 241.742 92.6658 241.83 92.6L247.18 88.79C247.27 88.7336 247.379 88.7136 247.483 88.7342C247.588 88.7548 247.681 88.8143 247.743 88.9008C247.805 88.9872 247.833 89.0942 247.819 89.1999C247.805 89.3056 247.752 89.4021 247.67 89.47L242.32 93.28C242.249 93.3286 242.166 93.3563 242.08 93.36V93.36Z" fill="black"/>
<path d="M232.33 69.08C232.294 69.0752 232.26 69.0632 232.229 69.0449C232.198 69.0266 232.171 69.0023 232.15 68.9734C232.128 68.9445 232.113 68.9117 232.104 68.8767C232.096 68.8418 232.094 68.8055 232.1 68.77C232.916 64.0695 234.182 59.4583 235.88 55C235.911 54.9381 235.964 54.8901 236.029 54.8651C236.094 54.8402 236.166 54.8402 236.23 54.8651C236.295 54.89 236.348 54.938 236.38 54.9999C236.411 55.0618 236.418 55.1331 236.4 55.2C234.695 59.6261 233.426 64.2077 232.61 68.88C232.592 68.9398 232.555 68.9919 232.504 69.0281C232.454 69.0643 232.392 69.0826 232.33 69.08Z" fill="black"/>
<path d="M236.92 53.32H236.82C236.753 53.2912 236.699 53.2381 236.669 53.1713C236.64 53.1046 236.636 53.0291 236.66 52.96C237.6 50.63 238.3 49.15 238.31 49.14C238.322 49.1018 238.342 49.0667 238.369 49.0371C238.396 49.0074 238.429 48.9838 238.466 48.968C238.503 48.9521 238.542 48.9443 238.582 48.9451C238.622 48.9459 238.662 48.9553 238.698 48.9726C238.734 48.99 238.766 49.0148 238.792 49.0456C238.817 49.0763 238.836 49.1122 238.847 49.1508C238.857 49.1894 238.86 49.2298 238.853 49.2694C238.847 49.3089 238.832 49.3466 238.81 49.38C238.81 49.38 238.11 50.86 237.18 53.17C237.154 53.2163 237.117 53.2548 237.071 53.2812C237.025 53.3077 236.973 53.3211 236.92 53.32V53.32Z" fill="black"/>
<path d="M210.11 107.29C211.11 110.29 208.9 111.37 208.9 111.37V111.46C208.616 110.347 208.088 109.312 207.355 108.428C206.622 107.544 205.701 106.834 204.66 106.35L204.52 106.29C204.56 106.18 204.591 106.066 204.61 105.95C204.687 105.565 204.721 105.173 204.71 104.78L204.96 105.04C204.96 105.04 206.45 105.26 206.85 104.1C207.25 102.94 206.75 101.47 204.63 99.6C202.51 97.73 201.22 98.34 201.22 98.34C200.828 98.0643 200.359 97.9176 199.88 97.92C199.423 97.9063 198.978 98.0632 198.63 98.36H198.55C198.55 98.36 197.26 97.75 195.13 99.62C193 101.49 192.51 102.96 192.91 104.12C193.31 105.28 194.81 105.06 194.81 105.06L195.06 104.6C195.036 105.059 195.066 105.518 195.15 105.97C195.25 106.547 195.487 107.093 195.84 107.56V107.64C195.453 108.143 195.236 108.756 195.22 109.39C195.22 110.09 195.22 113.39 195.22 115.48C195.22 115.987 195.421 116.472 195.779 116.831C196.138 117.189 196.623 117.39 197.13 117.39H197.42C197.926 117.387 198.41 117.185 198.768 116.828C199.125 116.47 199.327 115.986 199.33 115.48V113.19L199.24 113.05C199.692 113.142 200.158 113.142 200.61 113.05V113.18H200.55V115.43C200.55 115.939 200.752 116.428 201.112 116.788C201.472 117.148 201.961 117.35 202.47 117.35H202.7C203.209 117.35 203.698 117.148 204.058 116.788C204.418 116.428 204.62 115.939 204.62 115.43H205.62C205.609 115.53 205.609 115.63 205.62 115.73C205.62 116.115 205.773 116.483 206.045 116.755C206.317 117.027 206.685 117.18 207.07 117.18H207.99C208.288 117.177 208.573 117.057 208.783 116.846C208.992 116.634 209.11 116.348 209.11 116.05V112.93L209.19 113.44C210.11 112.919 210.818 112.09 211.19 111.1C211.397 110.428 211.405 109.711 211.213 109.035C211.022 108.359 210.639 107.753 210.11 107.29V107.29Z" fill="white"/>
<path d="M197.49 117.79H197.21C196.593 117.787 196.002 117.541 195.565 117.105C195.129 116.668 194.883 116.077 194.88 115.46C194.88 113.05 194.88 110.03 194.88 109.36C194.907 108.635 195.158 107.936 195.6 107.36C195.674 107.285 195.774 107.241 195.88 107.236C195.985 107.231 196.089 107.266 196.169 107.334C196.25 107.402 196.302 107.499 196.315 107.603C196.328 107.708 196.302 107.814 196.24 107.9V107.9C195.916 108.334 195.734 108.858 195.72 109.4C195.72 109.93 195.72 112.03 195.72 115.48C195.723 115.876 195.882 116.255 196.163 116.534C196.444 116.813 196.824 116.97 197.22 116.97H197.5C197.896 116.97 198.276 116.813 198.557 116.534C198.838 116.255 198.997 115.876 199 115.48V113.19C199 113.135 199.011 113.081 199.032 113.031C199.053 112.98 199.084 112.935 199.124 112.896C199.163 112.858 199.209 112.828 199.26 112.808C199.311 112.788 199.365 112.779 199.42 112.78C199.529 112.78 199.633 112.823 199.71 112.9C199.787 112.977 199.83 113.081 199.83 113.19V115.48C199.825 116.096 199.576 116.685 199.137 117.118C198.698 117.551 198.106 117.793 197.49 117.79V117.79Z" fill="black"/>
<path d="M200.11 113.54C199.258 113.535 198.428 113.269 197.73 112.78C197.644 112.711 197.586 112.612 197.57 112.503C197.553 112.393 197.578 112.282 197.64 112.19C197.709 112.103 197.809 112.046 197.919 112.031C198.029 112.016 198.14 112.045 198.23 112.11C198.757 112.489 199.39 112.693 200.04 112.693C200.69 112.693 201.323 112.489 201.85 112.11C201.893 112.077 201.943 112.053 201.995 112.039C202.048 112.026 202.103 112.022 202.157 112.03C202.21 112.037 202.262 112.055 202.309 112.083C202.356 112.11 202.397 112.147 202.43 112.19C202.463 112.233 202.487 112.283 202.501 112.335C202.514 112.388 202.518 112.443 202.51 112.497C202.503 112.55 202.485 112.602 202.457 112.649C202.43 112.696 202.393 112.737 202.35 112.77C201.71 113.269 200.922 113.54 200.11 113.54V113.54Z" fill="black"/>
<path d="M202.82 117.82H202.58C202.274 117.82 201.971 117.76 201.688 117.643C201.406 117.526 201.149 117.354 200.932 117.138C200.716 116.921 200.544 116.664 200.427 116.382C200.31 116.099 200.25 115.796 200.25 115.49V113.24C200.25 113.129 200.294 113.022 200.373 112.943C200.452 112.864 200.559 112.82 200.67 112.82C200.781 112.82 200.888 112.864 200.967 112.943C201.046 113.022 201.09 113.129 201.09 113.24V115.49C201.09 115.886 201.247 116.266 201.526 116.547C201.805 116.828 202.184 116.987 202.58 116.99H202.82C203.218 116.99 203.599 116.832 203.881 116.551C204.162 116.269 204.32 115.888 204.32 115.49V110.6C204.319 110.545 204.328 110.491 204.348 110.44C204.368 110.389 204.398 110.343 204.436 110.304C204.475 110.265 204.52 110.233 204.571 110.212C204.621 110.191 204.675 110.18 204.73 110.18C204.841 110.18 204.948 110.224 205.027 110.303C205.106 110.382 205.15 110.489 205.15 110.6V115.49C205.15 116.108 204.905 116.701 204.468 117.138C204.031 117.575 203.438 117.82 202.82 117.82V117.82Z" fill="black"/>
<path d="M205.69 115.92H204.77C204.659 115.92 204.552 115.876 204.473 115.797C204.394 115.718 204.35 115.611 204.35 115.5C204.35 115.389 204.394 115.282 204.473 115.203C204.552 115.124 204.659 115.08 204.77 115.08H205.69C205.801 115.08 205.908 115.124 205.987 115.203C206.066 115.282 206.11 115.389 206.11 115.5C206.11 115.611 206.066 115.718 205.987 115.797C205.908 115.876 205.801 115.92 205.69 115.92Z" fill="black"/>
<path d="M208.1 117.65H207.18C206.684 117.65 206.208 117.453 205.858 117.102C205.507 116.752 205.31 116.276 205.31 115.78C205.31 115.284 205.507 114.808 205.858 114.458C206.208 114.107 206.684 113.91 207.18 113.91H207.37C207.479 113.91 207.583 113.953 207.66 114.03C207.737 114.107 207.78 114.211 207.78 114.32C207.781 114.375 207.772 114.429 207.752 114.48C207.732 114.531 207.702 114.577 207.664 114.616C207.625 114.655 207.58 114.687 207.529 114.708C207.479 114.729 207.425 114.74 207.37 114.74H207.18C206.905 114.74 206.642 114.849 206.448 115.043C206.254 115.237 206.145 115.5 206.145 115.775C206.145 116.049 206.254 116.313 206.448 116.507C206.642 116.701 206.905 116.81 207.18 116.81H208.1C208.191 116.811 208.281 116.794 208.365 116.76C208.449 116.725 208.526 116.674 208.59 116.61C208.657 116.545 208.71 116.467 208.746 116.381C208.782 116.295 208.801 116.203 208.8 116.11V112.97C208.732 111.643 208.301 110.36 207.556 109.26C206.81 108.16 205.777 107.285 204.57 106.73C204.52 106.707 204.476 106.675 204.439 106.635C204.402 106.595 204.373 106.548 204.355 106.497C204.336 106.446 204.328 106.391 204.33 106.337C204.333 106.282 204.346 106.229 204.37 106.18C204.416 106.08 204.499 106.002 204.602 105.962C204.705 105.923 204.819 105.926 204.92 105.97C206.27 106.594 207.424 107.577 208.254 108.811C209.085 110.045 209.561 111.484 209.63 112.97V116.12C209.632 116.322 209.594 116.522 209.519 116.709C209.443 116.896 209.332 117.066 209.19 117.21C209.047 117.353 208.877 117.466 208.69 117.541C208.503 117.617 208.302 117.654 208.1 117.65V117.65Z" fill="black"/>
<path d="M209.26 113.91C209.168 113.913 209.077 113.885 209.003 113.83C208.928 113.776 208.875 113.697 208.85 113.608C208.826 113.519 208.832 113.424 208.869 113.339C208.905 113.254 208.969 113.184 209.05 113.14C209.877 112.668 210.514 111.921 210.85 111.03C211.101 110.356 211.101 109.614 210.85 108.94C210.832 109.515 210.666 110.075 210.368 110.568C210.07 111.06 209.651 111.467 209.15 111.75C209.101 111.773 209.048 111.787 208.993 111.79C208.939 111.792 208.884 111.784 208.833 111.765C208.782 111.747 208.735 111.718 208.695 111.681C208.655 111.644 208.623 111.6 208.6 111.55C208.576 111.501 208.562 111.449 208.559 111.395C208.555 111.341 208.563 111.287 208.581 111.235C208.598 111.184 208.626 111.137 208.662 111.097C208.698 111.056 208.741 111.023 208.79 111C208.87 111 210.64 110 209.79 107.42C209.762 107.335 209.762 107.243 209.791 107.158C209.82 107.073 209.876 107 209.95 106.95C210.023 106.899 210.111 106.872 210.2 106.872C210.289 106.872 210.377 106.899 210.45 106.95C211.062 107.465 211.506 108.153 211.723 108.923C211.941 109.693 211.922 110.51 211.67 111.27C211.269 112.351 210.501 113.257 209.5 113.83C209.431 113.883 209.347 113.911 209.26 113.91V113.91Z" fill="black"/>
<path d="M200.16 107.45C199.321 107.405 198.53 107.048 197.94 106.45C197.889 106.398 197.861 106.328 197.861 106.255C197.861 106.182 197.889 106.112 197.94 106.06C197.966 106.033 197.997 106.012 198.032 105.998C198.066 105.983 198.103 105.976 198.14 105.976C198.177 105.976 198.214 105.983 198.248 105.998C198.283 106.012 198.314 106.033 198.34 106.06C198.571 106.309 198.851 106.508 199.163 106.643C199.474 106.779 199.81 106.849 200.15 106.849C200.49 106.849 200.826 106.779 201.137 106.643C201.449 106.508 201.729 106.309 201.96 106.06C201.988 106.035 202.02 106.016 202.055 106.003C202.09 105.991 202.127 105.985 202.164 105.987C202.201 105.989 202.238 105.998 202.271 106.014C202.305 106.03 202.335 106.052 202.36 106.08C202.385 106.108 202.404 106.14 202.417 106.175C202.429 106.21 202.435 106.247 202.433 106.284C202.431 106.321 202.422 106.358 202.406 106.391C202.39 106.425 202.368 106.455 202.34 106.48C201.764 107.07 200.984 107.417 200.16 107.45V107.45Z" fill="black"/>
<path d="M200.09 107.39C200.017 107.387 199.947 107.357 199.895 107.305C199.843 107.253 199.812 107.183 199.81 107.11V105.4C199.81 105.326 199.84 105.255 199.892 105.202C199.945 105.149 200.016 105.12 200.09 105.12C200.164 105.12 200.235 105.149 200.288 105.202C200.341 105.255 200.37 105.326 200.37 105.4V107.11C200.368 107.183 200.337 107.253 200.285 107.305C200.233 107.357 200.163 107.387 200.09 107.39V107.39Z" fill="black"/>
<path d="M201.86 102.84C202.048 102.84 202.2 102.688 202.2 102.5C202.2 102.312 202.048 102.16 201.86 102.16C201.672 102.16 201.52 102.312 201.52 102.5C201.52 102.688 201.672 102.84 201.86 102.84Z" fill="black"/>
<path d="M198.46 102.84C198.648 102.84 198.8 102.688 198.8 102.5C198.8 102.312 198.648 102.16 198.46 102.16C198.272 102.16 198.12 102.312 198.12 102.5C198.12 102.688 198.272 102.84 198.46 102.84Z" fill="black"/>
<path d="M200.09 104.83C200.907 104.83 201.57 104.521 201.57 104.14C201.57 103.759 200.907 103.45 200.09 103.45C199.273 103.45 198.61 103.759 198.61 104.14C198.61 104.521 199.273 104.83 200.09 104.83Z" fill="black"/>
<path d="M198.89 104.08L198.62 104.14C198.674 104.495 198.845 104.821 199.106 105.068C199.367 105.314 199.703 105.466 200.06 105.5H200.15L200.3 104.32L198.89 104.08Z" fill="black"/>
<path d="M201.31 104.08L201.58 104.14C201.524 104.494 201.353 104.82 201.092 105.066C200.831 105.312 200.497 105.464 200.14 105.5H200.04L199.9 104.32L201.31 104.08Z" fill="black"/>
<path d="M194.58 105.47C194.16 105.502 193.74 105.4 193.381 105.179C193.021 104.959 192.741 104.63 192.58 104.24C192.07 102.77 192.86 101.11 194.93 99.29C197.23 97.29 198.73 97.93 198.79 97.96C198.84 97.9836 198.885 98.0168 198.922 98.0578C198.959 98.0987 198.988 98.1465 199.006 98.1985C199.025 98.2506 199.033 98.3057 199.03 98.3609C199.027 98.4161 199.014 98.4701 198.99 98.52C198.941 98.6166 198.856 98.6909 198.754 98.728C198.652 98.7651 198.54 98.7623 198.44 98.72C198.44 98.72 197.31 98.3 195.44 99.92C193.57 101.54 192.94 102.85 193.33 103.92C193.61 104.74 194.72 104.59 194.77 104.58C194.877 104.571 194.983 104.603 195.067 104.669C195.151 104.736 195.207 104.832 195.222 104.938C195.237 105.045 195.211 105.152 195.15 105.24C195.088 105.328 194.995 105.389 194.89 105.41L194.58 105.47Z" fill="black"/>
<path d="M199.87 109.71C199.87 109.71 195.5 109.71 194.82 106.03C194.14 102.35 196.74 99.6 196.82 99.48C196.858 99.4419 196.903 99.4117 196.953 99.3911C197.003 99.3705 197.056 99.3599 197.11 99.3599C197.164 99.3599 197.217 99.3705 197.267 99.3911C197.317 99.4117 197.362 99.4419 197.4 99.48C197.478 99.5586 197.521 99.6646 197.521 99.775C197.521 99.8855 197.478 99.9914 197.4 100.07C197.4 100.07 194.98 102.82 195.56 105.91C196.14 109 199.65 108.91 199.8 108.91C199.911 108.91 200.018 108.954 200.097 109.033C200.176 109.112 200.22 109.219 200.22 109.33C200.214 109.424 200.176 109.513 200.112 109.582C200.049 109.651 199.963 109.696 199.87 109.71V109.71Z" fill="black"/>
<path d="M205.31 105.47H204.95C204.842 105.453 204.745 105.394 204.679 105.306C204.614 105.218 204.586 105.109 204.6 105C204.617 104.891 204.676 104.793 204.763 104.726C204.851 104.659 204.96 104.628 205.07 104.64C205.12 104.64 206.23 104.8 206.51 103.98C206.9 102.87 206.19 101.51 204.41 99.98C202.63 98.45 201.41 98.77 201.41 98.78C201.344 98.8168 201.27 98.8361 201.195 98.8361C201.12 98.8361 201.046 98.8168 200.98 98.78C200.667 98.5597 200.293 98.4442 199.91 98.45C199.548 98.426 199.191 98.5404 198.91 98.77C198.829 98.834 198.728 98.866 198.625 98.86C198.522 98.8541 198.425 98.8106 198.352 98.7377C198.279 98.6649 198.236 98.5679 198.23 98.465C198.224 98.3622 198.256 98.2608 198.32 98.18C198.747 97.8032 199.301 97.6029 199.87 97.62C200.362 97.6234 200.844 97.7543 201.27 98C201.79 97.88 203.09 97.82 204.89 99.4C206.95 101.22 207.74 102.88 207.23 104.35C207.057 104.706 206.782 105.002 206.44 105.201C206.098 105.401 205.705 105.494 205.31 105.47V105.47Z" fill="black"/>
<path d="M200 109.71C199.891 109.71 199.787 109.667 199.71 109.59C199.633 109.513 199.59 109.409 199.59 109.3C199.589 109.245 199.598 109.191 199.618 109.14C199.638 109.089 199.668 109.043 199.706 109.004C199.745 108.964 199.79 108.933 199.841 108.912C199.891 108.891 199.945 108.88 200 108.88C200.15 108.88 203.68 108.88 204.24 105.88C204.8 102.88 202.43 100.07 202.41 100.04C202.332 99.9614 202.289 99.8554 202.289 99.745C202.289 99.6346 202.332 99.5286 202.41 99.45C202.448 99.4103 202.494 99.3788 202.545 99.3573C202.595 99.3358 202.65 99.3247 202.705 99.3247C202.76 99.3247 202.815 99.3358 202.865 99.3573C202.916 99.3788 202.962 99.4103 203 99.45C203.11 99.57 205.69 102.45 205 106C204.31 109.55 200.07 109.71 200 109.71Z" fill="black"/>
<path d="M226.25 111.44C226.2 111.44 226.15 111.428 226.107 111.403C226.063 111.379 226.026 111.343 226 111.3C225.717 110.79 225.382 110.311 225 109.87C224.965 109.813 224.951 109.746 224.962 109.68C224.972 109.614 225.006 109.554 225.056 109.511C225.107 109.467 225.171 109.443 225.238 109.443C225.305 109.443 225.369 109.467 225.42 109.51C225.827 109.977 226.182 110.487 226.48 111.03C226.513 111.096 226.52 111.171 226.5 111.242C226.479 111.312 226.433 111.372 226.37 111.41C226.332 111.428 226.292 111.438 226.25 111.44Z" fill="black"/>
<path d="M223.87 108.72C223.812 108.718 223.755 108.697 223.71 108.66C222.298 107.636 220.629 107.024 218.89 106.89C218.853 106.89 218.816 106.882 218.782 106.868C218.748 106.853 218.717 106.831 218.692 106.804C218.666 106.777 218.647 106.745 218.635 106.709C218.622 106.674 218.617 106.637 218.62 106.6C218.623 106.527 218.653 106.459 218.705 106.408C218.758 106.358 218.827 106.33 218.9 106.33V106.33C220.757 106.462 222.539 107.118 224.04 108.22C224.069 108.241 224.094 108.267 224.113 108.298C224.131 108.328 224.144 108.362 224.15 108.397C224.155 108.433 224.154 108.469 224.145 108.504C224.137 108.538 224.121 108.571 224.1 108.6C224.074 108.637 224.04 108.667 224 108.688C223.96 108.709 223.915 108.72 223.87 108.72V108.72Z" fill="black"/>
</svg>
