<svg width="327" height="120" viewBox="0 0 327 120" fill="none" xmlns="http://www.w3.org/2000/svg">
<rect width="327" height="120" fill="white"/>
<path d="M133.14 101.49L125.2 100.37C125.599 97.8794 126.242 95.4343 127.12 93.0699C129.18 87.5599 132.12 83.6599 135.89 81.4799C144.14 76.7099 153.42 78.3299 153.81 78.4099L152.37 86.2899L153.09 82.3499L152.38 86.2899C152.32 86.2899 145.55 85.1499 139.9 88.4199C135.53 90.9999 133.54 98.7099 133.14 101.49Z" fill="#E6EBEF"/>
<path d="M211.27 89.3399C211.27 77.6299 196.18 78.2499 194.76 78.2499L194.93 85.62C199.31 85.62 203.41 86.0699 203.41 88.8799C203.41 89.0353 203.39 89.1899 203.35 89.3399L210.35 93.41C210.987 92.1495 211.303 90.7516 211.27 89.3399Z" fill="#E6EBEF"/>
<path d="M188.77 28.02H150.08C146.766 28.02 144.08 30.7063 144.08 34.02V62.79C144.08 66.1037 146.766 68.79 150.08 68.79H188.77C192.084 68.79 194.77 66.1037 194.77 62.79V34.02C194.77 30.7063 192.084 28.02 188.77 28.02Z" fill="#E6EBEF"/>
<path d="M188.77 69.16H150.08C148.39 69.16 146.768 68.4892 145.572 67.2949C144.376 66.1005 143.703 64.4803 143.7 62.79V59.36C143.7 59.2592 143.74 59.1626 143.811 59.0913C143.883 59.02 143.979 58.98 144.08 58.98C144.129 58.98 144.178 58.9899 144.224 59.0091C144.269 59.0283 144.311 59.0565 144.345 59.0919C144.38 59.1273 144.407 59.1693 144.425 59.2153C144.443 59.2614 144.451 59.3106 144.45 59.36V62.79C144.453 64.2814 145.047 65.7109 146.102 66.7645C147.158 67.8182 148.589 68.41 150.08 68.41H188.77C190.26 68.41 191.69 67.8179 192.744 66.7639C193.798 65.71 194.39 64.2805 194.39 62.79V34C194.39 32.5086 193.798 31.0781 192.745 30.0225C191.691 28.967 190.261 28.3726 188.77 28.37H150.08C148.588 28.3726 147.157 28.9666 146.102 30.0219C145.047 31.0772 144.453 32.5076 144.45 34V56.35C144.45 56.4481 144.411 56.5422 144.342 56.6116C144.272 56.681 144.178 56.72 144.08 56.72C143.981 56.72 143.886 56.6814 143.815 56.6123C143.744 56.5431 143.703 56.449 143.7 56.35V34C143.7 32.3079 144.372 30.6851 145.569 29.4887C146.765 28.2922 148.388 27.62 150.08 27.62H188.77C190.46 27.6226 192.081 28.296 193.275 29.4922C194.469 30.6884 195.14 32.3096 195.14 34V62.79C195.137 64.4786 194.465 66.0973 193.271 67.2913C192.077 68.4854 190.459 69.1574 188.77 69.16V69.16Z" fill="black"/>
<path d="M169.42 19.67C172.286 19.67 174.61 17.3464 174.61 14.48C174.61 11.6137 172.286 9.29004 169.42 9.29004C166.554 9.29004 164.23 11.6137 164.23 14.48C164.23 17.3464 166.554 19.67 169.42 19.67Z" fill="#E6EBEF"/>
<path d="M169.42 20C168.317 19.998 167.239 19.6683 166.323 19.0528C165.407 18.4373 164.695 17.5638 164.277 16.5429C163.858 15.522 163.752 14.3998 163.972 13.3187C164.192 12.2375 164.729 11.2461 165.513 10.4702C166.297 9.69422 167.295 9.16871 168.378 8.96028C169.461 8.75185 170.582 8.86989 171.599 9.29944C172.615 9.72898 173.481 10.4507 174.086 11.373C174.692 12.2953 175.01 13.3767 175 14.48C174.989 15.9511 174.396 17.3581 173.35 18.3927C172.304 19.4274 170.891 20.0053 169.42 20V20ZM169.42 9.61998C168.467 9.61998 167.535 9.90267 166.742 10.4323C165.95 10.9619 165.332 11.7147 164.967 12.5954C164.602 13.4762 164.507 14.4453 164.693 15.3803C164.879 16.3153 165.338 17.1741 166.012 17.8482C166.686 18.5223 167.545 18.9814 168.48 19.1674C169.415 19.3533 170.384 19.2579 171.265 18.8931C172.145 18.5283 172.898 17.9105 173.428 17.1178C173.957 16.3252 174.24 15.3933 174.24 14.44C174.229 13.1686 173.717 11.9528 172.814 11.0576C171.911 10.1623 170.691 9.65993 169.42 9.65998V9.61998Z" fill="black"/>
<path d="M135.43 52.39C137.578 52.39 139.32 50.6484 139.32 48.5C139.32 46.3516 137.578 44.61 135.43 44.61C133.282 44.61 131.54 46.3516 131.54 48.5C131.54 50.6484 133.282 52.39 135.43 52.39Z" fill="#E6EBEF"/>
<path d="M135.43 52.77C134.585 52.7719 133.759 52.5232 133.055 52.0552C132.352 51.5872 131.803 50.921 131.478 50.141C131.153 49.3609 131.067 48.502 131.231 47.6731C131.394 46.8441 131.8 46.0823 132.397 45.4842C132.994 44.886 133.755 44.4783 134.583 44.3128C135.412 44.1472 136.271 44.2312 137.052 44.5541C137.833 44.8769 138.5 45.4242 138.97 46.1266C139.439 46.8291 139.69 47.655 139.69 48.5C139.69 49.6307 139.242 50.7153 138.443 51.5158C137.644 52.3163 136.561 52.7673 135.43 52.77V52.77ZM135.43 44.98C134.733 44.978 134.052 45.1828 133.472 45.5683C132.892 45.9539 132.439 46.503 132.171 47.146C131.903 47.789 131.832 48.4971 131.966 49.1805C132.101 49.864 132.436 50.4921 132.927 50.9854C133.419 51.4787 134.047 51.815 134.73 51.9516C135.413 52.0882 136.121 52.0191 136.765 51.753C137.409 51.4868 137.959 51.0357 138.346 50.4566C138.733 49.8775 138.94 49.1966 138.94 48.5C138.932 47.5724 138.56 46.6852 137.903 46.0303C137.246 45.3753 136.358 45.0052 135.43 45V44.98Z" fill="black"/>
<path d="M155.56 46.72C156.096 46.7249 156.626 46.8413 157.115 47.0616C157.603 47.282 158.041 47.6015 158.4 48C159.058 47.2799 159.416 46.3354 159.4 45.36C159.414 44.7172 159.269 44.081 158.977 43.5079C158.686 42.9348 158.257 42.4427 157.73 42.0753C157.202 41.7079 156.592 41.4767 155.953 41.4022C155.315 41.3276 154.667 41.4121 154.069 41.6481C153.471 41.8841 152.941 42.2643 152.525 42.7548C152.11 43.2454 151.822 43.831 151.687 44.4597C151.553 45.0884 151.576 45.7406 151.754 46.3583C151.933 46.9759 152.261 47.5399 152.71 48C153.071 47.6012 153.51 47.2816 154.001 47.0613C154.491 46.841 155.022 46.7248 155.56 46.72V46.72Z" fill="black"/>
<path d="M144.06 48.13H139.32V48.88H144.06V48.13Z" fill="#2C2627"/>
<path d="M203.22 52.39C205.368 52.39 207.11 50.6484 207.11 48.5C207.11 46.3516 205.368 44.61 203.22 44.61C201.072 44.61 199.33 46.3516 199.33 48.5C199.33 50.6484 201.072 52.39 203.22 52.39Z" fill="#E3E3E3"/>
<path d="M203.22 52.77C202.375 52.77 201.55 52.5196 200.848 52.0504C200.145 51.5812 199.598 50.9143 199.275 50.134C198.952 49.3538 198.867 48.4952 199.032 47.6669C199.197 46.8386 199.603 46.0778 200.201 45.4806C200.798 44.8835 201.559 44.4768 202.387 44.312C203.215 44.1473 204.074 44.2318 204.854 44.555C205.634 44.8782 206.301 45.4255 206.77 46.1277C207.24 46.8299 207.49 47.6555 207.49 48.5C207.487 49.6316 207.037 50.7162 206.236 51.5164C205.436 52.3166 204.352 52.7673 203.22 52.77V52.77ZM203.22 44.98C202.524 44.98 201.843 45.1864 201.264 45.5732C200.685 45.96 200.234 46.5097 199.968 47.1529C199.701 47.7961 199.632 48.5039 199.768 49.1867C199.903 49.8695 200.239 50.4967 200.731 50.989C201.223 51.4813 201.85 51.8165 202.533 51.9523C203.216 52.0882 203.924 52.0185 204.567 51.752C205.21 51.4856 205.76 51.0345 206.147 50.4556C206.534 49.8767 206.74 49.1962 206.74 48.5C206.732 47.5707 206.358 46.682 205.699 46.0268C205.04 45.3715 204.149 45.0026 203.22 45V44.98Z" fill="#2C2627"/>
<path d="M199.32 48.13H194.58V48.88H199.32V48.13Z" fill="#2C2627"/>
<path d="M169.8 19.6699H169.05V28.0199H169.8V19.6699Z" fill="#2C2627"/>
<path d="M180.38 59.36C181.49 59.36 182.39 58.4623 182.39 57.355C182.39 56.2476 181.49 55.35 180.38 55.35H158.27C157.16 55.35 156.26 56.2476 156.26 57.355C156.26 58.4623 157.16 59.36 158.27 59.36H180.38Z" fill="white"/>
<path d="M180.38 59.73H158.26C157.947 59.73 157.638 59.6684 157.349 59.5488C157.06 59.4292 156.798 59.2539 156.577 59.0329C156.356 58.8119 156.181 58.5495 156.061 58.2608C155.942 57.972 155.88 57.6625 155.88 57.35C155.88 57.0374 155.942 56.7279 156.061 56.4392C156.181 56.1504 156.356 55.8881 156.577 55.6671C156.798 55.4461 157.06 55.2707 157.349 55.1511C157.638 55.0315 157.947 54.97 158.26 54.97H180.38C181.011 54.97 181.617 55.2207 182.063 55.6671C182.509 56.1134 182.76 56.7188 182.76 57.35C182.76 57.9812 182.509 58.5865 182.063 59.0329C181.617 59.4792 181.011 59.73 180.38 59.73ZM158.26 55.73C157.828 55.73 157.413 55.9017 157.107 56.2074C156.802 56.5131 156.63 56.9277 156.63 57.36C156.63 57.7923 156.802 58.2069 157.107 58.5126C157.413 58.8182 157.828 58.99 158.26 58.99H180.38C180.812 58.99 181.227 58.8182 181.533 58.5126C181.838 58.2069 182.01 57.7923 182.01 57.36C182.01 56.9277 181.838 56.5131 181.533 56.2074C181.227 55.9017 180.812 55.73 180.38 55.73H158.26Z" fill="black"/>
<path d="M181.33 40.7099C181.33 39.5999 180.432 38.7 179.325 38.7C178.218 38.7 177.32 39.5999 177.32 40.7099V46.2799C177.32 47.39 178.218 48.29 179.325 48.29C180.432 48.29 181.33 47.39 181.33 46.2799V40.7099Z" fill="#E3E3E3"/>
<path d="M179.33 48.6599C178.708 48.6443 178.117 48.387 177.682 47.9426C177.247 47.4983 177.002 46.9018 177 46.2799V40.6999C177 40.0687 177.251 39.4634 177.697 39.017C178.143 38.5707 178.749 38.3199 179.38 38.3199C180.011 38.3199 180.617 38.5707 181.063 39.017C181.509 39.4634 181.76 40.0687 181.76 40.6999V46.2799C181.759 46.5964 181.695 46.9094 181.571 47.2008C181.448 47.4923 181.268 47.7563 181.042 47.9777C180.816 48.1991 180.549 48.3735 180.255 48.4906C179.961 48.6077 179.646 48.6652 179.33 48.6599V48.6599ZM179.33 39.0699C179.116 39.0699 178.904 39.1121 178.706 39.194C178.508 39.2759 178.329 39.396 178.177 39.5474C178.026 39.6987 177.906 39.8784 177.824 40.0762C177.742 40.2739 177.7 40.4859 177.7 40.6999V46.2799C177.7 46.7122 177.872 47.1268 178.177 47.4325C178.483 47.7382 178.898 47.9099 179.33 47.9099C179.762 47.9099 180.177 47.7382 180.483 47.4325C180.788 47.1268 180.96 46.7122 180.96 46.2799V40.6999C180.96 40.2676 180.788 39.853 180.483 39.5474C180.177 39.2417 179.762 39.0699 179.33 39.0699V39.0699Z" fill="#2C2627"/>
<path d="M133.45 101.91L124.78 100.69V100.32C125.181 97.8019 125.831 95.3298 126.72 92.9399C128.81 87.3399 131.81 83.3799 135.65 81.1599C144 76.3299 153.43 77.9599 153.83 78.0399L154.2 78.0999L152.64 86.7199L152.27 86.6599C152.2 86.6599 145.55 85.5599 140.04 88.7399C135.79 91.1999 133.85 98.8099 133.46 101.54L133.45 101.91ZM125.63 100.05L132.82 101.05C133.34 97.9599 135.39 90.5799 139.71 88.0499C144.71 85.1699 150.53 85.6399 152.06 85.8299L153.37 78.6699C151.53 78.4099 143.37 77.5399 136.08 81.7699C132.39 83.8999 129.5 87.7699 127.48 93.1599C126.653 95.3949 126.034 97.7013 125.63 100.05V100.05Z" fill="black"/>
<path d="M175.17 68.8199H164.23V78.7999H175.17V68.8199Z" fill="#E6EBEF"/>
<path d="M175.55 79.1699H163.86V68.4399H175.55V79.1699ZM164.61 78.4199H174.8V69.1899H164.61V78.4199Z" fill="black"/>
<path d="M147.62 75.6H191.93C192.726 75.6 193.489 75.916 194.051 76.4787C194.614 77.0413 194.93 77.8043 194.93 78.6V113.8H144.62V78.6C144.62 77.8043 144.936 77.0413 145.499 76.4787C146.061 75.916 146.824 75.6 147.62 75.6Z" fill="#E6EBEF"/>
<path d="M195.31 114.18H144.25V78.6C144.25 77.7062 144.605 76.849 145.237 76.217C145.869 75.585 146.726 75.23 147.62 75.23H191.94C192.834 75.23 193.691 75.585 194.323 76.217C194.955 76.849 195.31 77.7062 195.31 78.6V114.18ZM145 113.43H194.56V78.6C194.555 77.9086 194.276 77.2473 193.786 76.7603C193.295 76.2732 192.631 76 191.94 76H147.62C146.929 76 146.265 76.2732 145.774 76.7603C145.284 77.2473 145.005 77.9086 145 78.6V113.43Z" fill="black"/>
<path d="M128.61 110.8C132.349 110.8 135.38 107.769 135.38 104.03C135.38 100.291 132.349 97.26 128.61 97.26C124.871 97.26 121.84 100.291 121.84 104.03C121.84 107.769 124.871 110.8 128.61 110.8Z" fill="#E6EBEF"/>
<path d="M128.62 111.18C127.205 111.182 125.822 110.764 124.645 109.98C123.468 109.195 122.55 108.079 122.007 106.773C121.464 105.467 121.321 104.029 121.596 102.641C121.871 101.254 122.551 99.9787 123.551 98.9777C124.55 97.9768 125.824 97.2948 127.211 97.0181C128.599 96.7414 130.037 96.8824 131.344 97.4233C132.651 97.9642 133.768 98.8806 134.554 100.057C135.34 101.233 135.76 102.615 135.76 104.03C135.757 105.924 135.005 107.739 133.666 109.079C132.328 110.419 130.514 111.175 128.62 111.18ZM128.62 97.64C127.352 97.6361 126.111 98.0091 125.055 98.7117C123.999 99.4143 123.175 100.415 122.689 101.586C122.203 102.758 122.076 104.047 122.324 105.291C122.572 106.535 123.183 107.677 124.082 108.573C124.98 109.468 126.124 110.076 127.369 110.32C128.613 110.564 129.902 110.433 131.072 109.943C132.242 109.453 133.24 108.627 133.939 107.569C134.639 106.51 135.008 105.268 135 104C134.989 102.313 134.313 100.698 133.118 99.5074C131.924 98.3164 130.307 97.6452 128.62 97.64V97.64Z" fill="black"/>
<path d="M155.91 114.06C155.844 114.06 155.78 114.034 155.733 113.987C155.686 113.94 155.66 113.876 155.66 113.81V95.88C155.66 95.8137 155.686 95.7501 155.733 95.7032C155.78 95.6563 155.844 95.63 155.91 95.63C155.976 95.63 156.04 95.6563 156.087 95.7032C156.134 95.7501 156.16 95.8137 156.16 95.88V113.81C156.16 113.876 156.134 113.94 156.087 113.987C156.04 114.034 155.976 114.06 155.91 114.06Z" fill="black"/>
<path d="M155.91 94.31C155.844 94.31 155.78 94.2836 155.733 94.2368C155.686 94.1899 155.66 94.1263 155.66 94.06V92.61C155.66 92.5437 155.686 92.4801 155.733 92.4332C155.78 92.3863 155.844 92.36 155.91 92.36C155.976 92.36 156.04 92.3863 156.087 92.4332C156.134 92.4801 156.16 92.5437 156.16 92.61V94.06C156.16 94.1263 156.134 94.1899 156.087 94.2368C156.04 94.2836 155.976 94.31 155.91 94.31Z" fill="black"/>
<path d="M155.91 91.21C155.844 91.21 155.78 91.1836 155.733 91.1368C155.686 91.0899 155.66 91.0263 155.66 90.96V75.6C155.66 75.5337 155.686 75.4701 155.733 75.4232C155.78 75.3763 155.844 75.35 155.91 75.35C155.976 75.35 156.04 75.3763 156.087 75.4232C156.134 75.4701 156.16 75.5337 156.16 75.6V91C156.15 91.0591 156.12 91.1129 156.074 91.1514C156.028 91.19 155.97 91.2107 155.91 91.21Z" fill="black"/>
<path d="M160.21 88.43C159.896 88.43 159.588 88.3367 159.327 88.162C159.065 87.9873 158.861 87.739 158.741 87.4485C158.621 87.1579 158.589 86.8382 158.651 86.5298C158.712 86.2214 158.863 85.9381 159.086 85.7157C159.308 85.4933 159.591 85.3419 159.9 85.2806C160.208 85.2192 160.528 85.2507 160.818 85.371C161.109 85.4914 161.357 85.6952 161.532 85.9566C161.707 86.2181 161.8 86.5255 161.8 86.84C161.8 87.2617 161.632 87.6661 161.334 87.9643C161.036 88.2625 160.632 88.43 160.21 88.43ZM160.21 86C159.987 86 159.774 86.0885 159.616 86.246C159.458 86.4036 159.37 86.6172 159.37 86.84C159.37 87.0628 159.458 87.2764 159.616 87.434C159.774 87.5915 159.987 87.68 160.21 87.68C160.433 87.68 160.646 87.5915 160.804 87.434C160.961 87.2764 161.05 87.0628 161.05 86.84C161.05 86.6172 160.961 86.4036 160.804 86.246C160.646 86.0885 160.433 86 160.21 86Z" fill="black"/>
<path d="M160.21 104.14C159.896 104.14 159.588 104.047 159.327 103.872C159.065 103.697 158.861 103.449 158.741 103.158C158.621 102.868 158.589 102.548 158.651 102.24C158.712 101.931 158.863 101.648 159.086 101.426C159.308 101.203 159.591 101.052 159.9 100.991C160.208 100.929 160.528 100.961 160.818 101.081C161.109 101.201 161.357 101.405 161.532 101.667C161.707 101.928 161.8 102.235 161.8 102.55C161.8 102.972 161.632 103.376 161.334 103.674C161.036 103.972 160.632 104.14 160.21 104.14V104.14ZM160.21 101.71C160.044 101.71 159.881 101.759 159.743 101.852C159.605 101.944 159.498 102.075 159.434 102.229C159.37 102.382 159.354 102.551 159.386 102.714C159.419 102.877 159.499 103.026 159.616 103.144C159.733 103.261 159.883 103.341 160.046 103.374C160.209 103.406 160.378 103.39 160.531 103.326C160.685 103.262 160.816 103.155 160.908 103.017C161.001 102.878 161.05 102.716 161.05 102.55C161.05 102.327 160.961 102.114 160.804 101.956C160.646 101.798 160.433 101.71 160.21 101.71Z" fill="black"/>
<path d="M130.755 86.1515L130.49 86.5754L137.307 90.8384L137.572 90.4144L130.755 86.1515Z" fill="#2C2627"/>
<path d="M224.36 114.18H106.48C106.426 114.189 106.37 114.186 106.317 114.171C106.264 114.156 106.215 114.13 106.173 114.095C106.131 114.059 106.097 114.014 106.074 113.964C106.051 113.914 106.039 113.86 106.039 113.805C106.039 113.75 106.051 113.695 106.074 113.645C106.097 113.595 106.131 113.551 106.173 113.515C106.215 113.48 106.264 113.454 106.317 113.439C106.37 113.424 106.426 113.421 106.48 113.43H224.36C224.449 113.445 224.53 113.49 224.588 113.559C224.647 113.628 224.679 113.715 224.679 113.805C224.679 113.895 224.647 113.982 224.588 114.051C224.53 114.12 224.449 114.165 224.36 114.18Z" fill="#2C2627"/>
<path d="M190.7 92.27L190.77 99.78C192.58 99.78 206.51 100.59 210.31 93.41L203.31 89.34C202.8 91.33 198.56 92.27 190.7 92.27Z" fill="#E6EBEF"/>
<path d="M207.31 97C207.23 96.9979 207.153 96.9709 207.09 96.9225C207.026 96.8742 206.979 96.8071 206.956 96.7307C206.933 96.6544 206.934 96.5726 206.96 96.4971C206.986 96.4216 207.035 96.3561 207.1 96.31C208.288 95.5755 209.263 94.5429 209.927 93.3148C210.592 92.0868 210.924 90.706 210.89 89.31C210.94 88.0471 210.731 86.7873 210.277 85.6078C209.823 84.4282 209.134 83.3537 208.25 82.45C205.66 79.89 201.05 78.52 195.31 78.59H195.1C195.046 78.5989 194.99 78.5958 194.937 78.5811C194.884 78.5664 194.835 78.5402 194.793 78.5046C194.751 78.4689 194.717 78.4245 194.694 78.3745C194.671 78.3245 194.659 78.2701 194.659 78.215C194.659 78.1599 194.671 78.1054 194.694 78.0554C194.717 78.0054 194.751 77.961 194.793 77.9254C194.835 77.8897 194.884 77.8636 194.937 77.8488C194.99 77.8341 195.046 77.831 195.1 77.84H195.3C201.25 77.78 206.04 79.22 208.77 81.92C209.727 82.8911 210.475 84.0476 210.969 85.3184C211.462 86.5892 211.691 87.9476 211.64 89.31C211.691 90.8421 211.336 92.3606 210.611 93.7111C209.885 95.0617 208.816 96.1964 207.51 97C207.445 97.0221 207.375 97.0221 207.31 97V97Z" fill="black"/>
<path d="M192.88 100.19H191.29H190.77C190.681 100.175 190.6 100.13 190.542 100.061C190.483 99.9922 190.451 99.9051 190.451 99.8149C190.451 99.7248 190.483 99.6376 190.542 99.5689C190.6 99.5002 190.681 99.4545 190.77 99.4399H191.31C193.4 99.4399 199.76 99.6199 204.68 97.6099C204.725 97.5909 204.774 97.5809 204.823 97.5807C204.872 97.5804 204.921 97.5899 204.966 97.6084C205.012 97.627 205.053 97.6544 205.088 97.6889C205.123 97.7235 205.151 97.7646 205.17 97.8099C205.189 97.8552 205.199 97.9038 205.199 97.953C205.199 98.0021 205.19 98.0508 205.171 98.0963C205.153 98.1418 205.126 98.1832 205.091 98.2182C205.056 98.2531 205.015 98.2809 204.97 98.2999C200.84 99.9999 195.77 100.19 192.88 100.19Z" fill="black"/>
<path d="M190.7 92.65C190.646 92.6589 190.59 92.6559 190.537 92.6412C190.484 92.6264 190.435 92.6003 190.393 92.5646C190.351 92.529 190.317 92.4846 190.294 92.4346C190.271 92.3846 190.259 92.3301 190.259 92.275C190.259 92.2199 190.271 92.1655 190.294 92.1155C190.317 92.0655 190.351 92.0211 190.393 91.9854C190.435 91.9497 190.484 91.9236 190.537 91.9089C190.59 91.8941 190.646 91.8911 190.7 91.9C200.9 91.9 203.04 90.26 203.04 88.9C203.04 86.9 200.62 86.02 194.93 86.02C194.841 86.0054 194.76 85.9597 194.702 85.891C194.643 85.8224 194.611 85.7352 194.611 85.645C194.611 85.5549 194.643 85.4677 194.702 85.399C194.76 85.3303 194.841 85.2846 194.93 85.27C199.31 85.27 203.79 85.7 203.79 88.9C203.79 91.45 199.63 92.65 190.7 92.65Z" fill="black"/>
<path d="M210.54 93.2H210.43L203.24 89.59C203.209 89.5763 203.182 89.5563 203.159 89.5312C203.136 89.5061 203.119 89.4766 203.109 89.4445C203.099 89.4125 203.095 89.3786 203.099 89.345C203.102 89.3115 203.113 89.2791 203.13 89.25C203.16 89.1924 203.211 89.1487 203.273 89.1282C203.334 89.1077 203.401 89.1119 203.46 89.14L210.66 92.75C210.718 92.7819 210.762 92.8349 210.783 92.8981C210.803 92.9613 210.799 93.03 210.77 93.09C210.745 93.1273 210.71 93.1572 210.67 93.1765C210.63 93.1959 210.585 93.204 210.54 93.2Z" fill="black"/>
<g style="mix-blend-mode:multiply" opacity="0.7">
<path d="M184.21 35.4399C179.7 35.438 175.321 36.9606 171.785 39.7605C168.249 42.5605 165.764 46.4734 164.732 50.864C163.7 55.2547 164.182 59.8652 166.101 63.9471C168.019 68.029 171.261 71.3426 175.3 73.3499V68.7899H188.9C190.491 68.7899 192.017 68.1578 193.143 67.0326C194.268 65.9074 194.9 64.3812 194.9 62.7899V38.5499C191.705 36.5178 187.997 35.439 184.21 35.4399V35.4399Z" fill="#BAC2CA"/>
</g>
<path d="M187.78 70.0299C197.848 70.0299 206.01 61.8681 206.01 51.7999C206.01 41.7318 197.848 33.5699 187.78 33.5699C177.712 33.5699 169.55 41.7318 169.55 51.7999C169.55 61.8681 177.712 70.0299 187.78 70.0299Z" fill="white"/>
<path d="M191.04 71.0599H184.63V90.2799H191.04V71.0599Z" fill="white"/>
<path d="M187.88 30.83C183.727 30.83 179.666 32.0616 176.213 34.3691C172.76 36.6766 170.068 39.9564 168.479 43.7936C166.889 47.6309 166.473 51.8533 167.284 55.9269C168.094 60.0005 170.094 63.7423 173.031 66.6792C175.968 69.6161 179.71 71.6162 183.783 72.4264C187.857 73.2367 192.079 72.8209 195.916 71.2314C199.754 69.642 203.033 66.9504 205.341 63.4969C207.648 60.0435 208.88 55.9834 208.88 51.83C208.88 46.2604 206.668 40.919 202.729 36.9807C198.791 33.0425 193.45 30.83 187.88 30.83V30.83ZM187.88 70.03C184.272 70.0319 180.744 68.9636 177.743 66.9601C174.742 64.9567 172.402 62.1081 171.02 58.7747C169.639 55.4414 169.277 51.7731 169.98 48.234C170.683 44.6948 172.421 41.4438 174.972 38.8923C177.524 36.3408 180.775 34.6034 184.314 33.8999C187.853 33.1965 191.521 33.5585 194.855 34.9403C198.188 36.3221 201.037 38.6615 203.04 41.6626C205.044 44.6637 206.112 48.1916 206.11 51.8C206.102 56.6297 204.178 61.2588 200.76 64.6711C197.342 68.0834 192.71 70 187.88 70V70.03Z" fill="white"/>
<path d="M184.63 90.18C184.532 90.18 184.438 90.141 184.368 90.0716C184.299 90.0023 184.26 89.9081 184.26 89.81V72.51C184.259 72.4606 184.267 72.4114 184.285 72.3653C184.303 72.3193 184.33 72.2773 184.365 72.2419C184.399 72.2065 184.441 72.1783 184.486 72.1591C184.532 72.1399 184.581 72.13 184.63 72.13C184.731 72.13 184.827 72.17 184.899 72.2413C184.97 72.3126 185.01 72.4092 185.01 72.51V89.81C185.007 89.909 184.966 90.0032 184.895 90.0723C184.824 90.1414 184.729 90.18 184.63 90.18Z" fill="black"/>
<path d="M191 89.84C190.899 89.84 190.803 89.8 190.731 89.7287C190.66 89.6574 190.62 89.5608 190.62 89.46V72.51C190.62 72.4092 190.66 72.3126 190.731 72.2413C190.803 72.17 190.899 72.13 191 72.13C191.049 72.13 191.098 72.1399 191.144 72.1591C191.189 72.1783 191.231 72.2065 191.265 72.2419C191.3 72.2773 191.327 72.3193 191.345 72.3653C191.363 72.4114 191.371 72.4606 191.37 72.51V89.46C191.371 89.5094 191.363 89.5586 191.345 89.6047C191.327 89.6507 191.3 89.6927 191.265 89.7281C191.231 89.7636 191.189 89.7917 191.144 89.8109C191.098 89.8301 191.049 89.84 191 89.84V89.84Z" fill="black"/>
<path d="M187.88 73.13C183.659 73.13 179.533 71.8781 176.023 69.5328C172.514 67.1875 169.778 63.8541 168.164 59.9541C166.549 56.0542 166.127 51.7629 166.951 47.6231C167.775 43.4832 169.808 39.6808 172.794 36.6968C175.779 33.7127 179.583 31.6811 183.723 30.8588C187.863 30.0365 192.154 30.4605 196.053 32.0772C199.953 33.694 203.285 36.4307 205.628 39.9414C207.972 43.452 209.222 47.5789 209.22 51.8C209.212 57.4563 206.961 62.8786 202.96 66.8773C198.96 70.876 193.536 73.1247 187.88 73.13ZM187.88 31.21C183.808 31.21 179.827 32.4175 176.441 34.68C173.055 36.9425 170.416 40.1582 168.857 43.9205C167.299 47.6828 166.891 51.8228 167.686 55.8169C168.48 59.8109 170.441 63.4797 173.321 66.3593C176.2 69.2389 179.869 71.1999 183.863 71.9943C187.857 72.7888 191.997 72.381 195.759 70.8226C199.522 69.2642 202.738 66.6252 205 63.2392C207.262 59.8531 208.47 55.8723 208.47 51.8C208.465 46.3408 206.294 41.1067 202.434 37.2465C198.573 33.3863 193.339 31.2153 187.88 31.21V31.21Z" fill="black"/>
<path opacity="0.3" d="M187.78 70.0299C197.848 70.0299 206.01 61.8681 206.01 51.7999C206.01 41.7318 197.848 33.5699 187.78 33.5699C177.712 33.5699 169.55 41.7318 169.55 51.7999C169.55 61.8681 177.712 70.0299 187.78 70.0299Z" fill="#BAC2CA"/>
<path d="M187.88 70.2799C184.742 70.2831 181.654 69.4874 178.908 67.9678C176.162 66.4481 173.848 64.2546 172.184 61.5937C170.52 58.9328 169.561 55.8922 169.397 52.7581C169.232 49.624 169.868 46.4997 171.245 43.6794C172.622 40.8591 174.694 38.4356 177.265 36.6371C179.837 34.8387 182.825 33.7244 185.946 33.3994C189.068 33.0743 192.221 33.5491 195.108 34.7791C197.995 36.0091 200.522 37.9537 202.45 40.4299C202.474 40.4524 202.493 40.4795 202.506 40.5096C202.519 40.5397 202.526 40.5721 202.526 40.6049C202.526 40.6377 202.519 40.6702 202.506 40.7003C202.493 40.7304 202.474 40.7575 202.45 40.7799C202.403 40.8257 202.34 40.8514 202.275 40.8514C202.21 40.8514 202.147 40.8257 202.1 40.7799C199.252 37.1372 195.105 34.7373 190.528 34.0823C185.95 33.4273 181.297 34.568 177.542 37.2658C173.786 39.9635 171.22 44.0092 170.379 48.5562C169.539 53.1031 170.489 57.7989 173.032 61.6609C175.575 65.523 179.513 68.2518 184.022 69.2764C188.531 70.301 193.262 69.542 197.224 67.1582C201.186 64.7744 204.073 60.9506 205.28 56.4869C206.487 52.0232 205.921 47.2657 203.7 43.2099C203.683 43.1814 203.672 43.1496 203.667 43.1165C203.663 43.0835 203.666 43.0499 203.675 43.0179C203.684 42.9859 203.7 42.9562 203.722 42.9307C203.743 42.9053 203.77 42.8846 203.8 42.8699C203.829 42.8526 203.86 42.8415 203.893 42.8372C203.926 42.8329 203.96 42.8356 203.992 42.845C204.024 42.8544 204.054 42.8703 204.079 42.8919C204.105 42.9134 204.125 42.94 204.14 42.9699C205.677 45.7852 206.455 48.9518 206.398 52.1588C206.341 55.3658 205.451 58.5028 203.815 61.2616C202.178 64.0204 199.853 66.3062 197.066 67.8943C194.279 69.4824 191.128 70.3184 187.92 70.3199L187.88 70.2799Z" fill="black"/>
<path d="M173.37 58.63C173.162 58.6285 172.96 58.5622 172.791 58.4403C172.623 58.3184 172.497 58.147 172.43 57.95C171.811 56.1687 171.497 54.2958 171.5 52.41C171.5 47.9014 173.291 43.5773 176.479 40.3892C179.667 37.2011 183.991 35.41 188.5 35.41C188.765 35.41 189.02 35.5154 189.207 35.7029C189.395 35.8905 189.5 36.1448 189.5 36.41C189.5 36.6753 189.395 36.9296 189.207 37.1171C189.02 37.3047 188.765 37.41 188.5 37.41C186.11 37.4101 183.755 37.9812 181.631 39.0757C179.506 40.1703 177.674 41.7566 176.287 43.7025C174.899 45.6484 173.997 47.8977 173.655 50.2629C173.313 52.6281 173.541 55.0408 174.32 57.3C174.406 57.5507 174.389 57.8252 174.273 58.0633C174.157 58.3014 173.951 58.4837 173.7 58.57C173.594 58.6085 173.483 58.6288 173.37 58.63V58.63Z" fill="white"/>
<path d="M180 46.68C180.042 45.6054 180.389 44.5649 181 43.68C181.703 42.6034 182.67 41.7254 183.81 41.13C185.136 40.4383 186.615 40.0943 188.11 40.13C189.489 40.1072 190.856 40.3942 192.11 40.97C193.203 41.471 194.137 42.2633 194.81 43.26C195.433 44.1919 195.764 45.2888 195.76 46.41C195.778 47.2228 195.593 48.0273 195.22 48.75C194.886 49.3953 194.45 49.9827 193.93 50.49C193.43 50.98 192.53 51.8 191.24 52.96C190.936 53.2287 190.649 53.5159 190.38 53.82C190.197 54.0257 190.036 54.2503 189.9 54.49C189.803 54.6896 189.723 54.897 189.66 55.11C189.6 55.31 189.51 55.67 189.4 56.19C189.386 56.4204 189.326 56.6458 189.225 56.853C189.123 57.0602 188.981 57.245 188.806 57.3967C188.632 57.5484 188.43 57.664 188.211 57.7366C187.992 57.8093 187.76 57.8376 187.53 57.82C187.276 57.8289 187.023 57.7865 186.786 57.6955C186.549 57.6044 186.333 57.4665 186.15 57.29C185.953 57.0773 185.801 56.8265 185.705 56.553C185.609 56.2795 185.57 55.9892 185.59 55.7C185.573 54.917 185.712 54.1384 186 53.41C186.257 52.784 186.622 52.2084 187.08 51.71C187.54 51.22 188.14 50.64 188.91 49.97C189.68 49.3 190.07 48.97 190.37 48.64C190.665 48.3431 190.918 48.0065 191.12 47.64C191.327 47.2742 191.434 46.8603 191.43 46.44C191.437 46.0381 191.356 45.6395 191.194 45.2718C191.031 44.9041 190.791 44.5759 190.49 44.31C189.827 43.7241 188.964 43.4161 188.08 43.45C187.618 43.4093 187.152 43.4657 186.713 43.6155C186.274 43.7654 185.871 44.0053 185.53 44.32C184.887 45.0705 184.413 45.9504 184.14 46.9C183.78 48.08 183.14 48.68 182.14 48.68C181.861 48.6845 181.585 48.6308 181.328 48.5223C181.072 48.4138 180.841 48.2529 180.65 48.05C180.454 47.8781 180.295 47.6678 180.183 47.4322C180.071 47.1966 180.009 46.9406 180 46.68ZM187.69 64.89C187.072 64.9017 186.472 64.6803 186.01 64.27C185.768 64.0521 185.579 63.7825 185.456 63.4812C185.333 63.1799 185.28 62.8547 185.3 62.53C185.293 62.219 185.351 61.9101 185.47 61.6227C185.589 61.3352 185.766 61.0755 185.99 60.86C186.214 60.64 186.48 60.4673 186.772 60.3522C187.064 60.2371 187.376 60.1819 187.69 60.19C187.996 60.1899 188.299 60.2507 188.581 60.3686C188.863 60.4866 189.119 60.6594 189.334 60.8771C189.549 61.0948 189.719 61.353 189.833 61.6367C189.947 61.9205 190.004 62.2241 190 62.53C190.016 62.8528 189.961 63.1751 189.838 63.4742C189.715 63.7732 189.528 64.0415 189.29 64.26C188.852 64.6596 188.283 64.8838 187.69 64.89V64.89Z" fill="#DAD3E4"/>
<path d="M187.69 65.2699C186.984 65.2792 186.3 65.0262 185.77 64.5599C185.489 64.3102 185.267 64.0013 185.12 63.6554C184.973 63.3096 184.905 62.9354 184.92 62.56C184.914 62.1982 184.982 61.839 185.122 61.5051C185.261 61.1713 185.468 60.8699 185.73 60.6199C185.992 60.3601 186.305 60.1568 186.649 60.0226C186.993 59.8885 187.361 59.8263 187.73 59.84C188.088 59.8337 188.444 59.9005 188.776 60.0363C189.108 60.1721 189.409 60.3741 189.66 60.63C189.918 60.8797 190.121 61.1801 190.257 61.5123C190.393 61.8444 190.459 62.2011 190.45 62.56C190.466 62.9337 190.4 63.3065 190.257 63.652C190.113 63.9976 189.896 64.3075 189.62 64.5599C189.093 65.0373 188.401 65.2918 187.69 65.2699ZM187.69 60.56C187.424 60.5545 187.16 60.602 186.913 60.6999C186.665 60.7978 186.44 60.944 186.25 61.13C186.06 61.3095 185.911 61.527 185.811 61.7682C185.711 62.0094 185.663 62.269 185.67 62.5299C185.651 62.8021 185.695 63.075 185.797 63.3279C185.899 63.5808 186.057 63.8072 186.26 63.99C186.647 64.3378 187.149 64.5302 187.67 64.5302C188.191 64.5302 188.693 64.3378 189.08 63.99C189.279 63.8069 189.434 63.5816 189.534 63.3307C189.635 63.0798 189.678 62.8096 189.66 62.54C189.667 62.2754 189.62 62.0123 189.522 61.7665C189.424 61.5208 189.277 61.2975 189.09 61.1104C188.902 60.9233 188.679 60.7763 188.433 60.6782C188.188 60.5801 187.925 60.5331 187.66 60.54L187.69 60.56ZM187.52 58.1699C187.218 58.1762 186.918 58.1229 186.636 58.0131C186.355 57.9033 186.098 57.7391 185.88 57.5299C185.643 57.2843 185.461 56.992 185.344 56.6717C185.227 56.3514 185.178 56.0102 185.2 55.6699C185.156 54.0984 185.73 52.5723 186.8 51.4199C187.26 50.9299 187.88 50.33 188.65 49.66C189.42 48.99 189.8 48.66 190.09 48.34C190.367 48.0695 190.603 47.7594 190.79 47.4199C190.961 47.1143 191.05 46.77 191.05 46.4199C191.056 46.0705 190.986 45.7238 190.845 45.4043C190.703 45.0848 190.493 44.8 190.23 44.57C189.596 44.0736 188.815 43.804 188.01 43.804C187.205 43.804 186.424 44.0736 185.79 44.57C185.189 45.2822 184.746 46.1138 184.49 47.0099C184.415 47.4538 184.219 47.8682 183.923 48.2075C183.627 48.5467 183.243 48.7974 182.813 48.932C182.384 49.0665 181.926 49.0797 181.489 48.9699C181.052 48.8601 180.655 48.6317 180.34 48.31C179.899 47.8886 179.644 47.3095 179.63 46.7C179.647 45.5497 179.994 44.4285 180.63 43.47C181.36 42.336 182.374 41.4123 183.57 40.79C184.95 40.0665 186.492 39.7053 188.05 39.74C189.495 39.7152 190.927 40.0159 192.24 40.62C193.396 41.1366 194.388 41.9597 195.11 43C195.766 43.9975 196.114 45.1661 196.11 46.36C196.127 47.2361 195.924 48.1025 195.52 48.88C195.162 49.5555 194.704 50.1726 194.16 50.71C193.65 51.21 192.74 52.04 191.46 53.1899C191.172 53.4479 190.898 53.7217 190.64 54.0099C190.472 54.1946 190.327 54.3995 190.21 54.62C190.115 54.7906 190.042 54.9718 189.99 55.16C189.93 55.36 189.85 55.71 189.74 56.22C189.699 56.7709 189.443 57.2838 189.028 57.6484C188.613 58.013 188.072 58.2003 187.52 58.1699ZM188.07 43C189.056 42.9731 190.014 43.3318 190.74 44C191.078 44.3007 191.348 44.6707 191.531 45.0847C191.714 45.4988 191.806 45.9473 191.8 46.4C191.803 46.8835 191.679 47.3594 191.44 47.78C191.22 48.1774 190.944 48.5411 190.62 48.86C190.32 49.17 189.84 49.61 189.15 50.21C188.46 50.81 187.79 51.4499 187.35 51.9199C186.931 52.391 186.593 52.9283 186.35 53.5099C186.083 54.1946 185.954 54.9253 185.97 55.66C185.944 55.9009 185.969 56.1446 186.043 56.3754C186.118 56.6061 186.239 56.8189 186.4 57C186.548 57.1429 186.724 57.2546 186.916 57.3285C187.109 57.4024 187.314 57.4369 187.52 57.43C187.707 57.4464 187.895 57.4245 188.073 57.3657C188.252 57.3068 188.416 57.2123 188.556 57.0878C188.697 56.9633 188.81 56.8115 188.89 56.6417C188.97 56.4718 189.014 56.2875 189.02 56.0999C189.14 55.5599 189.23 55.2 189.29 54.99C189.354 54.7505 189.444 54.519 189.56 54.3C189.705 54.0291 189.883 53.7772 190.09 53.55C190.369 53.2359 190.666 52.9387 190.98 52.66C192.25 51.52 193.15 50.66 193.65 50.21C194.137 49.722 194.551 49.1662 194.88 48.56C195.223 47.8889 195.395 47.1434 195.38 46.39C195.384 45.343 195.074 44.319 194.49 43.45C193.855 42.5091 192.973 41.7617 191.94 41.29C190.728 40.7292 189.405 40.4522 188.07 40.48C186.634 40.4577 185.216 40.8019 183.95 41.48C182.866 42.0428 181.946 42.8765 181.28 43.9C180.717 44.7387 180.405 45.7203 180.38 46.73C180.386 46.9345 180.433 47.1356 180.519 47.3213C180.605 47.5069 180.728 47.6732 180.88 47.81C181.036 47.976 181.225 48.1072 181.436 48.1951C181.646 48.283 181.872 48.3255 182.1 48.32C182.62 48.32 183.36 48.16 183.77 46.81C184.05 45.7775 184.551 44.8185 185.24 44C185.616 43.6458 186.062 43.374 186.55 43.2019C187.037 43.0297 187.555 42.9609 188.07 43V43Z" fill="#2C2627"/>
<path d="M187.88 102.42C191.619 102.42 194.65 99.389 194.65 95.65C194.65 91.911 191.619 88.88 187.88 88.88C184.141 88.88 181.11 91.911 181.11 95.65C181.11 99.389 184.141 102.42 187.88 102.42Z" fill="#E6EBEF"/>
<path d="M187.88 102.8C186.465 102.806 185.079 102.392 183.899 101.61C182.72 100.828 181.799 99.7129 181.253 98.407C180.707 97.101 180.561 95.6625 180.834 94.2735C181.106 92.8846 181.785 91.6078 182.784 90.6048C183.782 89.6019 185.056 88.9179 186.444 88.6396C187.832 88.3613 189.271 88.5011 190.579 89.0414C191.887 89.5817 193.006 90.4981 193.793 91.6745C194.58 92.851 195 94.2345 195 95.6499C194.997 97.5403 194.247 99.3528 192.913 100.692C191.58 102.032 189.77 102.789 187.88 102.8V102.8ZM187.88 89.2599C186.613 89.258 185.375 89.6319 184.321 90.3344C183.267 91.0368 182.445 92.0363 181.959 93.2061C181.473 94.376 181.346 95.6637 181.592 96.9061C181.839 98.1485 182.449 99.2898 183.344 100.185C184.24 101.081 185.381 101.691 186.624 101.937C187.866 102.184 189.154 102.056 190.324 101.571C191.494 101.085 192.493 100.263 193.196 99.2094C193.898 98.1553 194.272 96.9166 194.27 95.6499C194.267 93.956 193.593 92.3322 192.395 91.1344C191.198 89.9367 189.574 89.2626 187.88 89.2599V89.2599Z" fill="black"/>
</svg>
