<svg width="327" height="120" viewBox="0 0 327 120" fill="none" xmlns="http://www.w3.org/2000/svg">
<rect width="327" height="120" fill="white"/>
<path d="M132.93 8C138.48 3.2 147.19 2.22 155.12 2.61C180 3.83 202.53 15.5 222 28.71C229 33.49 236 38.64 240.55 45.22C249.85 58.62 247.09 77.22 234.15 88.22C229.503 91.945 224.382 95.0354 218.92 97.41C209.18 101.94 198.67 105.59 187.61 106.63C179.701 107.216 171.752 106.914 163.91 105.73C142.01 102.85 120.51 96.47 102.49 85.57C94.59 80.78 87.14 74.84 83.89 67.1C80.64 59.36 82.71 49.57 90.78 45C94.12 43.11 98.11 42.25 102.01 41.45C107.76 40.27 113.6 39.1 118.79 36.7C124.16 34.21 130.5 29.41 129.44 23.92C128.3 18 127.39 12.82 132.93 8Z" fill="#EFF3F6"/>
<g style="mix-blend-mode:multiply">
<path d="M198.86 20.62H137.95C134.636 20.62 131.95 23.3063 131.95 26.62V106.6C131.95 109.914 134.636 112.6 137.95 112.6H198.86C202.174 112.6 204.86 109.914 204.86 106.6V26.62C204.86 23.3063 202.174 20.62 198.86 20.62Z" fill="#DCE2E7"/>
</g>
<path d="M195.69 23.8H134.48C131.166 23.8 128.48 26.4863 128.48 29.8V110.15C128.48 113.464 131.166 116.15 134.48 116.15H195.69C199.004 116.15 201.69 113.464 201.69 110.15V29.8C201.69 26.4863 199.004 23.8 195.69 23.8Z" fill="white"/>
<path d="M195.69 116.52H134.48C132.791 116.517 131.173 115.845 129.979 114.651C128.785 113.457 128.113 111.839 128.11 110.15V43.57C128.125 43.4811 128.17 43.4002 128.239 43.3419C128.308 43.2835 128.395 43.2515 128.485 43.2515C128.575 43.2515 128.662 43.2835 128.731 43.3419C128.8 43.4002 128.845 43.4811 128.86 43.57V110.15C128.86 111.641 129.452 113.07 130.506 114.124C131.56 115.178 132.989 115.77 134.48 115.77H195.69C197.181 115.77 198.61 115.178 199.664 114.124C200.718 113.07 201.31 111.641 201.31 110.15V29.8C201.31 28.3086 200.718 26.8781 199.665 25.8226C198.611 24.767 197.181 24.1727 195.69 24.17H134.48C132.989 24.1727 131.559 24.767 130.505 25.8226C129.452 26.8781 128.86 28.3086 128.86 29.8V39.09C128.845 39.179 128.8 39.2599 128.731 39.3182C128.662 39.3766 128.575 39.4086 128.485 39.4086C128.395 39.4086 128.308 39.3766 128.239 39.3182C128.17 39.2599 128.125 39.179 128.11 39.09V29.8C128.11 28.1097 128.781 26.4884 129.975 25.2922C131.169 24.096 132.79 23.4227 134.48 23.42H195.69C197.38 23.4227 199.001 24.096 200.195 25.2922C201.389 26.4884 202.06 28.1097 202.06 29.8V110.15C202.057 111.839 201.385 113.457 200.191 114.651C198.997 115.845 197.379 116.517 195.69 116.52V116.52Z" fill="#2C2627"/>
<path d="M194.65 100.15C194.552 100.15 194.458 100.111 194.388 100.042C194.319 99.9722 194.28 99.8781 194.28 99.78V95C194.28 94.9019 194.319 94.8078 194.388 94.7384C194.458 94.669 194.552 94.63 194.65 94.63C194.744 94.6374 194.832 94.6793 194.896 94.7477C194.961 94.816 194.998 94.9059 195 95V99.78C194.998 99.8741 194.961 99.964 194.896 100.032C194.832 100.101 194.744 100.143 194.65 100.15V100.15Z" fill="#2C2627"/>
<path d="M194.65 109.77H135.52C135.421 109.767 135.327 109.726 135.258 109.655C135.189 109.584 135.15 109.489 135.15 109.39V30C135.15 29.9019 135.189 29.8078 135.258 29.7384C135.328 29.669 135.422 29.63 135.52 29.63H194.65C194.745 29.6351 194.834 29.6764 194.899 29.7452C194.964 29.814 195 29.9052 195 30V92.57C195 92.6194 194.99 92.6684 194.971 92.714C194.952 92.7595 194.924 92.8007 194.888 92.8352C194.853 92.8697 194.811 92.8968 194.765 92.9148C194.719 92.9328 194.669 92.9413 194.62 92.94C194.571 92.9414 194.522 92.9328 194.477 92.9147C194.431 92.8966 194.39 92.8693 194.355 92.8347C194.321 92.8001 194.293 92.7587 194.275 92.7132C194.257 92.6677 194.249 92.619 194.25 92.57V30.37H135.9V109H194.28V102C194.279 101.951 194.287 101.901 194.305 101.855C194.323 101.809 194.35 101.767 194.385 101.732C194.419 101.696 194.461 101.668 194.506 101.649C194.552 101.63 194.601 101.62 194.65 101.62C194.751 101.62 194.847 101.66 194.919 101.731C194.99 101.803 195.03 101.899 195.03 102V109.4C195.027 109.499 194.986 109.593 194.915 109.662C194.844 109.731 194.749 109.77 194.65 109.77V109.77Z" fill="#2C2627"/>
<path d="M165.09 21C164.358 21 163.643 20.783 163.034 20.3764C162.426 19.9699 161.952 19.392 161.672 18.7159C161.392 18.0398 161.318 17.2959 161.461 16.5781C161.604 15.8604 161.956 15.2011 162.474 14.6837C162.991 14.1662 163.65 13.8138 164.368 13.6711C165.086 13.5283 165.83 13.6016 166.506 13.8816C167.182 14.1617 167.76 14.6359 168.166 15.2444C168.573 15.8528 168.79 16.5682 168.79 17.3C168.79 18.2813 168.4 19.2224 167.706 19.9163C167.012 20.6102 166.071 21 165.09 21V21ZM165.09 14.35C164.504 14.342 163.93 14.5085 163.439 14.8283C162.949 15.148 162.564 15.6065 162.335 16.1454C162.106 16.6843 162.043 17.2791 162.153 17.8543C162.263 18.4294 162.541 18.9588 162.953 19.3749C163.365 19.7911 163.892 20.0753 164.466 20.1913C165.04 20.3072 165.635 20.2498 166.176 20.0262C166.718 19.8026 167.18 19.423 167.505 18.9357C167.83 18.4484 168.002 17.8755 168 17.29C167.988 16.5184 167.678 15.7812 167.136 15.2318C166.594 14.6824 165.861 14.363 165.09 14.34V14.35Z" fill="#2C2627"/>
<path d="M183.78 30.19L182.32 23C182.165 22.2395 181.752 21.556 181.15 21.0657C180.549 20.5753 179.796 20.3083 179.02 20.31H175.16C174.386 20.3107 173.642 20.0126 173.083 19.4778C172.524 18.943 172.194 18.2129 172.16 17.44C172.052 15.7425 171.338 14.1401 170.149 12.9236C168.96 11.7072 167.375 10.9573 165.68 10.81C164.7 10.7327 163.714 10.8592 162.785 11.1816C161.857 11.504 161.005 12.0153 160.283 12.6832C159.562 13.3512 158.986 14.1613 158.593 15.0626C158.2 15.9639 157.998 16.9368 158 17.92V17.92C158 18.5522 157.75 19.1586 157.304 19.6065C156.858 20.0544 156.252 20.3074 155.62 20.31H151.46C150.704 20.3078 149.969 20.5616 149.375 21.03C148.782 21.4985 148.364 22.154 148.19 22.89L146.47 30.06C146.35 30.5546 146.345 31.0698 146.453 31.5669C146.562 32.064 146.782 32.5299 147.097 32.9296C147.412 33.3292 147.813 33.6521 148.271 33.8739C148.729 34.0957 149.231 34.2107 149.74 34.21H180.53C181.023 34.2035 181.509 34.0883 181.953 33.8728C182.397 33.6572 182.788 33.3465 183.098 32.9627C183.409 32.579 183.631 32.1316 183.748 31.6524C183.866 31.1732 183.877 30.6739 183.78 30.19V30.19ZM165.09 20.62C164.431 20.622 163.786 20.4284 163.237 20.0637C162.688 19.699 162.26 19.1796 162.006 18.5713C161.753 17.963 161.685 17.2931 161.813 16.6465C161.94 15.9999 162.257 15.4056 162.722 14.9389C163.187 14.4722 163.78 14.1541 164.427 14.0248C165.073 13.8955 165.743 13.9608 166.352 14.2126C166.961 14.4643 167.482 14.8911 167.848 15.4389C168.214 15.9868 168.41 16.631 168.41 17.29C168.41 18.1715 168.061 19.0169 167.438 19.6412C166.816 20.2654 165.971 20.6174 165.09 20.62V20.62Z" fill="#E6EBEF"/>
<path d="M180.48 34.61H149.69C149.125 34.6084 148.568 34.4794 148.06 34.2325C147.552 33.9855 147.107 33.6271 146.757 33.1838C146.407 32.7406 146.162 32.2241 146.039 31.6728C145.917 31.1215 145.921 30.5496 146.05 30L147.77 22.83C147.972 22.0185 148.44 21.2984 149.1 20.7852C149.76 20.272 150.574 19.9954 151.41 20H155.57C156.1 20 156.609 19.7892 156.984 19.4142C157.359 19.0391 157.57 18.5304 157.57 18C157.561 16.95 157.773 15.9099 158.192 14.947C158.61 13.984 159.226 13.1197 160 12.41C160.761 11.7021 161.663 11.1625 162.647 10.8265C163.631 10.4906 164.675 10.3656 165.71 10.46C167.232 10.594 168.677 11.1897 169.851 12.1672C171.025 13.1447 171.872 14.4575 172.28 15.93C172.415 16.4204 172.502 16.9227 172.54 17.43C172.556 18.1153 172.838 18.7674 173.328 19.2475C173.817 19.7275 174.475 19.9975 175.16 20H179C179.862 20.0032 180.696 20.3033 181.363 20.8497C182.03 21.3961 182.488 22.1554 182.66 23L184.13 30.18C184.239 30.7237 184.227 31.285 184.093 31.8234C183.96 32.3617 183.708 32.8637 183.357 33.2932C183.006 33.7227 182.564 34.0689 182.063 34.307C181.562 34.5451 181.015 34.669 180.46 34.6699L180.48 34.61ZM151.41 20.7C150.737 20.7016 150.085 20.9292 149.557 21.3463C149.029 21.7634 148.657 22.3458 148.5 23L146.78 30.17C146.676 30.6097 146.673 31.0672 146.77 31.5083C146.868 31.9495 147.064 32.3629 147.344 32.7177C147.624 33.0724 147.98 33.3594 148.386 33.5572C148.793 33.755 149.238 33.8585 149.69 33.86H180.48C180.924 33.8597 181.362 33.761 181.763 33.5709C182.164 33.3809 182.518 33.1041 182.8 32.7607C183.081 32.4173 183.282 32.0158 183.39 31.585C183.497 31.1543 183.507 30.7052 183.42 30.27L182 23.09C181.858 22.404 181.48 21.7894 180.932 21.3529C180.384 20.9163 179.7 20.6853 179 20.7H175.14C174.274 20.6913 173.443 20.354 172.815 19.7563C172.188 19.1586 171.811 18.345 171.76 17.4799C171.727 17.0236 171.65 16.5714 171.53 16.1299C171.153 14.8101 170.388 13.6341 169.334 12.7549C168.28 11.8756 166.986 11.3339 165.62 11.2C164.689 11.1211 163.753 11.2362 162.869 11.538C161.985 11.8399 161.173 12.3218 160.485 12.9534C159.797 13.5851 159.248 14.3526 158.872 15.2075C158.495 16.0623 158.301 16.986 158.3 17.92C158.309 18.2901 158.242 18.6581 158.105 19.0019C157.967 19.3456 157.762 19.6579 157.5 19.92C157.238 20.1819 156.926 20.3886 156.582 20.5277C156.239 20.6668 155.871 20.7356 155.5 20.7299L151.41 20.7ZM165.09 20.99C164.358 20.99 163.643 20.7729 163.034 20.3664C162.426 19.9598 161.952 19.382 161.672 18.7059C161.392 18.0298 161.318 17.2858 161.461 16.5681C161.604 15.8504 161.956 15.1911 162.474 14.6737C162.991 14.1562 163.65 13.8038 164.368 13.661C165.086 13.5183 165.83 13.5916 166.506 13.8716C167.182 14.1516 167.76 14.6259 168.166 15.2343C168.573 15.8428 168.79 16.5582 168.79 17.29C168.791 17.7767 168.697 18.2589 168.511 18.709C168.326 19.159 168.054 19.5681 167.71 19.9127C167.366 20.2573 166.958 20.5308 166.508 20.7174C166.059 20.9039 165.577 21 165.09 21V20.99ZM165.09 14.34C164.505 14.332 163.931 14.4983 163.44 14.8176C162.95 15.1368 162.566 15.5947 162.336 16.133C162.107 16.6713 162.043 17.2657 162.152 17.8406C162.261 18.4154 162.539 18.9448 162.95 19.3614C163.361 19.7779 163.886 20.0629 164.46 20.18C165.033 20.2971 165.628 20.2411 166.169 20.019C166.711 19.797 167.174 19.4189 167.5 18.933C167.826 18.447 168 17.8751 168 17.29C167.988 16.5183 167.678 15.7812 167.136 15.2318C166.594 14.6824 165.861 14.363 165.09 14.34V14.34Z" fill="black"/>
<path d="M148.81 56.39H150.15C151.807 56.39 153.15 55.0469 153.15 53.39V52.05C153.15 50.3932 151.807 49.05 150.15 49.05H148.81C147.153 49.05 145.81 50.3932 145.81 52.05V53.39C145.81 55.0469 147.153 56.39 148.81 56.39Z" fill="#DAD3E4"/>
<path d="M150.15 56.64H148.81C147.949 56.6374 147.124 56.2942 146.515 55.6852C145.906 55.0763 145.563 54.2512 145.56 53.39V52.05C145.563 51.1889 145.906 50.3638 146.515 49.7549C147.124 49.1459 147.949 48.8027 148.81 48.8H150.15C151.011 48.8027 151.836 49.1459 152.445 49.7549C153.054 50.3638 153.397 51.1889 153.4 52.05V53.39C153.397 54.2512 153.054 55.0763 152.445 55.6852C151.836 56.2942 151.011 56.6374 150.15 56.64V56.64ZM148.81 49.3C148.081 49.3 147.381 49.5898 146.866 50.1055C146.35 50.6212 146.06 51.3207 146.06 52.05V53.39C146.06 54.1194 146.35 54.8189 146.866 55.3346C147.381 55.8503 148.081 56.14 148.81 56.14H150.15C150.879 56.14 151.579 55.8503 152.095 55.3346C152.61 54.8189 152.9 54.1194 152.9 53.39V52.05C152.9 51.3207 152.61 50.6212 152.095 50.1055C151.579 49.5898 150.879 49.3 150.15 49.3H148.81Z" fill="#2C2627"/>
<path d="M183.85 53.09H157.79C157.741 53.0913 157.691 53.0827 157.645 53.0647C157.599 53.0467 157.557 53.0197 157.522 52.9852C157.486 52.9507 157.458 52.9095 157.439 52.8639C157.42 52.8184 157.41 52.7694 157.41 52.72C157.41 52.6192 157.45 52.5225 157.521 52.4513C157.593 52.38 157.689 52.34 157.79 52.34H183.85C183.951 52.34 184.047 52.38 184.119 52.4513C184.19 52.5225 184.23 52.6192 184.23 52.72C184.23 52.7694 184.22 52.8184 184.201 52.8639C184.182 52.9095 184.154 52.9507 184.118 52.9852C184.083 53.0197 184.041 53.0467 183.995 53.0647C183.949 53.0827 183.899 53.0913 183.85 53.09V53.09Z" fill="#2C2627"/>
<path d="M148.81 73.36H150.15C151.807 73.36 153.15 72.0168 153.15 70.36V69.02C153.15 67.3631 151.807 66.02 150.15 66.02H148.81C147.153 66.02 145.81 67.3631 145.81 69.02V70.36C145.81 72.0168 147.153 73.36 148.81 73.36Z" fill="#DAD3E4"/>
<path d="M150.15 73.61H148.81C147.949 73.6074 147.124 73.2641 146.515 72.6552C145.906 72.0463 145.563 71.2211 145.56 70.36V69C145.563 68.1389 145.906 67.3137 146.515 66.7048C147.124 66.0959 147.949 65.7526 148.81 65.75H150.15C151.011 65.7526 151.836 66.0959 152.445 66.7048C153.054 67.3137 153.397 68.1389 153.4 69V70.34C153.401 70.7681 153.318 71.1923 153.156 71.5883C152.993 71.9843 152.754 72.3445 152.452 72.6481C152.151 72.9517 151.792 73.193 151.397 73.358C151.002 73.5231 150.578 73.6087 150.15 73.61ZM148.81 66.27C148.084 66.27 147.388 66.557 146.873 67.0684C146.357 67.5798 146.065 68.2741 146.06 69V70.34C146.06 71.0693 146.35 71.7688 146.866 72.2845C147.381 72.8003 148.081 73.09 148.81 73.09H150.15C150.879 73.09 151.579 72.8003 152.095 72.2845C152.61 71.7688 152.9 71.0693 152.9 70.34V69C152.9 68.2707 152.61 67.5712 152.095 67.0555C151.579 66.5397 150.879 66.25 150.15 66.25L148.81 66.27Z" fill="#2C2627"/>
<path d="M183.85 70.07H157.79C157.689 70.07 157.593 70.0299 157.521 69.9587C157.45 69.8874 157.41 69.7907 157.41 69.69C157.41 69.6405 157.42 69.5916 157.439 69.546C157.458 69.5005 157.486 69.4592 157.522 69.4247C157.557 69.3902 157.599 69.3632 157.645 69.3452C157.691 69.3272 157.741 69.3186 157.79 69.32H183.85C183.899 69.3186 183.949 69.3272 183.995 69.3452C184.041 69.3632 184.083 69.3902 184.118 69.4247C184.154 69.4592 184.182 69.5005 184.201 69.546C184.22 69.5916 184.23 69.6405 184.23 69.69C184.23 69.7907 184.19 69.8874 184.119 69.9587C184.047 70.0299 183.951 70.07 183.85 70.07V70.07Z" fill="#2C2627"/>
<path d="M148.81 90.34H150.15C151.807 90.34 153.15 88.9968 153.15 87.34V86C153.15 84.3431 151.807 83 150.15 83H148.81C147.153 83 145.81 84.3431 145.81 86V87.34C145.81 88.9968 147.153 90.34 148.81 90.34Z" fill="#DAD3E4"/>
<path d="M150.15 90.59H148.81C147.949 90.5874 147.124 90.2441 146.515 89.6352C145.906 89.0263 145.563 88.2011 145.56 87.34V86C145.563 85.1389 145.906 84.3137 146.515 83.7048C147.124 83.0959 147.949 82.7526 148.81 82.75H150.15C151.011 82.7526 151.836 83.0959 152.445 83.7048C153.054 84.3137 153.397 85.1389 153.4 86V87.35C153.395 88.2094 153.05 89.032 152.442 89.6387C151.833 90.2455 151.009 90.5874 150.15 90.59V90.59ZM148.81 83.24C148.448 83.24 148.09 83.3115 147.755 83.4503C147.421 83.5891 147.117 83.7926 146.862 84.049C146.606 84.3054 146.404 84.6097 146.267 84.9445C146.129 85.2794 146.059 85.638 146.06 86V87.35C146.06 87.7111 146.131 88.0687 146.269 88.4024C146.408 88.736 146.61 89.0392 146.866 89.2945C147.121 89.5499 147.424 89.7525 147.758 89.8907C148.091 90.0289 148.449 90.1 148.81 90.1H150.15C150.511 90.1 150.869 90.0289 151.202 89.8907C151.536 89.7525 151.839 89.5499 152.095 89.2945C152.35 89.0392 152.553 88.736 152.691 88.4024C152.829 88.0687 152.9 87.7111 152.9 87.35V86C152.9 85.2707 152.61 84.5712 152.095 84.0555C151.579 83.5397 150.879 83.25 150.15 83.25L148.81 83.24Z" fill="#2C2627"/>
<path d="M183.85 87H157.79C157.736 87.0089 157.68 87.0059 157.627 86.9911C157.574 86.9764 157.525 86.9503 157.483 86.9146C157.441 86.8789 157.407 86.8345 157.384 86.7845C157.361 86.7345 157.349 86.6801 157.349 86.625C157.349 86.5699 157.361 86.5155 157.384 86.4654C157.407 86.4154 157.441 86.3711 157.483 86.3354C157.525 86.2997 157.574 86.2736 157.627 86.2589C157.68 86.2441 157.736 86.2411 157.79 86.25H183.85C183.904 86.2411 183.96 86.2441 184.013 86.2589C184.066 86.2736 184.116 86.2997 184.158 86.3354C184.2 86.3711 184.233 86.4154 184.256 86.4654C184.28 86.5155 184.292 86.5699 184.292 86.625C184.292 86.6801 184.28 86.7345 184.256 86.7845C184.233 86.8345 184.2 86.8789 184.158 86.9146C184.116 86.9503 184.066 86.9764 184.013 86.9911C183.96 87.0059 183.904 87.0089 183.85 87V87Z" fill="#2C2627"/>
<path d="M220.376 39.3706L213.502 35.4176L189.594 76.994L196.469 80.947L220.376 39.3706Z" fill="white"/>
<path d="M204.887 66.3001L198.012 62.347L189.498 77.1536L196.373 81.1066L204.887 66.3001Z" fill="#BAC2CA"/>
<path d="M189.59 77L196.46 80.95L188.6 86.66L189.59 77Z" fill="white"/>
<path d="M188.6 87.0001C188.534 86.9976 188.469 86.9805 188.41 86.9501C188.349 86.9138 188.299 86.8605 188.267 86.7967C188.235 86.7328 188.222 86.661 188.23 86.59L189.23 76.9201C189.237 76.8589 189.258 76.8004 189.293 76.7497C189.328 76.6991 189.375 76.658 189.43 76.6301C189.485 76.6003 189.547 76.5847 189.61 76.5847C189.673 76.5847 189.735 76.6003 189.79 76.6301L196.67 80.6301C196.724 80.6608 196.769 80.7042 196.802 80.7565C196.835 80.8088 196.855 80.8684 196.86 80.9301C196.86 80.9936 196.846 81.0563 196.818 81.1134C196.79 81.1706 196.75 81.2207 196.7 81.2601L188.82 87.0001C188.749 87.0244 188.671 87.0244 188.6 87.0001ZM189.9 77.5701L189.06 85.8301L195.77 81.0001L189.9 77.5701Z" fill="#2C2627"/>
<path d="M219.126 31.6651L220.799 32.6272C221.489 33.0238 221.993 33.6782 222.2 34.4464C222.407 35.2146 222.301 36.0336 221.904 36.7234L220.384 39.3674L213.509 35.4144L215.03 32.7704C215.426 32.0806 216.081 31.5767 216.849 31.3694C217.617 31.1621 218.436 31.2685 219.126 31.6651V31.6651Z" fill="#BAC2CA"/>
<path d="M220.51 39.89L213 35.56L214.71 32.56C214.93 32.1744 215.224 31.8361 215.575 31.5647C215.926 31.2934 216.328 31.0943 216.757 30.979C217.185 30.8637 217.632 30.8345 218.072 30.893C218.512 30.9515 218.936 31.0967 219.32 31.32L220.99 32.32C221.372 32.5329 221.708 32.8191 221.98 33.1624C222.251 33.5056 222.451 33.899 222.57 34.32C222.686 34.7475 222.716 35.1936 222.66 35.6329C222.603 36.0721 222.461 36.4959 222.24 36.88L220.51 39.89ZM214.01 35.29L220.23 38.87L221.57 36.54C221.744 36.2406 221.856 35.9095 221.901 35.5662C221.946 35.2228 221.921 34.874 221.83 34.54C221.633 33.8877 221.193 33.3361 220.6 33L218.93 32C218.629 31.8293 218.297 31.7197 217.953 31.6776C217.609 31.6354 217.261 31.6615 216.927 31.7545C216.594 31.8474 216.282 32.0052 216.009 32.219C215.737 32.4327 215.51 32.6982 215.34 33L214.01 35.29Z" fill="black"/>
<path d="M204.88 66.68C204.816 66.6837 204.753 66.6661 204.7 66.63L197.82 62.68C197.777 62.6557 197.74 62.6233 197.71 62.5845C197.68 62.5457 197.657 62.5014 197.644 62.454C197.631 62.4067 197.628 62.3572 197.634 62.3085C197.64 62.2598 197.656 62.2127 197.68 62.17C197.704 62.1274 197.737 62.0899 197.776 62.0598C197.814 62.0296 197.859 62.0074 197.906 61.9944C197.953 61.9814 198.003 61.9779 198.052 61.984C198.1 61.9901 198.147 62.0057 198.19 62.03L205.07 66.03C205.156 66.0821 205.218 66.1652 205.244 66.262C205.27 66.3588 205.258 66.462 205.21 66.55C205.17 66.5969 205.119 66.6333 205.061 66.6559C205.004 66.6786 204.942 66.6868 204.88 66.68V66.68Z" fill="#2C2627"/>
<path d="M212 60.27C211.937 60.2674 211.875 60.2503 211.82 60.22C211.734 60.168 211.672 60.0849 211.646 59.9881C211.62 59.8912 211.632 59.7881 211.68 59.7L221.68 42.33L219.44 41.05C219.354 40.998 219.292 40.9149 219.266 40.8181C219.24 40.7212 219.252 40.6181 219.3 40.53C219.325 40.4878 219.358 40.4509 219.397 40.4214C219.436 40.392 219.48 40.3706 219.528 40.3585C219.575 40.3464 219.625 40.3439 219.673 40.351C219.722 40.3581 219.768 40.3748 219.81 40.4L222.38 41.87C222.423 41.8939 222.461 41.9262 222.491 41.9649C222.522 42.0036 222.544 42.0481 222.557 42.0956C222.57 42.1431 222.574 42.1927 222.567 42.2415C222.561 42.2904 222.545 42.3375 222.52 42.38L212.34 60.08C212.305 60.1387 212.255 60.1871 212.195 60.2205C212.136 60.2538 212.068 60.2709 212 60.27V60.27Z" fill="#2C2627"/>
<path d="M196.46 81.33C196.397 81.3435 196.333 81.3435 196.27 81.33L189.4 77.33C189.314 77.2819 189.25 77.2034 189.22 77.11C189.186 77.0164 189.186 76.9136 189.22 76.82L213.13 35.25C213.154 35.2069 213.186 35.1691 213.225 35.1386C213.264 35.1082 213.308 35.0858 213.356 35.0728C213.403 35.0597 213.453 35.0563 213.502 35.0627C213.55 35.0691 213.597 35.0852 213.64 35.11L220.52 39.06C220.563 39.0847 220.6 39.1178 220.629 39.1574C220.658 39.197 220.679 39.2421 220.69 39.29C220.725 39.3834 220.725 39.4866 220.69 39.58L196.79 81.14C196.756 81.1972 196.708 81.2448 196.65 81.278C196.592 81.3113 196.527 81.3292 196.46 81.33V81.33ZM190.1 76.86L196.32 80.44L219.86 39.52L213.63 35.94L190.1 76.86Z" fill="#2C2627"/>
<g style="mix-blend-mode:multiply">
<path d="M221.89 37.06L220.36 39.7L196.45 81.28L188.6 87L188.65 86.52L218.07 37.4L220 34.17C220.249 33.7469 220.409 33.2773 220.47 32.79L220.77 32.96C221.113 33.1552 221.415 33.4162 221.657 33.7281C221.899 34.04 222.077 34.3966 222.181 34.7775C222.285 35.1584 222.313 35.5561 222.263 35.9478C222.213 36.3395 222.086 36.7175 221.89 37.06V37.06Z" fill="#DCE2E7"/>
</g>
</svg>
