<svg width="327" height="150" viewBox="0 0 327 150" fill="none" xmlns="http://www.w3.org/2000/svg">
<rect width="327" height="150" fill="white"/>
<path d="M120.08 9.73001C127.62 3.38001 139.43 2.09001 150.19 2.59001C183.98 4.18001 214.49 19.59 240.87 37.08C250.42 43.39 259.82 50.21 266.02 58.91C278.64 76.63 274.9 101.18 257.34 115.77C251.34 120.77 244.13 124.54 236.69 127.92C223.48 133.92 209.22 138.74 194.22 140.11C183.52 141.11 172.7 140.29 162.07 138.93C132.36 135.12 103.21 126.69 78.76 112.27C68 105.94 57.94 98.08 53.53 87.84C49.12 77.6 52 64.66 62.92 58.6C67.44 56.09 72.86 54.96 78.15 53.9C85.95 52.34 93.88 50.79 100.92 47.61C108.19 44.33 116.79 37.98 115.35 30.71C113.81 22.92 112.58 16.07 120.08 9.73001Z" fill="#EFF3F6"/>
<path d="M102.884 41.7848L65.7461 52.1609C62.5546 53.0525 60.6903 56.3626 61.5819 59.5541L75.5153 109.424C76.407 112.616 79.717 114.48 82.9085 113.588L120.046 103.212C123.238 102.321 125.102 99.0106 124.21 95.8191L110.277 45.949C109.385 42.7575 106.075 40.8932 102.884 41.7848Z" fill="white"/>
<path d="M111.59 50.6501L109.77 44.1501C109.625 43.6262 109.377 43.1362 109.042 42.7081C108.706 42.2801 108.29 41.9225 107.816 41.6559C107.342 41.3892 106.82 41.2188 106.28 41.1543C105.741 41.0898 105.193 41.1325 104.67 41.2801L64 52.6501C62.9408 52.9463 62.0425 53.6509 61.5025 54.6091C60.9625 55.5672 60.8249 56.7005 61.12 57.7601L62.94 64.2601L111.59 50.6501Z" fill="#BAC2CA"/>
<path d="M95.09 71C95.0229 71.0007 94.9574 70.9797 94.9033 70.94C94.8492 70.9004 94.8095 70.8442 94.79 70.78C94.7779 70.7413 94.7737 70.7005 94.7778 70.6601C94.7818 70.6197 94.794 70.5806 94.8137 70.5451C94.8333 70.5095 94.8599 70.4784 94.892 70.4534C94.924 70.4285 94.9608 70.4103 95 70.4L104.31 67.8C104.349 67.7879 104.39 67.7837 104.43 67.7878C104.47 67.7918 104.509 67.804 104.545 67.8237C104.58 67.8433 104.612 67.8699 104.637 67.902C104.662 67.934 104.68 67.9708 104.69 68.01C104.712 68.0882 104.702 68.1719 104.663 68.2429C104.623 68.314 104.558 68.3668 104.48 68.39L95.17 71H95.09Z" fill="#2C2627"/>
<path d="M78.07 71.83C77.9935 71.8332 77.9185 71.8079 77.8594 71.7591C77.8004 71.7103 77.7616 71.6413 77.7504 71.5655C77.7392 71.4897 77.7565 71.4125 77.7989 71.3487C77.8413 71.2849 77.9058 71.239 77.98 71.22L103.29 64.15C103.331 64.1311 103.376 64.1214 103.421 64.1215C103.466 64.1216 103.51 64.1315 103.551 64.1506C103.592 64.1696 103.628 64.1974 103.657 64.2319C103.686 64.2664 103.707 64.3068 103.719 64.3503C103.731 64.3938 103.733 64.4394 103.725 64.4838C103.718 64.5283 103.701 64.5705 103.675 64.6076C103.649 64.6447 103.616 64.6758 103.577 64.6986C103.538 64.7215 103.495 64.7356 103.45 64.74L78.15 71.82L78.07 71.83Z" fill="#2C2627"/>
<path d="M98.23 82.26C98.1535 82.2632 98.0784 82.2379 98.0194 82.1891C97.9604 82.1402 97.9215 82.0713 97.9104 81.9955C97.8992 81.9197 97.9165 81.8425 97.9589 81.7787C98.0013 81.7148 98.0658 81.669 98.14 81.65L107.45 79.05C107.524 79.0394 107.599 79.056 107.662 79.0966C107.725 79.1373 107.771 79.1992 107.792 79.271C107.812 79.3429 107.806 79.4198 107.775 79.4876C107.743 79.5554 107.688 79.6095 107.62 79.64L98.31 82.24L98.23 82.26Z" fill="#2C2627"/>
<path d="M81.21 83.06C81.1416 83.0601 81.0751 83.0376 81.0209 82.996C80.9666 82.9544 80.9276 82.896 80.91 82.83C80.8979 82.7919 80.8938 82.7518 80.898 82.712C80.9022 82.6723 80.9145 82.6339 80.9342 82.5991C80.9539 82.5644 80.9806 82.5341 81.0126 82.5102C81.0445 82.4862 81.0811 82.4691 81.12 82.46L106.43 75.38C106.51 75.3588 106.594 75.37 106.666 75.4113C106.737 75.4526 106.789 75.5204 106.81 75.6C106.831 75.6796 106.82 75.7643 106.779 75.8356C106.737 75.9068 106.67 75.9588 106.59 75.98L81.29 83.05L81.21 83.06Z" fill="#2C2627"/>
<path d="M101.38 93.5401C101.313 93.5408 101.247 93.5197 101.193 93.4801C101.139 93.4404 101.099 93.3843 101.08 93.3201C101.061 93.2406 101.074 93.157 101.115 93.0864C101.155 93.0157 101.222 92.9634 101.3 92.9401L110.61 90.3401C110.651 90.3212 110.695 90.3114 110.741 90.3115C110.786 90.3116 110.83 90.3216 110.871 90.3406C110.912 90.3597 110.948 90.3875 110.977 90.422C111.006 90.4565 111.027 90.4969 111.039 90.5404C111.051 90.5839 111.053 90.6295 111.045 90.6739C111.038 90.7183 111.021 90.7606 110.995 90.7977C110.969 90.8348 110.936 90.8658 110.897 90.8887C110.858 90.9116 110.815 90.9257 110.77 90.9301L101.46 93.5301L101.38 93.5401Z" fill="#2C2627"/>
<path d="M84.36 94.35C84.292 94.3485 84.2263 94.3254 84.1724 94.284C84.1185 94.2427 84.0791 94.1852 84.06 94.12C84.0495 94.0813 84.0469 94.0408 84.0524 94.001C84.0579 93.9613 84.0712 93.923 84.0918 93.8885C84.1123 93.854 84.1395 93.824 84.1718 93.8002C84.2042 93.7764 84.2409 93.7593 84.28 93.75L109.58 86.67C109.66 86.6475 109.745 86.6575 109.817 86.6978C109.889 86.7381 109.942 86.8055 109.965 86.885C109.988 86.9646 109.978 87.0498 109.937 87.122C109.897 87.1942 109.83 87.2475 109.75 87.27L84.44 94.34L84.36 94.35Z" fill="#2C2627"/>
<path d="M111.546 50.4611L62.8461 64.0492L62.9563 64.4441L111.656 50.856L111.546 50.4611Z" fill="#2C2627"/>
<path d="M80.54 114.54C79.3565 114.533 78.208 114.138 77.2705 113.415C76.3331 112.693 75.6584 111.683 75.35 110.54L60.83 58.64C60.4517 57.2623 60.6336 55.791 61.3362 54.547C62.0387 53.303 63.2048 52.3874 64.58 52L103.79 41C104.472 40.8049 105.185 40.7477 105.889 40.8319C106.593 40.916 107.274 41.1397 107.89 41.49C108.509 41.8369 109.054 42.3025 109.494 42.8601C109.933 43.4178 110.258 44.0566 110.45 44.74L114.37 58.74C114.392 58.8577 114.369 58.9794 114.306 59.0812C114.243 59.1829 114.144 59.2574 114.029 59.29C113.913 59.3225 113.79 59.3109 113.683 59.2572C113.576 59.2036 113.493 59.1118 113.45 59L109.52 45C109.184 43.8826 108.422 42.9421 107.399 42.381C106.376 41.8198 105.173 41.683 104.05 42L64.84 53C63.706 53.3174 62.7441 54.0713 62.1649 55.0966C61.5857 56.1219 61.4365 57.3349 61.75 58.47L76.27 110.47C76.5894 111.604 77.3458 112.566 78.3731 113.143C79.4005 113.721 80.6149 113.867 81.75 113.55L120.95 102.55C121.517 102.389 122.046 102.117 122.507 101.75C122.968 101.383 123.351 100.929 123.635 100.412C123.918 99.8961 124.097 99.3286 124.16 98.7428C124.222 98.157 124.168 97.5647 124 97L114.1 61.42C114.066 61.298 114.082 61.1676 114.144 61.0571C114.205 60.9466 114.308 60.865 114.43 60.83C114.553 60.7958 114.685 60.8111 114.797 60.8728C114.909 60.9345 114.993 61.0376 115.03 61.16L125 96.72C125.384 98.1004 125.205 99.577 124.502 100.826C123.799 102.074 122.63 102.993 121.25 103.38L82 114.33C81.5257 114.469 81.0342 114.54 80.54 114.54V114.54Z" fill="#2C2627"/>
<path d="M69.3626 49.9108C69.1114 49.0118 68.1791 48.4867 67.2801 48.7379C66.3812 48.989 65.8561 49.9214 66.1072 50.8203L67.3881 55.4047C67.6392 56.3037 68.5716 56.8288 69.4705 56.5776C70.3694 56.3265 70.8946 55.3941 70.6434 54.4952L69.3626 49.9108Z" fill="white"/>
<path d="M69 56.94C68.6496 56.9424 68.3048 56.8527 68 56.68C67.7603 56.5561 67.5482 56.3851 67.3763 56.1772C67.2045 55.9692 67.0765 55.7287 67 55.47L65.72 50.89C65.5781 50.3781 65.6454 49.8308 65.907 49.3685C66.1686 48.9063 66.6031 48.5668 67.115 48.425C67.6269 48.2831 68.1741 48.3503 68.6364 48.6119C69.0987 48.8736 69.4381 49.3081 69.58 49.82L70.85 54.4C70.9917 54.9091 70.9261 55.4537 70.6675 55.9147C70.4089 56.3756 69.9784 56.7155 69.47 56.86C69.3171 56.9053 69.1593 56.9321 69 56.94ZM67.72 48.94C67.5951 48.9418 67.4709 48.9586 67.35 48.99V48.99C66.9948 49.0922 66.6934 49.329 66.51 49.65C66.3445 49.956 66.3016 50.3135 66.39 50.65L67.67 55.23C67.7142 55.4083 67.7936 55.5759 67.9034 55.7232C68.0133 55.8704 68.1514 55.9942 68.3098 56.0874C68.4681 56.1805 68.6434 56.2411 68.8255 56.2656C69.0076 56.2901 69.1927 56.278 69.37 56.23C69.548 56.1834 69.7151 56.1023 69.8617 55.9911C70.0083 55.88 70.1315 55.741 70.2244 55.5822C70.3173 55.4234 70.378 55.2478 70.4029 55.0656C70.4279 54.8833 70.4167 54.6979 70.37 54.52L69.07 50C68.9717 49.6482 68.738 49.3497 68.42 49.17C68.2121 49.0548 67.9776 48.9962 67.74 49L67.72 48.94Z" fill="#2C2627"/>
<path d="M102.057 40.7715C101.806 39.8726 100.874 39.3474 99.9749 39.5986C99.076 39.8497 98.5508 40.7821 98.802 41.681L100.083 46.2654C100.334 47.1644 101.266 47.6895 102.165 47.4383C103.064 47.1872 103.589 46.2549 103.338 45.3559L102.057 40.7715Z" fill="white"/>
<path d="M101.7 47.8C101.265 47.7988 100.842 47.6555 100.495 47.392C100.149 47.1285 99.8975 46.7592 99.78 46.34L98.5 41.76C98.3587 41.2495 98.4256 40.7038 98.6862 40.2426C98.9468 39.7814 99.3797 39.4424 99.89 39.3C100.399 39.1583 100.944 39.2239 101.405 39.4825C101.866 39.7411 102.205 40.1716 102.35 40.68L103.63 45.26C103.713 45.5576 103.727 45.8706 103.669 46.1742C103.611 46.4778 103.484 46.7639 103.297 47.01C103.11 47.2561 102.868 47.4556 102.591 47.5926C102.314 47.7297 102.009 47.8007 101.7 47.8V47.8ZM100.43 39.8C100.307 39.7806 100.183 39.7806 100.06 39.8C99.8817 39.8442 99.714 39.9236 99.5668 40.0334C99.4195 40.1433 99.2957 40.2815 99.2026 40.4398C99.1094 40.5981 99.0489 40.7735 99.0244 40.9555C98.9999 41.1376 99.012 41.3227 99.06 41.5L100.34 46.08C100.38 46.2709 100.459 46.4513 100.573 46.6097C100.686 46.7682 100.832 46.9011 101 47C101.239 47.1278 101.509 47.183 101.779 47.1591C102.049 47.1352 102.305 47.033 102.518 46.8653C102.73 46.6975 102.889 46.4713 102.974 46.2146C103.06 45.9579 103.069 45.6817 103 45.42L101.72 40.84C101.637 40.5513 101.463 40.2975 101.223 40.117C100.983 39.9365 100.69 39.8393 100.39 39.84L100.43 39.8Z" fill="#2C2627"/>
<path d="M80.2602 46.8629C80.009 45.964 79.0767 45.4389 78.1778 45.69C77.2788 45.9412 76.7537 46.8735 77.0049 47.7724L78.2857 52.3569C78.5369 53.2558 79.4692 53.7809 80.3681 53.5298C81.2671 53.2786 81.7922 52.3463 81.5411 51.4474L80.2602 46.8629Z" fill="white"/>
<path d="M79.92 53.89C79.4847 53.8887 79.0617 53.7455 78.7152 53.482C78.3686 53.2185 78.1176 52.8491 78 52.43L76.72 47.85C76.5787 47.3395 76.6457 46.7937 76.9063 46.3325C77.1669 45.8713 77.5998 45.5324 78.11 45.39V45.39C78.6192 45.2483 79.1638 45.3139 79.6247 45.5725C80.0857 45.8311 80.4255 46.2616 80.57 46.77L81.85 51.35C81.9215 51.6034 81.9422 51.8685 81.911 52.13C81.8798 52.3915 81.7972 52.6442 81.6681 52.8737C81.5389 53.1032 81.3657 53.3049 81.1584 53.4673C80.9511 53.6297 80.7138 53.7496 80.46 53.82C80.284 53.8678 80.1024 53.8914 79.92 53.89ZM78.26 46C78.0817 46.0442 77.914 46.1236 77.7668 46.2334C77.6196 46.3433 77.4958 46.4814 77.4026 46.6398C77.3095 46.7981 77.2489 46.9734 77.2244 47.1555C77.1999 47.3376 77.212 47.5227 77.26 47.7L78.54 52.28C78.6605 52.6075 78.8997 52.8777 79.2101 53.037C79.5206 53.1962 79.8796 53.2329 80.2158 53.1397C80.5521 53.0465 80.841 52.8303 81.0252 52.5339C81.2094 52.2376 81.2753 51.8828 81.21 51.54L80 46.94C79.9559 46.7606 79.8762 46.5919 79.7657 46.4439C79.6552 46.2958 79.516 46.1715 79.3566 46.0782C79.1971 45.985 79.0205 45.9247 78.8373 45.9009C78.6541 45.8772 78.468 45.8905 78.29 45.94L78.26 46Z" fill="#2C2627"/>
<path d="M91.1601 43.822C90.9089 42.9231 89.9766 42.398 89.0777 42.6491C88.1787 42.9003 87.6536 43.8326 87.9048 44.7315L89.1856 49.316C89.4368 50.2149 90.3691 50.74 91.268 50.4889C92.167 50.2377 92.6921 49.3054 92.441 48.4065L91.1601 43.822Z" fill="white"/>
<path d="M90.81 50.84C90.3747 50.8387 89.9517 50.6955 89.6051 50.432C89.2586 50.1685 89.0076 49.7991 88.89 49.38L87.61 44.81C87.4661 44.2995 87.5308 43.7527 87.79 43.29C88.0482 42.8267 88.4799 42.485 88.99 42.34V42.34C89.2435 42.2685 89.5085 42.2478 89.77 42.279C90.0315 42.3102 90.2842 42.3928 90.5137 42.5219C90.7432 42.6511 90.945 42.8243 91.1073 43.0316C91.2697 43.2389 91.3896 43.4762 91.46 43.73L92.74 48.31C92.8216 48.607 92.8336 48.9188 92.7749 49.2211C92.7162 49.5234 92.5885 49.8081 92.4017 50.053C92.2149 50.2979 91.974 50.4963 91.698 50.6328C91.4219 50.7693 91.118 50.8402 90.81 50.84V50.84ZM89.53 42.84C89.4071 42.8254 89.2829 42.8254 89.16 42.84V42.84C88.982 42.8865 88.8149 42.9677 88.6683 43.0788C88.5217 43.19 88.3985 43.3289 88.3056 43.4877C88.2127 43.6465 88.1521 43.8221 88.1271 44.0044C88.1021 44.1866 88.1133 44.372 88.16 44.55L89.44 49.13C89.4893 49.3046 89.5724 49.4679 89.6848 49.6104C89.7971 49.7529 89.9364 49.8719 90.0947 49.9606C90.2531 50.0493 90.4273 50.1059 90.6075 50.1272C90.7877 50.1486 90.9704 50.1342 91.145 50.085C91.3197 50.0357 91.4829 49.9526 91.6254 49.8402C91.768 49.7279 91.887 49.5886 91.9756 49.4303C92.0643 49.2719 92.1209 49.0977 92.1423 48.9175C92.1636 48.7373 92.1493 48.5546 92.1 48.38L90.83 43.8C90.7274 43.4475 90.4903 43.1494 90.17 42.97C89.967 42.889 89.7475 42.8581 89.53 42.88V42.84Z" fill="#2C2627"/>
<path d="M182.77 22.64H143.97C137.343 22.64 131.97 28.0126 131.97 34.64V120.46C131.97 127.087 137.343 132.46 143.97 132.46H182.77C189.397 132.46 194.77 127.087 194.77 120.46V34.64C194.77 28.0126 189.397 22.64 182.77 22.64Z" fill="white"/>
<path d="M184.93 132.94H141.82C139.082 132.935 136.458 131.845 134.521 129.909C132.585 127.972 131.495 125.348 131.49 122.61V32.48C131.495 29.7429 132.586 27.1195 134.522 25.185C136.458 23.2505 139.083 22.1627 141.82 22.16H184.93C187.666 22.1627 190.29 23.2508 192.224 25.1856C194.159 27.1204 195.247 29.7438 195.25 32.48V110.48C195.251 110.543 195.24 110.606 195.216 110.665C195.193 110.724 195.157 110.778 195.112 110.822C195.068 110.867 195.014 110.903 194.955 110.926C194.896 110.95 194.833 110.961 194.77 110.96C194.643 110.96 194.521 110.909 194.431 110.819C194.341 110.729 194.29 110.607 194.29 110.48V32.48C194.287 29.9984 193.3 27.6192 191.546 25.8644C189.791 24.1097 187.412 23.1227 184.93 23.12H141.82C139.337 23.1227 136.957 24.1093 135.201 25.8638C133.444 27.6183 132.455 29.9975 132.45 32.48V122.61C132.455 125.093 133.444 127.474 135.2 129.23C136.956 130.986 139.337 131.975 141.82 131.98H184.93C187.413 131.975 189.792 130.986 191.546 129.229C193.301 127.473 194.287 125.093 194.29 122.61V112.36C194.293 112.234 194.344 112.113 194.433 112.023C194.523 111.934 194.643 111.883 194.77 111.88C194.897 111.88 195.019 111.931 195.109 112.021C195.199 112.111 195.25 112.233 195.25 112.36V122.61C195.247 125.347 194.16 127.972 192.225 129.908C190.29 131.844 187.667 132.935 184.93 132.94V132.94Z" fill="#2C2627"/>
<path d="M185.54 39.08H141.21C139.553 39.08 138.21 40.4231 138.21 42.08V113.01C138.21 114.667 139.553 116.01 141.21 116.01H185.54C187.197 116.01 188.54 114.667 188.54 113.01V42.08C188.54 40.4231 187.197 39.08 185.54 39.08Z" fill="#E6EBEF"/>
<path d="M168.27 30.71H158.48C158.453 30.7114 158.426 30.7072 158.4 30.6978C158.375 30.6883 158.352 30.6738 158.332 30.6551C158.312 30.6364 158.297 30.6139 158.286 30.589C158.275 30.564 158.27 30.5372 158.27 30.51C158.27 30.4825 158.275 30.4552 158.286 30.4297C158.297 30.4042 158.312 30.3811 158.332 30.3616C158.351 30.3421 158.374 30.3266 158.4 30.316C158.425 30.3055 158.452 30.3 158.48 30.3H168.27C168.301 30.2932 168.333 30.2934 168.363 30.3005C168.394 30.3076 168.422 30.3216 168.447 30.3412C168.472 30.3609 168.491 30.3858 168.505 30.4142C168.519 30.4426 168.526 30.4736 168.526 30.505C168.526 30.5365 168.519 30.5675 168.505 30.5959C168.491 30.6242 168.472 30.6492 168.447 30.6689C168.422 30.6885 168.394 30.7024 168.363 30.7096C168.333 30.7167 168.301 30.7169 168.27 30.71Z" fill="#2C2627"/>
<path d="M169.74 123.51H157C156.969 123.517 156.937 123.517 156.907 123.509C156.876 123.502 156.848 123.488 156.823 123.469C156.799 123.449 156.779 123.424 156.765 123.396C156.752 123.367 156.744 123.336 156.744 123.305C156.744 123.274 156.752 123.242 156.765 123.214C156.779 123.186 156.799 123.161 156.823 123.141C156.848 123.121 156.876 123.108 156.907 123.1C156.937 123.093 156.969 123.093 157 123.1H169.73C169.757 123.1 169.784 123.105 169.809 123.116C169.834 123.127 169.856 123.142 169.875 123.162C169.894 123.182 169.908 123.205 169.918 123.23C169.927 123.256 169.931 123.283 169.93 123.31C169.93 123.361 169.91 123.411 169.875 123.448C169.84 123.485 169.791 123.507 169.74 123.51Z" fill="#2C2627"/>
<path d="M147.88 94.2H179.06V74.01L163.56 60.33L147.88 74.01V94.2Z" fill="white"/>
<path d="M151.71 67.91H155.15V58.87H151.71V67.91Z" fill="white"/>
<path d="M146.35 76.07C146.697 76.0677 147.03 75.9316 147.28 75.69L163.55 60.33L179.46 75.68C179.591 75.8035 179.746 75.8999 179.914 75.9636C180.083 76.0274 180.262 76.0574 180.442 76.0518C180.623 76.0463 180.8 76.0053 180.964 75.9312C181.128 75.8571 181.277 75.7514 181.4 75.62C181.523 75.4887 181.62 75.3344 181.684 75.1658C181.747 74.9972 181.777 74.8178 181.772 74.6376C181.766 74.4575 181.725 74.2802 181.651 74.1159C181.577 73.9516 181.471 73.8035 181.34 73.68L164.51 57.47C164.257 57.228 163.92 57.0929 163.57 57.0929C163.22 57.0929 162.883 57.228 162.63 57.47L145.42 73.72C145.158 73.9669 145.004 74.3077 144.993 74.6676C144.982 75.0276 145.114 75.3773 145.36 75.64C145.488 75.7746 145.641 75.882 145.811 75.9558C145.981 76.0297 146.165 76.0686 146.35 76.07V76.07Z" fill="#BAC2CA"/>
<path d="M146.35 76.37C146.016 76.3727 145.689 76.2747 145.412 76.0887C145.134 75.9027 144.92 75.6374 144.795 75.3275C144.671 75.0175 144.643 74.6773 144.716 74.3513C144.788 74.0252 144.957 73.7286 145.2 73.5L162.42 57.23C162.729 56.933 163.141 56.7671 163.57 56.7671C163.999 56.7671 164.411 56.933 164.72 57.23L172.45 64.7C172.479 64.7288 172.502 64.7631 172.518 64.8008C172.534 64.8386 172.542 64.8791 172.542 64.92C172.542 64.9609 172.534 65.0014 172.518 65.0391C172.502 65.0769 172.479 65.1112 172.45 65.14C172.422 65.1687 172.389 65.1915 172.352 65.2071C172.315 65.2227 172.275 65.2307 172.235 65.2307C172.195 65.2307 172.155 65.2227 172.118 65.2071C172.081 65.1915 172.048 65.1687 172.02 65.14L164.3 57.67C164.102 57.4851 163.841 57.3823 163.57 57.3823C163.299 57.3823 163.038 57.4851 162.84 57.67L145.63 73.94C145.53 74.0345 145.449 74.1479 145.392 74.2737C145.335 74.3995 145.304 74.5353 145.3 74.6731C145.296 74.811 145.319 74.9484 145.368 75.0774C145.417 75.2064 145.49 75.3245 145.585 75.425C145.68 75.5254 145.793 75.6063 145.919 75.6629C146.045 75.7195 146.18 75.7508 146.318 75.755C146.456 75.7592 146.593 75.7362 146.722 75.6873C146.851 75.6384 146.97 75.5645 147.07 75.47L163.56 59.9L179.67 75.46C179.868 75.656 180.136 75.7659 180.415 75.7659C180.694 75.7659 180.962 75.656 181.16 75.46C181.356 75.2616 181.466 74.9939 181.466 74.715C181.466 74.4361 181.356 74.1684 181.16 73.97L172.83 65.97C172.795 65.9434 172.766 65.9097 172.745 65.871C172.724 65.8324 172.712 65.7898 172.708 65.7459C172.705 65.7021 172.711 65.6581 172.726 65.6168C172.741 65.5755 172.765 65.5379 172.796 65.5065C172.827 65.475 172.864 65.4505 172.905 65.4345C172.945 65.4184 172.989 65.4113 173.033 65.4135C173.077 65.4157 173.12 65.4273 173.159 65.4474C173.198 65.4674 173.233 65.4956 173.26 65.53L181.59 73.58C181.748 73.7317 181.874 73.9132 181.962 74.114C182.049 74.3148 182.096 74.5309 182.1 74.75C182.101 75.0782 182.006 75.3995 181.826 75.6743C181.647 75.9491 181.391 76.1652 181.09 76.296C180.789 76.4269 180.456 76.4667 180.133 76.4105C179.809 76.3543 179.509 76.2047 179.27 75.98L163.55 60.75L147.49 75.92C147.182 76.2108 146.774 76.3719 146.35 76.37Z" fill="black"/>
<path d="M174.44 76.0699H165.4V94.2299H174.44V76.0699Z" fill="#DAD3E4"/>
<path d="M174.74 94.53H165.09V75.76H174.74V94.53ZM165.74 93.92H174.17V76.37H165.7L165.74 93.92Z" fill="#2C2627"/>
<path d="M151.24 59.5H155.62C156.1 59.5 156.49 59.1105 156.49 58.63V58.33C156.49 57.8495 156.1 57.46 155.62 57.46H151.24C150.76 57.46 150.37 57.8495 150.37 58.33V58.63C150.37 59.1105 150.76 59.5 151.24 59.5Z" fill="white"/>
<path d="M155.62 59.8H151.24C150.927 59.8 150.627 59.6757 150.406 59.4544C150.184 59.2331 150.06 58.933 150.06 58.62V58.33C150.06 58.0171 150.184 57.7169 150.406 57.4956C150.627 57.2743 150.927 57.15 151.24 57.15H155.62C155.933 57.15 156.233 57.2743 156.454 57.4956C156.676 57.7169 156.8 58.0171 156.8 58.33V58.62C156.8 58.933 156.676 59.2331 156.454 59.4544C156.233 59.6757 155.933 59.8 155.62 59.8V59.8ZM151.24 57.8C151.091 57.8026 150.948 57.8639 150.843 57.9705C150.739 58.0771 150.68 58.2206 150.68 58.37V58.66C150.68 58.8095 150.739 58.953 150.843 59.0596C150.948 59.1662 151.091 59.2274 151.24 59.23H155.62C155.769 59.2274 155.912 59.1662 156.017 59.0596C156.121 58.953 156.18 58.8095 156.18 58.66V58.37C156.18 58.2206 156.121 58.0771 156.017 57.9705C155.912 57.8639 155.769 57.8026 155.62 57.8H151.24Z" fill="#2C2627"/>
<path d="M183.36 94.51H153.54C153.458 94.51 153.379 94.4773 153.321 94.4192C153.263 94.361 153.23 94.2822 153.23 94.2C153.23 94.1597 153.238 94.1199 153.254 94.0828C153.269 94.0457 153.292 94.0122 153.321 93.9842C153.35 93.9562 153.385 93.9343 153.422 93.9199C153.46 93.9054 153.5 93.8986 153.54 93.9H183.36C183.4 93.8986 183.439 93.9054 183.476 93.9199C183.513 93.9345 183.547 93.9566 183.575 93.9847C183.603 94.0129 183.625 94.0465 183.64 94.0835C183.655 94.1206 183.661 94.1602 183.66 94.2C183.661 94.2402 183.655 94.2803 183.64 94.3178C183.626 94.3554 183.604 94.3897 183.576 94.4186C183.548 94.4475 183.514 94.4705 183.477 94.4862C183.44 94.5019 183.4 94.51 183.36 94.51V94.51Z" fill="#2C2627"/>
<path d="M152.16 94.5099H143.46C143.378 94.5099 143.299 94.4773 143.241 94.4192C143.183 94.361 143.15 94.2822 143.15 94.1999C143.15 94.1597 143.158 94.1199 143.174 94.0828C143.189 94.0457 143.212 94.0122 143.241 93.9842C143.27 93.9562 143.305 93.9343 143.342 93.9198C143.38 93.9054 143.42 93.8986 143.46 93.8999H152.16C152.2 93.8986 152.24 93.9054 152.278 93.9198C152.315 93.9343 152.35 93.9562 152.379 93.9842C152.408 94.0122 152.431 94.0457 152.446 94.0828C152.462 94.1199 152.47 94.1597 152.47 94.1999C152.47 94.2822 152.437 94.361 152.379 94.4192C152.321 94.4773 152.242 94.5099 152.16 94.5099V94.5099Z" fill="#2C2627"/>
<path d="M159.78 78.0601H153.54V87.6701H159.78V78.0601Z" fill="#E6EBEF"/>
<path opacity="0.7" d="M156.17 87.6601H153.29L157.47 78.0601H160.36L156.17 87.6601Z" fill="white"/>
<path d="M159.91 88.06H152.91C152.869 88.06 152.829 88.052 152.791 88.0364C152.754 88.0208 152.72 87.998 152.691 87.9692C152.662 87.9404 152.639 87.9063 152.624 87.8687C152.608 87.831 152.6 87.7907 152.6 87.75V85.81C152.6 85.7278 152.633 85.649 152.691 85.5908C152.749 85.5327 152.828 85.5 152.91 85.5C152.992 85.5 153.071 85.5327 153.129 85.5908C153.187 85.649 153.22 85.7278 153.22 85.81V87.44H159.57V77.76H153.22V84.76C153.22 84.8422 153.187 84.9211 153.129 84.9792C153.071 85.0374 152.992 85.07 152.91 85.07C152.828 85.07 152.749 85.0374 152.691 84.9792C152.633 84.9211 152.6 84.8422 152.6 84.76V77.46C152.6 77.4193 152.608 77.379 152.624 77.3414C152.639 77.3038 152.662 77.2696 152.691 77.2408C152.72 77.212 152.754 77.1892 152.791 77.1736C152.829 77.158 152.869 77.15 152.91 77.15H159.91C159.95 77.15 159.99 77.1581 160.027 77.1738C160.064 77.1895 160.098 77.2125 160.126 77.2414C160.154 77.2703 160.176 77.3046 160.19 77.3421C160.205 77.3797 160.211 77.4198 160.21 77.46V87.75C160.211 87.7903 160.205 87.8303 160.19 87.8679C160.176 87.9055 160.154 87.9397 160.126 87.9687C160.098 87.9976 160.064 88.0206 160.027 88.0363C159.99 88.052 159.95 88.06 159.91 88.06V88.06Z" fill="black"/>
<path d="M156.55 87.07C156.497 87.07 156.446 87.0489 156.409 87.0114C156.371 86.9739 156.35 86.923 156.35 86.87V84.46C156.349 84.4329 156.353 84.4058 156.362 84.3804C156.372 84.355 156.386 84.3317 156.405 84.3121C156.424 84.2924 156.446 84.2768 156.471 84.2661C156.496 84.2555 156.523 84.25 156.55 84.25C156.578 84.25 156.605 84.2554 156.63 84.266C156.656 84.2765 156.679 84.292 156.698 84.3115C156.718 84.331 156.733 84.3542 156.744 84.3796C156.755 84.4051 156.76 84.4324 156.76 84.46V86.87C156.757 86.9239 156.734 86.9748 156.695 87.0121C156.656 87.0493 156.604 87.0701 156.55 87.07V87.07Z" fill="black"/>
<path d="M156.55 83.88C156.496 83.8774 156.445 83.8542 156.408 83.8151C156.371 83.776 156.35 83.724 156.35 83.67V77.46C156.349 77.4329 156.353 77.4058 156.362 77.3804C156.372 77.355 156.386 77.3317 156.405 77.3121C156.424 77.2924 156.446 77.2768 156.471 77.2661C156.496 77.2555 156.523 77.25 156.55 77.25C156.578 77.25 156.605 77.2554 156.63 77.266C156.656 77.2765 156.679 77.292 156.698 77.3115C156.718 77.331 156.733 77.3542 156.744 77.3796C156.755 77.4051 156.76 77.4324 156.76 77.46V83.67C156.758 83.7249 156.735 83.7769 156.696 83.8158C156.657 83.8546 156.605 83.8776 156.55 83.88Z" fill="black"/>
<path d="M159.9 83H154.29C154.237 83 154.186 82.9789 154.149 82.9414C154.111 82.9039 154.09 82.853 154.09 82.8C154.09 82.746 154.111 82.694 154.148 82.6549C154.185 82.6158 154.236 82.5925 154.29 82.59H159.9C159.954 82.5925 160.005 82.6158 160.042 82.6549C160.079 82.694 160.1 82.746 160.1 82.8C160.1 82.853 160.079 82.9039 160.041 82.9414C160.004 82.9789 159.953 83 159.9 83V83Z" fill="black"/>
<path d="M172.44 81.65H167.39V81.45C167.368 81.105 167.417 80.7593 167.535 80.4341C167.652 80.1089 167.834 79.8111 168.071 79.5591C168.307 79.3072 168.593 79.1064 168.91 78.9691C169.227 78.8318 169.569 78.761 169.915 78.761C170.261 78.761 170.603 78.8318 170.92 78.9691C171.237 79.1064 171.523 79.3072 171.759 79.5591C171.996 79.8111 172.178 80.1089 172.295 80.4341C172.413 80.7593 172.462 81.105 172.44 81.45V81.65ZM167.81 81.24H172C171.963 80.7068 171.725 80.2074 171.335 79.8427C170.944 79.478 170.429 79.2751 169.895 79.2751C169.361 79.2751 168.846 79.478 168.455 79.8427C168.065 80.2074 167.827 80.7068 167.79 81.24H167.81Z" fill="black"/>
<path d="M151.71 62.88C151.669 62.88 151.629 62.872 151.591 62.8564C151.554 62.8408 151.52 62.818 151.491 62.7892C151.462 62.7604 151.439 62.7262 151.424 62.6886C151.408 62.651 151.4 62.6107 151.4 62.57V59.49C151.4 59.4497 151.408 59.4099 151.424 59.3728C151.439 59.3358 151.462 59.3022 151.491 59.2743C151.52 59.2463 151.555 59.2244 151.592 59.2099C151.63 59.1954 151.67 59.1887 151.71 59.19C151.75 59.1886 151.789 59.1954 151.826 59.21C151.863 59.2246 151.897 59.2466 151.925 59.2748C151.953 59.3029 151.975 59.3365 151.99 59.3736C152.005 59.4106 152.011 59.4502 152.01 59.49V62.57C152.011 62.6102 152.005 62.6503 151.99 62.6879C151.976 62.7254 151.954 62.7597 151.926 62.7886C151.898 62.8176 151.864 62.8405 151.827 62.8562C151.79 62.8719 151.75 62.88 151.71 62.88V62.88Z" fill="black"/>
<path d="M151.71 67.87C151.628 67.87 151.549 67.8373 151.491 67.7792C151.433 67.7211 151.4 67.6422 151.4 67.56V63.8C151.4 63.7178 151.433 63.6389 151.491 63.5808C151.549 63.5226 151.628 63.49 151.71 63.49C151.75 63.49 151.79 63.498 151.827 63.5137C151.864 63.5294 151.898 63.5524 151.926 63.5814C151.954 63.6103 151.976 63.6446 151.99 63.6821C152.005 63.7197 152.011 63.7598 152.01 63.8V67.56C152.011 67.6002 152.005 67.6403 151.99 67.6779C151.976 67.7154 151.954 67.7497 151.926 67.7786C151.898 67.8075 151.864 67.8305 151.827 67.8462C151.79 67.8619 151.75 67.87 151.71 67.87V67.87Z" fill="black"/>
<path d="M155.15 64.83C155.068 64.83 154.989 64.7973 154.931 64.7392C154.873 64.681 154.84 64.6022 154.84 64.52V59.52C154.84 59.4377 154.873 59.3589 154.931 59.3008C154.989 59.2426 155.068 59.21 155.15 59.21C155.232 59.21 155.311 59.2426 155.369 59.3008C155.427 59.3589 155.46 59.4377 155.46 59.52V64.52C155.46 64.6022 155.427 64.681 155.369 64.7392C155.311 64.7973 155.232 64.83 155.15 64.83V64.83Z" fill="black"/>
<path d="M147.88 94.5099C147.798 94.5099 147.719 94.4773 147.661 94.4192C147.603 94.361 147.57 94.2822 147.57 94.1999V75.1299C147.57 75.0477 147.603 74.9689 147.661 74.9107C147.719 74.8526 147.798 74.8199 147.88 74.8199C147.962 74.8199 148.041 74.8526 148.099 74.9107C148.157 74.9689 148.19 75.0477 148.19 75.1299V94.1999C148.19 94.2822 148.157 94.361 148.099 94.4192C148.041 94.4773 147.962 94.5099 147.88 94.5099V94.5099Z" fill="black"/>
<path d="M179.06 78.36C179.02 78.3613 178.98 78.3545 178.942 78.3401C178.905 78.3256 178.87 78.3037 178.841 78.2757C178.812 78.2477 178.789 78.2142 178.774 78.1771C178.758 78.1401 178.75 78.1002 178.75 78.06V75.53C178.75 75.4478 178.783 75.3689 178.841 75.3108C178.899 75.2526 178.978 75.22 179.06 75.22C179.142 75.22 179.221 75.2526 179.279 75.3108C179.337 75.3689 179.37 75.4478 179.37 75.53V78.06C179.37 78.1002 179.362 78.1401 179.346 78.1771C179.331 78.2142 179.308 78.2477 179.279 78.2757C179.25 78.3037 179.215 78.3256 179.178 78.3401C179.14 78.3545 179.1 78.3613 179.06 78.36V78.36Z" fill="black"/>
<path d="M179.06 94.51C178.978 94.51 178.899 94.4773 178.841 94.4192C178.783 94.361 178.75 94.2822 178.75 94.2V79.52C178.75 79.4377 178.783 79.3589 178.841 79.3008C178.899 79.2426 178.978 79.21 179.06 79.21C179.142 79.21 179.221 79.2426 179.279 79.3008C179.337 79.3589 179.37 79.4377 179.37 79.52V94.2C179.37 94.2822 179.337 94.361 179.279 94.4192C179.221 94.4773 179.142 94.51 179.06 94.51V94.51Z" fill="black"/>
<path opacity="0.7" d="M153.72 116.01H143.53L177.07 39.22H187.26L153.72 116.01Z" fill="white"/>
<path d="M186.08 116.32H140.67C139.936 116.317 139.233 116.025 138.714 115.506C138.195 114.987 137.903 114.284 137.9 113.55V41.55C137.903 40.8162 138.195 40.1132 138.714 39.5943C139.233 39.0754 139.936 38.7827 140.67 38.78H146.43C146.512 38.78 146.591 38.8127 146.649 38.8708C146.707 38.929 146.74 39.0078 146.74 39.09C146.74 39.1722 146.707 39.2511 146.649 39.3092C146.591 39.3674 146.512 39.4 146.43 39.4H140.67C140.1 39.4 139.553 39.6265 139.15 40.0298C138.747 40.433 138.52 40.9798 138.52 41.55V113.55C138.52 114.121 138.746 114.669 139.149 115.074C139.552 115.479 140.099 115.707 140.67 115.71H186.08C186.651 115.707 187.198 115.479 187.601 115.074C188.004 114.669 188.23 114.121 188.23 113.55V41.55C188.23 40.9798 188.004 40.433 187.6 40.0298C187.197 39.6265 186.65 39.4 186.08 39.4H148.88C148.839 39.4 148.799 39.392 148.761 39.3764C148.724 39.3609 148.69 39.338 148.661 39.3092C148.632 39.2804 148.609 39.2463 148.594 39.2087C148.578 39.1711 148.57 39.1307 148.57 39.09C148.57 39.0493 148.578 39.009 148.594 38.9714C148.609 38.9338 148.632 38.8996 148.661 38.8708C148.69 38.842 148.724 38.8192 148.761 38.8036C148.799 38.788 148.839 38.78 148.88 38.78H186.08C186.814 38.7827 187.517 39.0754 188.036 39.5943C188.555 40.1132 188.847 40.8162 188.85 41.55V113.55C188.847 114.284 188.555 114.987 188.036 115.506C187.517 116.025 186.814 116.317 186.08 116.32V116.32Z" fill="#2C2627"/>
<path d="M259.37 54.72L231.25 43.12C230.234 42.7028 229.094 42.7054 228.08 43.1271C227.066 43.5489 226.26 44.3554 225.84 45.37L204.68 96.67C204.471 97.1727 204.363 97.7119 204.363 98.2565C204.363 98.801 204.47 99.3402 204.68 99.843C204.889 100.346 205.195 100.802 205.581 101.186C205.968 101.57 206.426 101.874 206.93 102.08L246 118.2C246.503 118.409 247.042 118.517 247.586 118.517C248.131 118.517 248.67 118.41 249.173 118.2C249.676 117.991 250.132 117.685 250.516 117.299C250.9 116.912 251.204 116.454 251.41 115.95L268 75.67L259.37 54.72Z" fill="white"/>
<path d="M221.09 57.18C221.054 57.1903 221.016 57.1903 220.98 57.18C220.942 57.1657 220.907 57.1439 220.878 57.1158C220.848 57.0876 220.825 57.0539 220.809 57.0165C220.793 56.979 220.785 56.9388 220.785 56.8982C220.785 56.8575 220.794 56.8173 220.81 56.78L221.7 54.63C221.711 54.5873 221.731 54.5474 221.759 54.513C221.786 54.4786 221.821 54.4505 221.86 54.4306C221.9 54.4107 221.943 54.3995 221.987 54.3976C222.031 54.3958 222.075 54.4033 222.116 54.4199C222.157 54.4364 222.194 54.4614 222.225 54.4934C222.255 54.5253 222.278 54.5634 222.293 54.6051C222.307 54.6467 222.313 54.691 222.309 54.735C222.305 54.779 222.292 54.8216 222.27 54.86L221.38 57C221.355 57.0551 221.314 57.1015 221.262 57.1335C221.21 57.1655 221.151 57.1817 221.09 57.18V57.18Z" fill="#2C2627"/>
<path d="M250.49 86.0001H250.37L226.08 76.0001C226.007 75.9671 225.949 75.907 225.919 75.8324C225.889 75.7578 225.89 75.6745 225.92 75.6001C225.934 75.562 225.956 75.5272 225.984 75.4979C226.012 75.4685 226.046 75.4452 226.084 75.4293C226.121 75.4134 226.161 75.4053 226.202 75.4054C226.242 75.4055 226.283 75.4139 226.32 75.4301L250.61 85.4301C250.685 85.4611 250.745 85.5205 250.777 85.5953C250.809 85.6701 250.81 85.7544 250.78 85.8301C250.753 85.8833 250.711 85.9276 250.66 85.9578C250.609 85.9879 250.55 86.0026 250.49 86.0001V86.0001Z" fill="#2C2627"/>
<path d="M243.06 64.79H242.94L232.47 60.46C232.395 60.429 232.335 60.3696 232.303 60.2948C232.271 60.22 232.27 60.1357 232.3 60.06C232.333 59.9865 232.393 59.9282 232.467 59.8967C232.541 59.8652 232.624 59.8628 232.7 59.89L243.18 64.22C243.255 64.2511 243.315 64.3104 243.347 64.3853C243.379 64.4601 243.38 64.5444 243.35 64.62C243.323 64.6733 243.281 64.7176 243.23 64.7478C243.179 64.7779 243.12 64.7926 243.06 64.79V64.79Z" fill="#2C2627"/>
<path d="M241.75 68H241.63L231.16 63.67C231.122 63.6557 231.087 63.6339 231.058 63.6057C231.028 63.5776 231.005 63.5438 230.989 63.5064C230.973 63.469 230.965 63.4288 230.965 63.3881C230.965 63.3475 230.974 63.3073 230.99 63.27C231.005 63.2328 231.028 63.1991 231.056 63.1708C231.085 63.1425 231.119 63.1202 231.156 63.1053C231.193 63.0904 231.233 63.0831 231.274 63.0839C231.314 63.0847 231.353 63.0936 231.39 63.11L241.87 67.43C241.933 67.4596 241.984 67.5094 242.015 67.5714C242.046 67.6334 242.055 67.7041 242.041 67.772C242.027 67.84 241.991 67.9013 241.938 67.9463C241.886 67.9912 241.819 68.0172 241.75 68.02V68Z" fill="#2C2627"/>
<path d="M249 89.5899H248.89L224.6 79.5899C224.562 79.5757 224.527 79.5538 224.498 79.5257C224.468 79.4976 224.445 79.4638 224.429 79.4264C224.413 79.389 224.405 79.3487 224.405 79.3081C224.405 79.2674 224.414 79.2273 224.43 79.19C224.461 79.1148 224.52 79.0549 224.595 79.0231C224.67 78.9913 224.754 78.9902 224.83 79.0199L249.12 89.0199C249.195 89.051 249.255 89.1104 249.287 89.1852C249.319 89.26 249.32 89.3443 249.29 89.4199C249.263 89.4732 249.221 89.5175 249.17 89.5477C249.119 89.5778 249.06 89.5925 249 89.5899V89.5899Z" fill="#2C2627"/>
<path d="M247.37 93.52C247.331 93.5297 247.289 93.5297 247.25 93.52L223 83.48C222.962 83.4657 222.927 83.4438 222.898 83.4157C222.868 83.3876 222.845 83.3538 222.829 83.3164C222.813 83.279 222.805 83.2387 222.805 83.1981C222.805 83.1575 222.814 83.1173 222.83 83.08C222.861 83.0048 222.92 82.9449 222.995 82.9131C223.07 82.8813 223.154 82.8802 223.23 82.91L247.52 92.91C247.583 92.9396 247.634 92.9894 247.665 93.0514C247.696 93.1134 247.705 93.184 247.691 93.252C247.677 93.32 247.641 93.3813 247.588 93.4263C247.536 93.4712 247.469 93.4972 247.4 93.5L247.37 93.52Z" fill="#2C2627"/>
<path d="M245.87 97.16C245.834 97.1703 245.796 97.1703 245.76 97.16L221.47 87.16C221.432 87.1458 221.397 87.1239 221.368 87.0958C221.338 87.0677 221.315 87.0339 221.299 86.9965C221.283 86.9591 221.275 86.9188 221.275 86.8782C221.275 86.8375 221.284 86.7973 221.3 86.76C221.331 86.6849 221.39 86.625 221.465 86.5932C221.54 86.5614 221.624 86.5602 221.7 86.59L245.99 96.59C246.066 96.6231 246.126 96.6843 246.158 96.7608C246.189 96.8372 246.19 96.923 246.16 97C246.13 97.0499 246.087 97.0909 246.037 97.119C245.986 97.1471 245.928 97.1613 245.87 97.16V97.16Z" fill="#2C2627"/>
<path d="M244.37 100.79H244.26L220 90.74C219.963 90.7249 219.93 90.7027 219.902 90.6747C219.873 90.6467 219.851 90.6134 219.836 90.5767C219.82 90.54 219.812 90.5007 219.812 90.461C219.812 90.4212 219.82 90.3818 219.835 90.345C219.85 90.3083 219.872 90.2748 219.9 90.2467C219.928 90.2185 219.962 90.1961 219.998 90.1807C220.035 90.1654 220.074 90.1575 220.114 90.1573C220.154 90.1572 220.193 90.1649 220.23 90.18L244.52 100.18C244.583 100.21 244.634 100.259 244.665 100.321C244.696 100.384 244.705 100.454 244.691 100.522C244.677 100.59 244.641 100.651 244.588 100.696C244.536 100.741 244.469 100.767 244.4 100.77L244.37 100.79Z" fill="#2C2627"/>
<path d="M268 75.67L257.05 71.15C256.547 70.9428 256.089 70.6385 255.704 70.2544C255.318 69.8703 255.012 69.4139 254.803 68.9115C254.594 68.409 254.487 67.8703 254.486 67.3261C254.485 66.7819 254.592 66.2429 254.8 65.74L259.34 54.74L268 75.67Z" fill="#E6EBEF"/>
<path d="M268 75.87L257 71.34C256.471 71.123 255.991 70.8037 255.586 70.4005C255.181 69.9972 254.859 69.518 254.64 68.9902C254.421 68.4625 254.308 67.8966 254.308 67.3251C254.308 66.7536 254.421 66.1878 254.64 65.66L259.18 54.66C259.2 54.6084 259.24 54.5669 259.29 54.5445C259.341 54.522 259.398 54.5204 259.45 54.54C259.476 54.5498 259.499 54.5647 259.518 54.5838C259.538 54.603 259.553 54.6259 259.563 54.6512C259.574 54.6765 259.579 54.7036 259.578 54.7309C259.578 54.7582 259.571 54.7852 259.56 54.81L255.02 65.81C254.814 66.2906 254.707 66.8074 254.703 67.3302C254.7 67.853 254.8 68.3712 255 68.8546C255.199 69.3379 255.493 69.7766 255.864 70.145C256.235 70.5134 256.675 70.804 257.16 71L268.11 75.52C268.135 75.5287 268.158 75.5426 268.178 75.5608C268.197 75.5789 268.212 75.601 268.223 75.6255C268.233 75.65 268.238 75.6764 268.238 75.703C268.237 75.7297 268.231 75.7559 268.22 75.78C268.197 75.8155 268.163 75.843 268.124 75.8591C268.085 75.8752 268.041 75.879 268 75.87V75.87Z" fill="black"/>
<path d="M247.58 119C246.976 118.997 246.379 118.878 245.82 118.65L206.74 102.53C205.619 102.059 204.727 101.166 204.258 100.043C203.788 98.9211 203.778 97.6595 204.23 96.53L220 58.27C220.024 58.2115 220.06 58.1585 220.105 58.1138C220.149 58.0691 220.203 58.0336 220.261 58.0095C220.32 57.9854 220.382 57.973 220.446 57.9731C220.509 57.9731 220.572 57.9857 220.63 58.01C220.688 58.0343 220.742 58.0698 220.786 58.1146C220.831 58.1595 220.866 58.2126 220.89 58.2711C220.915 58.3296 220.927 58.3923 220.927 58.4556C220.927 58.5189 220.914 58.5815 220.89 58.64L205.12 96.85C204.75 97.7502 204.75 98.7598 205.12 99.66C205.304 100.11 205.575 100.518 205.918 100.862C206.262 101.205 206.67 101.476 207.12 101.66L246.2 117.78C246.645 117.963 247.122 118.057 247.603 118.055C248.085 118.054 248.561 117.957 249.005 117.771C249.449 117.586 249.852 117.314 250.191 116.972C250.53 116.631 250.798 116.225 250.98 115.78L267.52 75.68L259 55.09L231.07 43.57C230.624 43.3854 230.147 43.2907 229.664 43.2914C229.182 43.292 228.704 43.3881 228.259 43.5739C227.814 43.7598 227.41 44.0318 227.07 44.3744C226.731 44.7169 226.462 45.1233 226.28 45.57L223 53.51C222.976 53.5684 222.94 53.6215 222.895 53.6662C222.851 53.7109 222.797 53.7463 222.739 53.7705C222.68 53.7946 222.618 53.807 222.554 53.8069C222.491 53.8068 222.428 53.7943 222.37 53.77C222.312 53.7457 222.258 53.7101 222.214 53.6653C222.169 53.6205 222.134 53.5673 222.11 53.5088C222.085 53.4503 222.073 53.3876 222.073 53.3244C222.073 53.2611 222.086 53.1984 222.11 53.14L225.39 45.14C225.861 44.0186 226.754 43.1273 227.877 42.6578C228.999 42.1883 230.261 42.1784 231.39 42.63L259.52 54.23C259.636 54.2813 259.729 54.374 259.78 54.49L268.44 75.43C268.48 75.5501 268.48 75.6798 268.44 75.8L251.82 116.09C251.478 116.938 250.893 117.667 250.139 118.184C249.385 118.702 248.495 118.986 247.58 119V119Z" fill="#2C2627"/>
</svg>
