<svg width="287" height="120" viewBox="0 0 287 120" fill="none" xmlns="http://www.w3.org/2000/svg">
<g clip-path="url(#clip0)">
<rect width="287" height="120" fill="white"/>
<g clip-path="url(#clip1)">
<mask id="mask0" mask-type="alpha" maskUnits="userSpaceOnUse" x="93" y="1" width="92" height="107">
<rect x="93" y="1" width="92" height="107" fill="#C4C4C4"/>
</mask>
<g mask="url(#mask0)">
<path d="M161.9 134H117C110.4 134 105 128.6 105 122V25.7001C105 19.1001 110.4 13.7001 117 13.7001H161.8C168.4 13.7001 173.8 19.1001 173.8 25.7001V122C173.9 128.6 168.5 134 161.9 134Z" fill="white"/>
<path d="M163.1 134.4H115.9C109.7 134.4 104.7 129.4 104.7 123.2V24.5C104.7 18.3 109.7 13.3 115.9 13.3H163.1C169.3 13.3 174.3 18.3 174.3 24.5V109.9C174.3 110.1 174.1 110.3 173.9 110.3C173.7 110.3 173.5 110.1 173.5 109.9V24.5C173.5 18.8 168.8 14.1 163.1 14.1H115.9C110.2 14.1 105.5 18.8 105.5 24.5V123.3C105.5 129 110.2 133.7 115.9 133.7H163.1C168.8 133.7 173.5 129 173.5 123.3V112C173.5 111.8 173.7 111.6 173.9 111.6C174.1 111.6 174.3 111.8 174.3 112V123.2C174.2 129.4 169.2 134.4 163.1 134.4Z" fill="#2C2627"/>
<path d="M164 116H114.9C113.2 116 111.9 114.7 111.9 113V34.7001C111.9 33.0001 113.2 31.7001 114.9 31.7001H164C165.7 31.7001 167 33.0001 167 34.7001V113C167 114.6 165.7 116 164 116Z" fill="#E6EBEF"/>
<path d="M144.8 22.7H134.1C133.9 22.7 133.7 22.5 133.7 22.3C133.7 22.1 133.9 21.9 134.1 21.9H144.8C145 21.9 145.2 22.1 145.2 22.3C145.2 22.5 145 22.7 144.8 22.7Z" fill="#2C2627"/>
<path d="M122.5 92.1H156.6V70L139.6 55L122.5 70V92.1Z" fill="white"/>
<path d="M126.605 63.2605L130.405 63.2605L130.405 53.3605L126.605 53.3605L126.605 63.2605Z" fill="white"/>
<path d="M120.8 72.2001C121.2 72.2001 121.5 72.1001 121.8 71.8001L139.6 55.0001L157 71.8001C157.6 72.4001 158.5 72.4001 159.1 71.8001C159.7 71.2001 159.7 70.3001 159.1 69.7001L140.7 51.9001C140.1 51.3001 139.2 51.3001 138.6 51.9001L119.7 69.7001C119.1 70.3001 119.1 71.2001 119.6 71.8001C120 72.1001 120.4 72.2001 120.8 72.2001Z" fill="#BAC2CA"/>
<path d="M120.8 72.6001C120.3 72.6001 119.8 72.4001 119.4 72.0001C118.7 71.3001 118.7 70.1001 119.5 69.4001L138.4 51.6001C139.1 50.9001 140.3 50.9001 141 51.6001L149.5 59.8001C149.6 59.9001 149.7 60.2001 149.5 60.3001C149.4 60.4001 149.1 60.5001 149 60.3001L140.5 52.1001C140.1 51.7001 139.4 51.7001 139 52.1001L120 69.9001C119.6 70.3001 119.5 71.0001 120 71.5001C120.4 71.9001 121.1 72.0001 121.6 71.5001L139.7 54.4001L157.4 71.5001C157.8 71.9001 158.5 71.9001 159 71.5001C159.2 71.3001 159.3 71.0001 159.3 70.7001C159.3 70.4001 159.2 70.1001 159 69.9001L149.9 61.1001C149.8 61.0001 149.7 60.7001 149.9 60.6001C150 60.5001 150.3 60.4001 150.4 60.6001L159.5 69.4001C159.9 69.7001 160.1 70.2001 160.1 70.7001C160.1 71.2001 159.9 71.7001 159.6 72.0001C158.9 72.7001 157.7 72.8001 157 72.0001L139.8 55.4001L122.2 72.0001C121.7 72.4001 121.3 72.6001 120.8 72.6001Z" fill="black"/>
<path d="M151.6 72.2001H141.7V92.1001H151.6V72.2001Z" fill="#DAD3E4"/>
<path d="M151.9 92.5H141.2V71.8H151.9V92.5ZM142 91.7H151.2V72.6H142V91.7Z" fill="#2C2627"/>
<path d="M126.1 54.1H131.1C131.6 54.1 132 53.7 132 53.2V52.7C132 52.2 131.6 51.8 131.1 51.8H126.1C125.6 51.8 125.2 52.2 125.2 52.7V53.2C125.2 53.7 125.6 54.1 126.1 54.1Z" fill="white"/>
<path d="M131 54.4H126C125.3 54.4 124.8 53.8 124.8 53.2V52.7C124.8 52 125.4 51.5 126 51.5H131C131.7 51.5 132.2 52.1 132.2 52.7V53.2C132.3 53.9 131.7 54.4 131 54.4ZM126.1 52.2C125.8 52.2 125.6 52.4 125.6 52.7V53.2C125.6 53.5 125.8 53.7 126.1 53.7H131.1C131.4 53.7 131.6 53.5 131.6 53.2V52.7C131.6 52.4 131.4 52.2 131.1 52.2H126.1Z" fill="#2C2627"/>
<path d="M161.3 92.5001H128.6C128.4 92.5001 128.2 92.3001 128.2 92.1001C128.2 91.9001 128.4 91.7001 128.6 91.7001H161.3C161.5 91.7001 161.7 91.9001 161.7 92.1001C161.7 92.3001 161.6 92.5001 161.3 92.5001Z" fill="#2C2627"/>
<path d="M127.2 92.5001H117.7C117.5 92.5001 117.3 92.3001 117.3 92.1001C117.3 91.9001 117.5 91.7001 117.7 91.7001H127.2C127.4 91.7001 127.6 91.9001 127.6 92.1001C127.6 92.3001 127.4 92.5001 127.2 92.5001Z" fill="#2C2627"/>
<path d="M135.5 74.4H128.7V84.9H135.5V74.4Z" fill="#E6EBEF"/>
<path opacity="0.7" d="M131.6 84.9H128.4L133 74.4H136.1L131.6 84.9Z" fill="white"/>
<path d="M135.6 85.4H128C127.8 85.4 127.6 85.2 127.6 85V82.9C127.6 82.7 127.8 82.5 128 82.5C128.2 82.5 128.4 82.7 128.4 82.9V84.7H135.3V74.1H128.4V81.7C128.4 81.9 128.2 82.1 128 82.1C127.8 82.1 127.6 81.9 127.6 81.7V73.7C127.6 73.5 127.8 73.3 128 73.3H135.6C135.8 73.3 136 73.5 136 73.7V85C136 85.2 135.9 85.4 135.6 85.4Z" fill="black"/>
<path d="M132 84.4C131.8 84.4 131.6 84.2 131.6 84V81.4C131.6 81.2 131.8 81 132 81C132.2 81 132.4 81.2 132.4 81.4V84C132.3 84.3 132.2 84.4 132 84.4Z" fill="black"/>
<path d="M132 80.9C131.8 80.9 131.6 80.7 131.6 80.5V73.7C131.6 73.5 131.8 73.3 132 73.3C132.2 73.3 132.4 73.5 132.4 73.7V80.5C132.3 80.8 132.2 80.9 132 80.9Z" fill="black"/>
<path d="M135.6 80.0001H129.5C129.3 80.0001 129.1 79.8001 129.1 79.6001C129.1 79.4001 129.3 79.2001 129.5 79.2001H135.6C135.8 79.2001 136 79.4001 136 79.6001C136 79.8001 135.8 80.0001 135.6 80.0001Z" fill="black"/>
<path d="M149.5 78.5001H143.7V78.1001C143.7 76.5001 145 75.2001 146.6 75.2001C148.2 75.2001 149.5 76.5001 149.5 78.1001V78.5001ZM144.5 77.7001H148.8C148.6 76.7001 147.7 75.9001 146.7 75.9001C145.7 75.9001 144.7 76.7001 144.5 77.7001Z" fill="black"/>
<path d="M126.7 57.8001C126.5 57.8001 126.3 57.6001 126.3 57.4001V54.0001C126.3 53.8001 126.5 53.6001 126.7 53.6001C126.9 53.6001 127.1 53.8001 127.1 54.0001V57.4001C127 57.6001 126.9 57.8001 126.7 57.8001Z" fill="black"/>
<path d="M126.7 63.3C126.5 63.3 126.3 63.1 126.3 62.9V58.8C126.3 58.6 126.5 58.4 126.7 58.4C126.9 58.4 127.1 58.6 127.1 58.8V62.9C127 63.1 126.9 63.3 126.7 63.3Z" fill="black"/>
<path d="M130.4 59.9001C130.2 59.9001 130 59.7001 130 59.5001V54.0001C130 53.8001 130.2 53.6001 130.4 53.6001C130.6 53.6001 130.8 53.8001 130.8 54.0001V59.5001C130.8 59.8001 130.6 59.9001 130.4 59.9001Z" fill="black"/>
<path d="M122.5 92.5C122.3 92.5 122.1 92.3 122.1 92.1V71.2C122.1 71 122.3 70.8 122.5 70.8C122.7 70.8 122.9 71 122.9 71.2V92.1C122.8 92.3 122.7 92.5 122.5 92.5Z" fill="black"/>
<path d="M156.6 74.8001C156.4 74.8001 156.2 74.6001 156.2 74.4001V71.6001C156.2 71.4001 156.4 71.2001 156.6 71.2001C156.8 71.2001 157 71.4001 157 71.6001V74.4001C157 74.6001 156.8 74.8001 156.6 74.8001Z" fill="black"/>
<path d="M156.6 92.5001C156.4 92.5001 156.2 92.3001 156.2 92.1001V76.0001C156.2 75.8001 156.4 75.6001 156.6 75.6001C156.8 75.6001 157 75.8001 157 76.0001V92.1001C157 92.3001 156.8 92.5001 156.6 92.5001Z" fill="black"/>
<path opacity="0.7" d="M128.9 116H117.7L154.5 31.8H165.6L128.9 116Z" fill="white"/>
<path d="M164.3 116.4H114.5C112.8 116.4 111.4 115 111.4 113.3V34.4001C111.4 32.7001 112.8 31.3 114.5 31.3H120.8C121 31.3 121.2 31.5001 121.2 31.7001C121.2 31.9001 121 32.1 120.8 32.1H114.5C113.2 32.1 112.2 33.1001 112.2 34.4001V113.3C112.2 114.6 113.2 115.6 114.5 115.6H164.3C165.6 115.6 166.6 114.6 166.6 113.3V34.4001C166.6 33.1001 165.6 32.1 164.3 32.1H123.5C123.3 32.1 123.1 31.9001 123.1 31.7001C123.1 31.5001 123.3 31.3 123.5 31.3H164.3C166 31.3 167.4 32.7001 167.4 34.4001V113.3C167.4 115 166 116.4 164.3 116.4Z" fill="#2C2627"/>
</g>
<path d="M61.4 52.5001H59.3C59.1 52.5001 58.9 52.3001 58.9 52.1001C58.9 51.9001 59.1 51.7001 59.3 51.7001H61.4C62.1 51.7001 62.6 51.2001 62.6 50.6001C62.6 50.0001 62.1 49.5001 61.4 49.5001H59.3C59.1 49.5001 58.9 49.3001 58.9 49.1001C58.9 48.9001 59.1 48.7001 59.3 48.7001H61.4C62.5 48.7001 63.4 49.5001 63.4 50.5001C63.4 51.5001 62.5 52.5001 61.4 52.5001Z" fill="black"/>
<path d="M93.1001 73.2001C92.6001 65.8001 87.4001 62.3001 83.2001 60.8001C80.7001 59.8001 79.1001 57.4001 79.4001 54.7001C79.5001 54.1001 79.5001 53.5001 79.4001 52.8001C79.1001 45.8001 73.3001 40.1001 66.3001 39.7001C58.4001 39.3001 51.9001 45.6001 51.9001 53.4001C51.9001 53.5001 51.9001 53.6001 51.9001 53.7001C52.0001 56.9001 50.1001 59.8001 47.2001 61.2001C43.4001 63.0001 39.3001 66.5001 39.2001 73.2001C39.2001 76.8001 40.6001 80.0001 42.8001 82.5001C45.2001 86.3001 54.7001 89.2001 66.1001 89.2001C76.7001 89.2001 85.6001 86.7001 88.7001 83.3001C91.4001 80.8001 93.3001 77.2001 93.1001 73.2001Z" fill="#EFF3F6"/>
<path d="M83.2001 60.8001C80.7001 59.8001 79.1001 57.4001 79.4001 54.7001C79.5001 54.1001 79.5001 53.5001 79.4001 52.8001C79.1001 45.8001 73.3001 40.1001 66.3001 39.7001C64.9001 39.6001 63.5001 39.8001 62.3001 40.1001V40.6001C62.3001 40.6001 73.0001 41.9001 73.7001 49.4001C74.4001 57.0001 72.6001 61.0001 75.8001 66.5001C79.0001 72.0001 77.7001 89.3001 59.5001 88.4001V88.7001C61.6001 88.9001 63.9001 89.0001 66.2001 89.0001C76.8001 89.0001 85.7001 86.5001 88.8001 83.1001C91.5001 80.6001 93.5001 77.0001 93.2001 73.0001C92.6001 65.8001 87.3001 62.4001 83.2001 60.8001Z" fill="#DCE2E7"/>
<path d="M66.0001 89.6C54.6001 89.6 44.9001 86.8 42.4001 82.8C40.0001 80.2 38.7001 76.8 38.7001 73.3C38.8001 66.3 43.2001 62.7 46.9001 61C49.7001 59.7 51.4001 56.9 51.4001 53.9V53.6C51.4001 49.7 53.0001 46.1 55.8001 43.4C58.6001 40.7 62.3001 39.3 66.2001 39.5C73.4001 39.8 79.3001 45.7 79.7001 52.9C79.7001 53.5 79.7001 54.2 79.7001 54.8C79.5001 57.3 80.9001 59.6 83.3001 60.5C87.7001 62.2 92.9001 65.7 93.4001 73.3C93.6001 77 92.0001 80.8 88.9001 83.7C85.6001 87.2 76.4001 89.6 66.0001 89.6ZM65.6001 40.1C62.1001 40.1 58.9001 41.4 56.4001 43.8C53.7001 46.4 52.3001 49.8 52.3001 53.5V53.7C52.4001 57 50.4001 60.1 47.4001 61.5C43.9001 63.2 39.7001 66.5 39.6001 73.1C39.6001 76.4 40.8001 79.6 43.1001 82.1C45.5001 85.9 55.1001 88.6 66.1001 88.6C76.3001 88.6 85.3001 86.3 88.5001 82.9C91.5001 80.1 93.1001 76.6 92.8001 73.1C92.3001 65.9 87.3001 62.6 83.1001 61C80.4001 60 78.8001 57.4 79.0001 54.5C79.1001 53.9 79.1001 53.3 79.0001 52.7C78.7001 45.9 73.1001 40.3 66.2001 40C66.0001 40.1 65.8001 40.1 65.6001 40.1Z" fill="black"/>
<path d="M65.5001 107.8C65.3001 107.8 65.1001 107.6 65.1001 107.4V66.6001C65.1001 66.4001 65.3001 66.2001 65.5001 66.2001C65.7001 66.2001 65.9001 66.4001 65.9001 66.6001V107.4C65.9001 107.6 65.7001 107.8 65.5001 107.8Z" fill="black"/>
<path d="M65.4 79.8C65.3 79.8 65.3 79.8 65.2 79.7L56 73.2C55.8 73.1 55.8 72.8 55.9 72.7C56 72.5 56.3 72.5 56.4 72.6L65.6 79.1C65.8 79.2 65.8 79.5 65.7 79.6C65.6 79.8 65.5 79.8 65.4 79.8Z" fill="black"/>
<path d="M65.7 84.7001C65.6 84.7001 65.5 84.6001 65.4 84.5001C65.3 84.3001 65.3 84.1001 65.5 84.0001L72.8 78.8001C73 78.7001 73.2 78.7001 73.3 78.9001C73.4 79.1001 73.4 79.3001 73.2 79.4001L65.9 84.6001C65.8 84.6001 65.7 84.7001 65.7 84.7001Z" fill="black"/>
<path d="M55.1001 53.7001C54.9001 53.7001 54.7001 53.5001 54.7001 53.3001C55.5001 44.7001 62.6001 42.7001 62.7001 42.7001C62.9001 42.6001 63.1001 42.8001 63.2001 43.0001C63.3001 43.2001 63.1001 43.4001 62.9001 43.5001C62.6001 43.6001 56.2001 45.4001 55.4001 53.5001C55.5001 53.5001 55.3001 53.7001 55.1001 53.7001Z" fill="black"/>
<path d="M30.4 66.9H28.8C28.6 66.9 28.4 66.7 28.4 66.5C28.4 66.3 28.6 66.1 28.8 66.1H30.4C30.8 66.1 31.2 65.8 31.2 65.4C31.2 65 30.8 64.7 30.4 64.7H28.8C28.6 64.7 28.4 64.5 28.4 64.3C28.4 64.1 28.6 63.9 28.8 63.9H30.4C31.3 63.9 32 64.6 32 65.4C32 66.2 31.3 66.9 30.4 66.9Z" fill="black"/>
<path d="M54.0001 82.2C53.6001 76.7 49.7001 74.1 46.6001 72.9C44.7001 72.2 43.6001 70.3 43.7001 68.4C43.7001 67.9 43.7001 67.5 43.7001 67C43.4001 61.8 39.2001 57.5 33.9001 57.3C28.0001 57 23.2001 61.7 23.2001 67.5C23.2001 67.6 23.2001 67.6 23.2001 67.7C23.2001 70.1 21.9001 72.3 19.7001 73.3C16.9001 74.6 13.8001 77.2 13.7001 82.2C13.7001 84.9 14.7001 87.3 16.4001 89.1C18.2001 91.9 25.3001 94.1 33.7001 94.1C41.6001 94.1 48.2001 92.3 50.6001 89.7C52.7001 87.8 54.2001 85.2 54.0001 82.2Z" fill="#EFF3F6"/>
<path d="M46.6001 72.9C44.7001 72.2 43.6001 70.3 43.7001 68.4C43.7001 67.9 43.7001 67.5 43.7001 67C43.4001 61.8 39.2001 57.5 33.9001 57.3C32.9001 57.3 31.8001 57.4 30.9001 57.6V58C30.9001 58 38.8001 58.9 39.4001 64.6C39.9001 70.2 38.6001 73.2 40.9001 77.3C43.3001 81.4 42.3001 94.3 28.7001 93.6V93.8C30.3001 94 31.9001 94.1 33.7001 94.1C41.6001 94.1 48.2001 92.3 50.6001 89.7C52.6001 87.8 54.1001 85.1 53.9001 82.2C53.6001 76.7 49.7001 74.1 46.6001 72.9Z" fill="#DCE2E7"/>
<path d="M33.8 94.5C25.3 94.5 18.1 92.4 16.2 89.4C14.4 87.5 13.4 84.9 13.4 82.3C13.5 77 16.8 74.4 19.6 73.1C21.6 72.1 22.9 70.1 22.9 67.9V67.7C22.9 64.8 24.1 62 26.2 60C28.3 58 31.1 56.9 34 57.1C39.4 57.3 43.8 61.8 44.1 67.2C44.1 67.7 44.1 68.2 44.1 68.6C43.9 70.4 45 72.1 46.7 72.8C50 74 53.9 76.7 54.3 82.4C54.5 85.2 53.2 88 50.9 90.2C48.5 92.7 41.6 94.5 33.8 94.5ZM33.5 57.6C30.9 57.6 28.5 58.6 26.7 60.3C24.7 62.2 23.7 64.7 23.7 67.4V67.6C23.7 70.1 22.3 72.4 20 73.5C17.4 74.7 14.3 77.2 14.2 82.1C14.2 84.5 15.1 86.9 16.8 88.8C18.6 91.6 25.7 93.6 33.8 93.6C41.4 93.6 48 91.9 50.4 89.4C52.6 87.4 53.8 84.7 53.6 82.2C53.3 76.9 49.5 74.4 46.5 73.3C44.5 72.5 43.2 70.5 43.4 68.4C43.4 68 43.4 67.5 43.4 67.1C43.2 62.1 39 58 34 57.7C33.8 57.7 33.7 57.6 33.5 57.6Z" fill="black"/>
<path d="M33.5 108C33.3 108 33.1 107.8 33.1 107.6V77.3C33.1 77.1 33.3 76.9 33.5 76.9C33.7 76.9 33.9 77.1 33.9 77.3V107.7C33.8 107.8 33.7 108 33.5 108Z" fill="black"/>
<path d="M33.3001 87.2001C33.2001 87.2001 33.2001 87.2001 33.1001 87.1001L26.3001 82.3001C26.1001 82.2001 26.1001 81.9001 26.2001 81.8001C26.3001 81.6001 26.6001 81.6001 26.7001 81.7001L33.5001 86.5001C33.7001 86.6001 33.7001 86.9001 33.6001 87.0001C33.6001 87.2001 33.4001 87.2001 33.3001 87.2001Z" fill="black"/>
<path d="M33.6001 90.8001C33.5001 90.8001 33.4001 90.7001 33.3001 90.6001C33.2001 90.4001 33.2001 90.2001 33.4001 90.1001L38.8001 86.2001C39.0001 86.1001 39.2001 86.1001 39.3001 86.3001C39.4001 86.5001 39.4001 86.7001 39.2001 86.8001L33.8001 90.7001C33.7001 90.8001 33.6001 90.8001 33.6001 90.8001Z" fill="black"/>
<path d="M25.7001 67.7C25.5001 67.7 25.3 67.5 25.3 67.3C25.9 60.8 31.3 59.3 31.3 59.3C31.5 59.2 31.7 59.4 31.8 59.6C31.9 59.8 31.7 60 31.5 60.1C31.3 60.2 26.6 61.5 26 67.5C26.1 67.6 25.9001 67.7 25.7001 67.7Z" fill="black"/>
<path d="M219.3 52.5H217.2C216.1 52.5 215.2 51.7 215.2 50.7C215.2 49.7 216.1 48.9 217.2 48.9H219.3C219.5 48.9 219.7 49.1 219.7 49.3C219.7 49.5 219.5 49.7 219.3 49.7H217.2C216.5 49.7 216 50.2 216 50.8C216 51.4 216.5 51.9 217.2 51.9H219.3C219.5 51.9 219.7 52.1 219.7 52.3C219.7 52.5 219.5 52.5 219.3 52.5Z" fill="black"/>
<path d="M185.5 73.2001C186 65.8001 191.2 62.3001 195.4 60.8001C197.9 59.8001 199.5 57.4001 199.2 54.7001C199.1 54.1001 199.1 53.5001 199.2 52.8001C199.5 45.8001 205.3 40.1001 212.3 39.7001C220.2 39.3001 226.7 45.6001 226.7 53.4001C226.7 53.5001 226.7 53.6001 226.7 53.7001C226.6 56.9001 228.5 59.8001 231.4 61.2001C235.2 63.0001 239.3 66.5001 239.4 73.2001C239.4 76.8001 238 80.0001 235.8 82.5001C233.4 86.3001 223.9 89.2001 212.5 89.2001C201.9 89.2001 193 86.7001 189.9 83.3001C187.2 80.8001 185.3 77.2001 185.5 73.2001Z" fill="#EFF3F6"/>
<path d="M195.5 60.8001C198 59.8001 199.6 57.4001 199.3 54.7001C199.2 54.1001 199.2 53.5001 199.3 52.8001C199.6 45.8001 205.4 40.1001 212.4 39.7001C213.8 39.6001 215.2 39.8001 216.4 40.1001V40.6001C216.4 40.6001 205.7 41.9001 205 49.4001C204.3 57.0001 206.1 61.0001 202.9 66.5001C199.7 72.0001 201 89.3001 219.2 88.4001V88.7001C217.1 88.9001 214.8 89.0001 212.5 89.0001C201.9 89.0001 193 86.5001 189.9 83.1001C187.2 80.6001 185.2 77.0001 185.5 73.0001C186 65.8001 191.3 62.4001 195.5 60.8001Z" fill="#DCE2E7"/>
<path d="M212.6 89.6C202.2 89.6 193 87.2 189.7 83.6C186.6 80.7 184.9 76.9 185.2 73.2C185.7 65.7 191 62.1 195.3 60.4C197.7 59.5 199.1 57.2 198.9 54.7C198.8 54.1 198.8 53.4001 198.9 52.8001C199.3 45.6001 205.2 39.7 212.4 39.4C216.3 39.2 220 40.6 222.8 43.3C225.6 46 227.2 49.6 227.2 53.5V53.8001C227.1 56.8001 228.9 59.6 231.7 60.9C235.4 62.6 239.9 66.2 239.9 73.2C239.9 76.7 238.6 80.1001 236.2 82.8001C233.7 86.7001 224 89.6 212.6 89.6ZM213 40.1C212.8 40.1 212.6 40.1 212.4 40.1C205.6 40.4 200 46.0001 199.6 52.8001C199.6 53.4001 199.6 54 199.6 54.6C199.8 57.5 198.2 60.1 195.5 61.1C191.4 62.7 186.3 66.1 185.8 73.2C185.6 76.7 187.1 80.3 190.1 83C193.3 86.5 202.3 88.8001 212.5 88.8001C223.4 88.8001 233.1 86.1001 235.4 82.3001C237.8 79.7001 239 76.5 239 73.2C238.9 66.6 234.7 63.2 231.2 61.6C228.1 60.2 226.2 57.1001 226.3 53.8001V53.5C226.3 49.8 224.8 46.4 222.2 43.8C219.7 41.4 216.5 40.1 213 40.1Z" fill="black"/>
<path d="M213.1 107.8C212.9 107.8 212.7 107.6 212.7 107.4V66.6001C212.7 66.4001 212.9 66.2001 213.1 66.2001C213.3 66.2001 213.5 66.4001 213.5 66.6001V107.4C213.5 107.6 213.3 107.8 213.1 107.8Z" fill="black"/>
<path d="M213.3 79.8C213.2 79.8 213.1 79.7 213 79.6C212.9 79.4 212.9 79.2 213.1 79.1L222.3 72.6C222.5 72.5 222.7 72.5 222.8 72.7C222.9 72.9 222.9 73.1 222.7 73.2L213.5 79.7C213.4 79.8 213.3 79.8 213.3 79.8Z" fill="black"/>
<path d="M213 84.7001C212.9 84.7001 212.8 84.7001 212.8 84.6001L205.5 79.4001C205.3 79.3001 205.3 79.0001 205.4 78.9001C205.5 78.7001 205.8 78.7001 205.9 78.8001L213.2 84.0001C213.4 84.1001 213.4 84.4001 213.3 84.5001C213.2 84.6001 213.1 84.7001 213 84.7001Z" fill="black"/>
<path d="M223.5 53.7001C223.3 53.7001 223.1 53.6001 223.1 53.4001C222.3 45.3001 215.9 43.5001 215.6 43.4001C215.4 43.3001 215.3 43.1001 215.3 42.9001C215.4 42.7001 215.6 42.6001 215.8 42.6001C215.9 42.6001 223 44.6001 223.8 53.2001C223.9 53.5001 223.7 53.6001 223.5 53.7001Z" fill="black"/>
<path d="M249.8 66.9H248.2C247.3 66.9 246.6 66.2 246.6 65.4C246.6 64.6 247.3 63.9 248.2 63.9H249.8C250 63.9 250.2 64.1 250.2 64.3C250.2 64.5 250 64.7 249.8 64.7H248.2C247.8 64.7 247.4 65 247.4 65.4C247.4 65.8 247.8 66.1 248.2 66.1H249.8C250 66.1 250.2 66.3 250.2 66.5C250.2 66.7 250 66.9 249.8 66.9Z" fill="black"/>
<path d="M224.7 82.2C225.1 76.7 229 74.1 232.1 72.9C234 72.2 235.1 70.3 235 68.4C235 67.9 235 67.5 235 67C235.3 61.8 239.5 57.5 244.8 57.3C250.7 57 255.5 61.7 255.5 67.5C255.5 67.6 255.5 67.6 255.5 67.7C255.5 70.1 256.8 72.3 259 73.3C261.8 74.6 264.9 77.2 265 82.2C265 84.9 264 87.3 262.3 89.1C260.5 91.9 253.4 94.1 245 94.1C237.1 94.1 230.5 92.3 228.1 89.7C225.9 87.8 224.5 85.2 224.7 82.2Z" fill="#EFF3F6"/>
<path d="M244.8 94.5C237 94.5 230.1 92.7 227.7 90C225.4 87.8 224.1 85 224.3 82.2C224.7 76.5 228.6 73.9 231.9 72.6C233.6 71.9 234.7 70.3 234.5 68.4C234.5 67.9 234.5 67.4 234.5 67C234.8 61.6 239.2 57.2 244.6 56.9C247.5 56.8 250.3 57.8 252.4 59.8C254.5 61.8 255.7 64.5 255.7 67.5V67.7C255.7 69.9 256.9 72 259 72.9C261.8 74.2 265.1 76.9 265.2 82.1C265.2 84.7 264.2 87.3 262.4 89.3C260.5 92.3 253.3 94.5 244.8 94.5ZM225 82.2C224.8 84.8 226 87.4 228.2 89.4C230.6 92 237.2 93.7 244.8 93.7C252.9 93.7 260.1 91.7 261.8 88.9C263.5 87 264.5 84.6 264.4 82.2C264.3 77.3 261.2 74.8 258.6 73.6C256.3 72.5 254.8 70.2 254.9 67.7V67.5C254.9 64.8 253.8 62.2 251.9 60.4C249.9 58.5 247.4 57.6 244.6 57.7C239.6 57.9 235.4 62 235.2 67.1C235.2 67.5 235.2 68 235.2 68.4C235.4 70.6 234.1 72.6 232.1 73.3C229.1 74.5 225.4 77 225 82.2Z" fill="black"/>
<path d="M232 72.9C233.9 72.2 235 70.3 234.9 68.4C234.9 67.9 234.9 67.5 234.9 67C235.2 61.8 239.4 57.5 244.7 57.3C245.7 57.3 246.8 57.4 247.7 57.6V58C247.7 58 239.8 58.9 239.2 64.6C238.7 70.2 240 73.2 237.7 77.3C235.3 81.4 236.3 94.3 249.9 93.6V93.8C248.3 94 246.7 94.1 244.9 94.1C237 94.1 230.4 92.3 228 89.7C226 87.8 224.5 85.1 224.7 82.2C225 76.7 228.9 74.1 232 72.9Z" fill="#DCE2E7"/>
<path d="M244.8 94.5C237 94.5 230.1 92.7 227.7 90C225.4 87.8 224.1 85 224.3 82.2C224.7 76.5 228.6 73.9 231.9 72.6C233.6 71.9 234.7 70.3 234.5 68.4C234.5 67.9 234.5 67.4 234.5 67C234.8 61.6 239.2 57.2 244.6 56.9C247.5 56.8 250.3 57.8 252.4 59.8C254.5 61.8 255.7 64.5 255.7 67.5V67.7C255.7 69.9 256.9 72 259 72.9C261.8 74.2 265.1 76.9 265.2 82.1C265.2 84.7 264.2 87.3 262.4 89.3C260.5 92.3 253.3 94.5 244.8 94.5ZM225 82.2C224.8 84.8 226 87.4 228.2 89.4C230.6 92 237.2 93.7 244.8 93.7C252.9 93.7 260.1 91.7 261.8 88.9C263.5 87 264.5 84.6 264.4 82.2C264.3 77.3 261.2 74.8 258.6 73.6C256.3 72.5 254.8 70.2 254.9 67.7V67.5C254.9 64.8 253.8 62.2 251.9 60.4C249.9 58.5 247.4 57.6 244.6 57.7C239.6 57.9 235.4 62 235.2 67.1C235.2 67.5 235.2 68 235.2 68.4C235.4 70.6 234.1 72.6 232.1 73.3C229.1 74.5 225.4 77 225 82.2Z" fill="black"/>
<path d="M245.2 108C245 108 244.8 107.8 244.8 107.6V77.3C244.8 77.1 245 76.9 245.2 76.9C245.4 76.9 245.6 77.1 245.6 77.3V107.7C245.5 107.8 245.4 108 245.2 108Z" fill="black"/>
<path d="M245.3 87.2C245.2 87.2 245.1 87.1 245 87C244.9 86.8 244.9 86.6 245.1 86.5L251.9 81.7C252.1 81.6 252.3 81.6 252.4 81.8C252.5 82 252.5 82.2 252.3 82.3L245.5 87.1C245.4 87.2 245.4 87.2 245.3 87.2Z" fill="black"/>
<path d="M245.1 90.8C245 90.8 244.9 90.8 244.9 90.7L239.5 86.8C239.3 86.7 239.3 86.4 239.4 86.3C239.5 86.1 239.8 86.1 239.9 86.2L245.3 90.1C245.5 90.2 245.5 90.5 245.4 90.6C245.3 90.8 245.2 90.8 245.1 90.8Z" fill="black"/>
<path d="M252.9 67.7C252.7 67.7 252.5 67.6 252.5 67.4C251.9 61.4 247.1 60.1 247 60C246.8 59.9 246.7 59.7 246.7 59.5C246.8 59.3 247 59.2 247.2 59.2C247.3 59.2 252.6 60.7 253.2 67.2C253.3 67.5 253.1 67.7 252.9 67.7Z" fill="black"/>
<path d="M6.7 108.1H2.4C2.2 108.1 2 107.9 2 107.7C2 107.5 2.2 107.3 2.4 107.3H6.7C6.9 107.3 7.1 107.5 7.1 107.7C7.1 107.9 6.9 108.1 6.7 108.1Z" fill="black"/>
<path d="M276.3 108.1H11.3C11.1 108.1 10.9 107.9 10.9 107.7C10.9 107.5 11.1 107.3 11.3 107.3H276.2C276.4 107.3 276.6 107.5 276.6 107.7C276.6 107.9 276.5 108.1 276.3 108.1Z" fill="black"/>
<path d="M124.8 107C124.8 107.2 124.8 107.4 125 107.3H99.6C99.1 106.2 99.5 104.6 99.5 102.8C99.5 101.4 100.2 100.2 101.3 99.2C102.1 98.5 103.1 98 104.3 97.7C105.1 97.5 106 97.3 106.9 97.3C108.3 97.3 109.5 97.6 110.5 98.2C110.5 98.2 110.5 98.2 110.6 98.2C110.7 98.3 110.9 98.3 111 98.4C111.1 98.5 111.3 98.6 111.4 98.7C112.8 99.7 113.7 101.2 114.3 102.7C114.4 102.9 114.4 103.1 114.5 103.3C115.4 103 116.5 102.7 117.5 102.4C120.2 101.7 122.8 103 124.1 104.6C124.5 105.1 124.8 105.7 124.9 106.3V106.4C124.8 106.8 124.8 106.9 124.8 107Z" fill="white"/>
<path d="M104.2 93.1C103.5 93 102.8 92.9 102.1 92.9C97.7999 92.9 93.8999 95 91.4999 98.3C90.9999 99 90.1999 99.2 89.3999 98.9C88.4999 98.6 87.4999 98.4 86.3999 98.4C83.4999 98.4 80.8999 99.7 79.2999 101.8C79.2999 101.8 77.4999 104.2 77.2999 107.3H104.3L104.2 93.1Z" fill="white"/>
<path d="M80.2 101C80.2 101 83 98.7 87.5 99.8C92 100.9 92.6 99.7 93.9 98.1C95.3 96.5 100.5 94.2 104.4 95.3V93.2C104.4 93.2 99.8 92.2 96 94.5C92.1 96.8 91.6 98.5 91 98.8C90.4 99 90.2 99.2 88.3 98.7C86.5 98.2 82.2 98.8 80.1 101.3L80.2 101Z" fill="#DCE2E7"/>
<path d="M77.1 107.8C76.9 107.8 76.7 107.6 76.7 107.4C76.8 104.7 78.9 101.7 79 101.6C80.8 99.3 83.5 98 86.5 98C87.6 98 88.6 98.2 89.6 98.5C90.2 98.7 90.9 98.5 91.3 98C93.8 94.5 97.9 92.5 102.2 92.5C102.9 92.5 103.7 92.6 104.4 92.7C104.6 92.7 104.7 92.9 104.7 93.1C104.7 93.3 104.5 93.4 104.3 93.4C103.6 93.3 102.9 93.2 102.2 93.2C98.2 93.2 94.3 95.1 91.9 98.4C91.3 99.2 90.3 99.5 89.4 99.2C88.5 98.9 87.5 98.7 86.6 98.7C83.9 98.7 81.4 99.9 79.7 102C79.7 102 77.7 104.9 77.6 107.4C77.5 107.6 77.3 107.8 77.1 107.8Z" fill="black"/>
<path d="M100.9 99.4C100.9 99.4 106 98.1 108.7 99.6C111.4 101.1 112 103.2 113.4 103.9C114.8 104.6 116.1 104.3 117.4 103.4C118.8 102.5 123.5 102.9 124.6 106.5C124.6 106.5 123.6 101.3 118.9 101.6C114.2 101.9 115.9 103.7 113.7 101.1C111.5 98.5 107.4 95 100.9 99.4Z" fill="#DCE2E7"/>
<path d="M124.9 108C124.8 108 124.7 108 124.6 107.9C124.5 107.8 124.5 107.7 124.5 107.6C124.5 106.1 124 104.6 122.9 103.6C121.9 102.6 120.6 102 119.1 102C118 102 117 102.3 116.1 102.9C115.7 103.1 115.3 103.2 114.9 103.1C114.5 103 114.1 102.6 113.9 102.2C112.8 99.5 109.8 97.7 106.4 97.7C103.7 97.7 101.3 98.8 99.7999 100.7C99.1999 101.4 98.2999 101.7 97.4999 101.4C96.7999 101.2 95.9999 101.1 95.1999 101.1C94.9999 101.1 94.7999 100.9 94.7999 100.7C94.7999 100.5 94.9999 100.3 95.1999 100.3C96.0999 100.3 96.8999 100.4 97.6999 100.7C98.2999 100.9 98.7999 100.7 99.1999 100.2C100.8 98.2 103.5 96.9 106.4 96.9C110.1 96.9 113.4 98.9 114.6 101.9C114.7 102.1 114.9 102.3 115.1 102.4C115.3 102.5 115.5 102.4 115.7 102.3C116.7 101.6 117.9 101.2 119.1 101.2C120.7 101.2 122.2 101.9 123.4 103C124.6 104.2 125.2 105.9 125.2 107.6C125.2 107.7 125.2 107.8 125.1 107.9C125 108 124.9 108 124.9 108Z" fill="black"/>
<path d="M94.1 101.1C93.9 101.1 93.8 101 93.7 100.8C93.7 100.6 93.8 100.4 94 100.4C94.4 100.3 94.8 100.3 95.2 100.3C95.4 100.3 95.6 100.5 95.6 100.7C95.6 100.9 95.4 101.1 95.2 101.1C94.9 101 94.5 101 94.1 101.1Z" fill="black"/>
<path d="M111.6 103.9C111.5 103.9 111.3 103.8 111.3 103.7C111.1 103.3 110.8 102.9 110.5 102.6C110.4 102.4 110.4 102.2 110.5 102.1C110.7 102 110.9 102 111 102.1C111.3 102.5 111.6 102.9 111.9 103.4C112 103.6 111.9 103.8 111.8 103.9C111.7 103.9 111.6 103.9 111.6 103.9Z" fill="black"/>
<path d="M109.6 101.7C109.5 101.7 109.4 101.7 109.4 101.6C107.6 100.3 105.6 100.2 105.6 100.2C105.4 100.2 105.2 100 105.2 99.8C105.2 99.6 105.4 99.4 105.6 99.4C105.7 99.4 107.9 99.5 109.8 101C110 101.1 110 101.4 109.9 101.5C109.9 101.7 109.8 101.7 109.6 101.7Z" fill="black"/>
<path d="M285 108H280.7C280.5 108 280.3 107.8 280.3 107.6C280.3 107.4 280.5 107.2 280.7 107.2H285C285.2 107.2 285.4 107.4 285.4 107.6C285.4 107.8 285.2 108 285 108Z" fill="black"/>
<path d="M179.4 107.7C179.2 107.7 179 107.5 179 107.3C179.2 105.9 180.4 104.9 182 104.9C182.8 104.9 183.5 105.2 184 105.6C184.6 104.6 185.8 104 187 104C189 104 190.6 105.5 190.6 107.3C190.6 107.5 190.4 107.7 190.2 107.7C190 107.7 189.8 107.5 189.8 107.3C189.8 105.9 188.5 104.7 186.9 104.7C185.7 104.7 184.7 105.4 184.3 106.3C184.2 106.4 184.1 106.5 184 106.5C183.9 106.5 183.7 106.5 183.7 106.4C183.3 105.9 182.6 105.5 181.9 105.5C180.7 105.5 179.8 106.3 179.7 107.3C179.8 107.6 179.6 107.7 179.4 107.7Z" fill="black"/>
</g>
</g>
<defs>
<clipPath id="clip0">
<rect width="287" height="120" fill="white"/>
</clipPath>
<clipPath id="clip1">
<rect width="283.4" height="149.4" fill="white" transform="translate(2 -15)"/>
</clipPath>
</defs>
</svg>
