<svg width="327" height="150" viewBox="0 0 327 150" fill="none" xmlns="http://www.w3.org/2000/svg">
<rect width="327" height="150" fill="white"/>
<path d="M125.97 25.75H117.91V28.12H125.97V25.75Z" fill="#E6EBEF"/>
<path d="M126.62 23.39V25.59L126.13 25.69V52L131 46.76V25.59C131 25.59 131.68 25.06 131.63 24.86C131.58 24.66 131.39 23.59 131.39 23.59L131.05 23.25L126.62 23.39Z" fill="#BAC2CA"/>
<path d="M126.07 52.41H117.76C117.649 52.41 117.542 52.3658 117.463 52.287C117.384 52.2083 117.34 52.1014 117.34 51.99V25.71C117.34 25.5986 117.384 25.4918 117.463 25.4131C117.542 25.3343 117.649 25.29 117.76 25.29C117.871 25.29 117.978 25.3343 118.057 25.4131C118.136 25.4918 118.18 25.5986 118.18 25.71V51.57H125.89L130.59 46.64V25.78C130.606 25.6785 130.657 25.5859 130.735 25.5191C130.813 25.4522 130.912 25.4154 131.015 25.4154C131.118 25.4154 131.217 25.4522 131.295 25.5191C131.373 25.5859 131.424 25.6785 131.44 25.78V46.78C131.441 46.834 131.43 46.8875 131.41 46.9373C131.389 46.9871 131.359 47.0323 131.32 47.07L126.37 52.25C126.335 52.2976 126.29 52.3367 126.238 52.3645C126.186 52.3922 126.129 52.4077 126.07 52.41V52.41Z" fill="black"/>
<path d="M126.05 45.5199C126.012 45.5213 125.975 45.515 125.94 45.5016C125.905 45.4881 125.873 45.4677 125.846 45.4416C125.818 45.4154 125.797 45.3841 125.782 45.3495C125.768 45.3148 125.76 45.2776 125.76 45.2399V25.6399C125.773 25.5735 125.808 25.5135 125.86 25.4703C125.912 25.4272 125.977 25.4036 126.045 25.4036C126.113 25.4036 126.178 25.4272 126.23 25.4703C126.282 25.5135 126.318 25.5735 126.33 25.6399V45.2399C126.33 45.3142 126.301 45.3854 126.248 45.4379C126.195 45.4904 126.124 45.5199 126.05 45.5199Z" fill="black"/>
<path d="M130.9 26H117.43C117.122 26 116.827 25.8778 116.61 25.6602C116.392 25.4427 116.27 25.1476 116.27 24.84V24C116.27 23.6923 116.392 23.3973 116.61 23.1797C116.827 22.9622 117.122 22.84 117.43 22.84H130.9C131.209 22.84 131.505 22.9618 131.724 23.1791C131.943 23.3964 132.067 23.6914 132.07 24V24.81C132.073 24.9653 132.044 25.1196 131.987 25.2638C131.929 25.4081 131.843 25.5395 131.734 25.6502C131.626 25.761 131.496 25.849 131.352 25.909C131.209 25.9691 131.055 26 130.9 26V26ZM117.43 23.71C117.388 23.7099 117.347 23.7183 117.309 23.7345C117.271 23.7507 117.236 23.7744 117.207 23.8043C117.178 23.8341 117.156 23.8695 117.141 23.9083C117.126 23.947 117.119 23.9884 117.12 24.03V24.84C117.119 24.8815 117.126 24.9229 117.141 24.9617C117.156 25.0004 117.178 25.0358 117.207 25.0657C117.236 25.0955 117.271 25.1192 117.309 25.1354C117.347 25.1516 117.388 25.16 117.43 25.16H130.9C130.985 25.16 131.066 25.1263 131.126 25.0662C131.186 25.0062 131.22 24.9248 131.22 24.84V24C131.22 23.9151 131.186 23.8337 131.126 23.7737C131.066 23.7137 130.985 23.68 130.9 23.68L117.43 23.71Z" fill="black"/>
<path d="M126.55 25.6C126.476 25.6 126.405 25.5705 126.352 25.518C126.299 25.4655 126.27 25.3942 126.27 25.32V23.4C126.27 23.3248 126.299 23.2525 126.351 23.1984C126.404 23.1443 126.475 23.1126 126.55 23.11C126.588 23.11 126.625 23.1175 126.66 23.1322C126.694 23.1469 126.725 23.1684 126.752 23.1955C126.778 23.2226 126.798 23.2546 126.812 23.2898C126.825 23.3249 126.831 23.3624 126.83 23.4V25.32C126.831 25.3571 126.825 25.3942 126.812 25.4288C126.798 25.4634 126.777 25.4948 126.751 25.5211C126.725 25.5474 126.693 25.568 126.659 25.5815C126.624 25.5951 126.587 25.6014 126.55 25.6V25.6Z" fill="black"/>
<path d="M200.46 134.15V59.9799L151.54 22.5699L106.58 57.9499V134.25L200.46 134.15Z" fill="white"/>
<path d="M227.86 60.6899H199.36V134H227.86V60.6899Z" fill="#E6EBEF"/>
<path d="M204.13 69.5H228.27V67.36L203.52 67.05L199.62 63.38L199.53 66.38L202.09 68.76C202.654 69.2526 203.381 69.5165 204.13 69.5V69.5Z" fill="#BAC2CA"/>
<path d="M209.27 96.9C209.27 96.9 205.67 104.25 210.45 110.9C215.23 117.55 227.56 118.76 227.56 118.76V107.7L209.27 96.9Z" fill="#BAC2CA"/>
<path d="M227.61 134C227.499 134 227.392 133.956 227.313 133.877C227.234 133.798 227.19 133.691 227.19 133.58V57.4801C227.19 57.3687 227.234 57.2618 227.313 57.1831C227.392 57.1043 227.499 57.0601 227.61 57.0601C227.721 57.0601 227.828 57.1043 227.907 57.1831C227.986 57.2618 228.03 57.3687 228.03 57.4801V133.62C228.02 133.724 227.971 133.821 227.894 133.892C227.816 133.962 227.715 134.001 227.61 134V134Z" fill="black"/>
<path d="M206.59 63.46H235.59C235.794 63.456 235.997 63.4929 236.187 63.5687C236.377 63.6444 236.549 63.7573 236.695 63.9009C236.84 64.0444 236.955 64.2156 237.034 64.4044C237.112 64.5932 237.151 64.7957 237.15 65V65.61C237.15 66.0158 236.989 66.405 236.702 66.6919C236.415 66.9788 236.026 67.14 235.62 67.14H206.62V63.46H206.59Z" fill="#E6EBEF"/>
<path d="M235.61 67.47H204.67C204.559 67.47 204.452 67.4258 204.373 67.347C204.294 67.2682 204.25 67.1614 204.25 67.05C204.25 66.9386 204.294 66.8318 204.373 66.753C204.452 66.6743 204.559 66.63 204.67 66.63H235.61C235.721 66.63 235.828 66.6743 235.907 66.753C235.986 66.8318 236.03 66.9386 236.03 67.05C236.03 67.1614 235.986 67.2682 235.907 67.347C235.828 67.4258 235.721 67.47 235.61 67.47V67.47Z" fill="black"/>
<path d="M235.14 67.46H232.58C232.478 67.4444 232.386 67.393 232.319 67.315C232.252 67.2371 232.215 67.1377 232.215 67.035C232.215 66.9323 232.252 66.833 232.319 66.755C232.386 66.6771 232.478 66.6256 232.58 66.61H235.14C235.329 66.6262 235.519 66.603 235.699 66.5417C235.879 66.4805 236.044 66.3826 236.183 66.2543C236.323 66.1259 236.435 65.97 236.511 65.7962C236.588 65.6225 236.627 65.4348 236.627 65.245C236.627 65.0553 236.588 64.8676 236.511 64.6938C236.435 64.5201 236.323 64.3641 236.183 64.2358C236.044 64.1075 235.879 64.0096 235.699 63.9483C235.519 63.8871 235.329 63.8638 235.14 63.88H232.58C232.469 63.88 232.362 63.8358 232.283 63.757C232.204 63.6782 232.16 63.5714 232.16 63.46C232.16 63.3486 232.204 63.2418 232.283 63.163C232.362 63.0843 232.469 63.04 232.58 63.04H235.14C235.448 63.0107 235.759 63.046 236.052 63.1438C236.345 63.2415 236.615 63.3995 236.844 63.6075C237.073 63.8156 237.256 64.0692 237.381 64.352C237.506 64.6349 237.57 64.9407 237.57 65.25C237.57 65.5593 237.506 65.8652 237.381 66.148C237.256 66.4309 237.073 66.6845 236.844 66.8925C236.615 67.1006 236.345 67.2586 236.052 67.3563C235.759 67.454 235.448 67.4894 235.14 67.46V67.46Z" fill="black"/>
<path d="M235.47 62.88L181.79 20.75H151.97L206.23 63.46H201.39L235.47 62.88Z" fill="#BAC2CA"/>
<path d="M152.72 21.56C152.524 21.3604 152.291 21.2019 152.034 21.0937C151.776 20.9854 151.499 20.9297 151.22 20.9297C150.941 20.9297 150.664 20.9854 150.406 21.0937C150.149 21.2019 149.916 21.3604 149.72 21.56L97.67 64.05C97.5028 64.228 97.3749 64.4393 97.2947 64.67C97.2145 64.9007 97.1838 65.1457 97.2046 65.3891C97.2253 65.6324 97.2971 65.8687 97.4152 66.0825C97.5333 66.2963 97.6951 66.4828 97.89 66.63C98.3028 66.9453 98.8169 67.0981 99.3349 67.0594C99.8529 67.0207 100.339 66.7932 100.7 66.42L151.3 25.55L203.43 66.43C203.827 66.8134 204.358 67.0254 204.91 67.02C205.395 67.0247 205.866 66.8583 206.24 66.55C206.431 66.398 206.588 66.207 206.7 65.9896C206.812 65.7722 206.876 65.5335 206.888 65.2894C206.901 65.0453 206.861 64.8013 206.771 64.5738C206.682 64.3463 206.545 64.1404 206.37 63.97L152.72 21.56Z" fill="white"/>
<path d="M105.88 61.37V67.16L100.46 67.29L105.88 61.37Z" fill="#BAC2CA"/>
<path d="M105.86 67.5201H100.3C100.189 67.5201 100.082 67.4758 100.003 67.397C99.9243 67.3183 99.88 67.2114 99.88 67.1001C99.88 66.9887 99.9243 66.8818 100.003 66.8031C100.082 66.7243 100.189 66.6801 100.3 66.6801H105.86C105.971 66.6801 106.078 66.7243 106.157 66.8031C106.236 66.8818 106.28 66.9887 106.28 67.1001C106.28 67.2114 106.236 67.3183 106.157 67.397C106.078 67.4758 105.971 67.5201 105.86 67.5201Z" fill="black"/>
<path d="M153.35 27.56L106.35 65.25V61.77L151.24 25.89L153.35 27.56Z" fill="#BAC2CA"/>
<path d="M236 63.88H206.35C206.239 63.88 206.132 63.8357 206.053 63.757C205.974 63.6782 205.93 63.5714 205.93 63.46C205.93 63.3486 205.974 63.2418 206.053 63.163C206.132 63.0842 206.239 63.04 206.35 63.04H234.74L181.64 21.17H169.09C169.035 21.17 168.98 21.1591 168.929 21.138C168.878 21.1169 168.832 21.086 168.793 21.047C168.754 21.008 168.723 20.9617 168.702 20.9107C168.681 20.8597 168.67 20.8051 168.67 20.75C168.67 20.6948 168.681 20.6402 168.702 20.5892C168.723 20.5383 168.754 20.492 168.793 20.453C168.832 20.414 168.878 20.3831 168.929 20.3619C168.98 20.3408 169.035 20.33 169.09 20.33H181.79C181.884 20.3291 181.976 20.3609 182.05 20.42L236.22 63.13C236.289 63.184 236.339 63.2581 236.363 63.3419C236.388 63.4257 236.386 63.515 236.357 63.5975C236.328 63.6801 236.275 63.7516 236.204 63.8022C236.132 63.8528 236.047 63.88 235.96 63.88H236Z" fill="black"/>
<path d="M166.26 21.17H164.41C164.355 21.17 164.3 21.1591 164.249 21.138C164.198 21.1169 164.152 21.0859 164.113 21.0469C164.074 21.0079 164.043 20.9616 164.022 20.9107C164.001 20.8597 163.99 20.8051 163.99 20.75C163.99 20.6948 164.001 20.6402 164.022 20.5892C164.043 20.5383 164.074 20.492 164.113 20.453C164.152 20.414 164.198 20.383 164.249 20.3619C164.3 20.3408 164.355 20.33 164.41 20.33H166.26C166.315 20.33 166.37 20.3408 166.421 20.3619C166.472 20.383 166.518 20.414 166.557 20.453C166.596 20.492 166.627 20.5383 166.648 20.5892C166.669 20.6402 166.68 20.6948 166.68 20.75C166.68 20.8051 166.669 20.8597 166.648 20.9107C166.627 20.9616 166.596 21.0079 166.557 21.0469C166.518 21.0859 166.472 21.1169 166.421 21.138C166.37 21.1591 166.315 21.17 166.26 21.17Z" fill="black"/>
<path d="M151.17 21.24C151.059 21.24 150.952 21.1957 150.873 21.1169C150.794 21.0382 150.75 20.9313 150.75 20.82C150.75 20.7086 150.794 20.6017 150.873 20.523C150.952 20.4442 151.059 20.4 151.17 20.4L161.78 20.33C161.891 20.33 161.998 20.3742 162.077 20.453C162.156 20.5317 162.2 20.6386 162.2 20.75C162.201 20.8055 162.191 20.8607 162.171 20.9123C162.15 20.9639 162.119 21.0107 162.08 21.05C162.041 21.0893 161.994 21.1202 161.942 21.1408C161.891 21.1614 161.836 21.1713 161.78 21.17L151.18 21.24H151.17Z" fill="black"/>
<path d="M99.19 67.48C98.6319 67.4924 98.0847 67.324 97.63 67C97.3886 66.8125 97.1884 66.5772 97.0422 66.3088C96.8959 66.0403 96.8066 65.7446 96.78 65.44C96.7571 65.1414 96.7969 64.8412 96.8967 64.5588C96.9966 64.2763 97.1544 64.0179 97.36 63.8L149.47 21.32C149.696 21.0867 149.966 20.901 150.265 20.7739C150.564 20.6468 150.885 20.5809 151.21 20.58C151.54 20.5747 151.869 20.6347 152.176 20.7565C152.483 20.8784 152.763 21.0597 153 21.29L206.64 63.68C206.863 63.8935 207.038 64.1519 207.153 64.4381C207.269 64.7243 207.322 65.0317 207.31 65.34C207.296 65.6435 207.217 65.9405 207.079 66.2112C206.941 66.4819 206.747 66.7201 206.51 66.91C206.021 67.2905 205.412 67.4844 204.792 67.4569C204.173 67.4294 203.584 67.1824 203.13 66.76L151.3 26.09L101 66.75C100.766 66.9917 100.484 67.1816 100.173 67.3073C99.8608 67.4331 99.526 67.4919 99.19 67.48V67.48ZM151.25 21.39C151.031 21.3901 150.815 21.4344 150.614 21.5204C150.413 21.6063 150.231 21.732 150.08 21.89L97.94 64.38C97.819 64.5146 97.7279 64.6733 97.6728 64.8457C97.6176 65.0181 97.5996 65.2002 97.62 65.38C97.6301 65.5753 97.6827 65.766 97.7743 65.9387C97.8658 66.1115 97.9941 66.2621 98.15 66.38C98.4782 66.6323 98.8875 66.7554 99.3004 66.7259C99.7133 66.6964 100.101 66.5164 100.39 66.22L151 25.22C151.076 25.1624 151.169 25.1313 151.265 25.1313C151.361 25.1313 151.454 25.1624 151.53 25.22L203.66 66.09C203.958 66.3864 204.354 66.5641 204.774 66.5898C205.193 66.6156 205.608 66.4877 205.94 66.23C206.089 66.1075 206.21 65.9552 206.296 65.7829C206.382 65.6107 206.431 65.4224 206.44 65.23C206.451 65.0442 206.421 64.8581 206.352 64.6851C206.283 64.5122 206.176 64.3568 206.04 64.23L152.46 21.89C152.303 21.729 152.114 21.6017 151.906 21.5157C151.698 21.4298 151.475 21.387 151.25 21.39Z" fill="black"/>
<path d="M105.76 115.81C104.874 115.661 103.978 115.588 103.08 115.59C100.495 115.587 97.9463 116.194 95.6404 117.361C93.3345 118.529 91.3369 120.225 89.81 122.31C89.5124 122.701 89.0988 122.988 88.6282 123.13C88.1576 123.272 87.6542 123.262 87.19 123.1C84.9586 122.334 82.5454 122.276 80.2796 122.933C78.0138 123.59 76.0059 124.93 74.53 126.77C73.0835 128.809 72.2255 131.206 72.05 133.7H105.87L105.76 115.81Z" fill="white"/>
<path d="M75.62 125.8C76.9411 124.893 78.4432 124.283 80.0228 124.012C81.6024 123.74 83.222 123.815 84.77 124.23C90.42 125.52 91.1 124.16 92.77 122.12C94.44 120.08 101.04 117.19 105.97 118.58V115.9C105.97 115.9 100.22 114.64 95.39 117.49C90.56 120.34 89.88 122.56 89.13 122.87C88.38 123.18 88.13 123.35 85.76 122.7C83.39 122.05 78.17 122.84 75.49 125.93" fill="#DCE2E7"/>
<path d="M71.77 134.18C71.7148 134.177 71.6607 134.164 71.6107 134.14C71.5607 134.117 71.5159 134.084 71.4787 134.043C71.4416 134.002 71.4128 133.954 71.3942 133.902C71.3755 133.85 71.3673 133.795 71.37 133.74C71.48 130.41 74.09 126.68 74.2 126.52C75.3153 125.125 76.7306 124 78.3407 123.228C79.9508 122.456 81.7143 122.057 83.5 122.06C84.8101 122.056 86.1116 122.272 87.35 122.7C87.7284 122.835 88.1399 122.845 88.5247 122.73C88.9095 122.615 89.2476 122.38 89.49 122.06C91.0618 119.927 93.1119 118.193 95.4756 116.996C97.8393 115.8 100.451 115.174 103.1 115.17C104.018 115.168 104.934 115.241 105.84 115.39C105.95 115.407 106.049 115.467 106.114 115.557C106.18 115.647 106.207 115.76 106.19 115.87C106.173 115.98 106.113 116.079 106.022 116.144C105.932 116.21 105.82 116.237 105.71 116.22C104.847 116.08 103.974 116.01 103.1 116.01C100.583 116.016 98.1022 116.611 95.8568 117.749C93.6113 118.886 91.6637 120.534 90.17 122.56C89.8227 123.026 89.3349 123.368 88.7785 123.535C88.2222 123.702 87.6267 123.687 87.08 123.49C85.9269 123.099 84.7175 122.9 83.5 122.9C81.8441 122.889 80.2071 123.252 78.7111 123.962C77.2151 124.672 75.8987 125.71 74.86 127C74.86 127 72.29 130.66 72.19 133.74C72.1913 133.796 72.1815 133.853 72.1611 133.905C72.1407 133.958 72.1102 134.006 72.0712 134.047C72.0322 134.088 71.9855 134.121 71.9338 134.143C71.8821 134.166 71.8265 134.179 71.77 134.18V134.18Z" fill="black"/>
<path d="M106 121.54C105.889 121.54 105.782 121.496 105.703 121.417C105.624 121.338 105.58 121.231 105.58 121.12V90.81C105.58 90.6986 105.624 90.5918 105.703 90.513C105.782 90.4343 105.889 90.39 106 90.39C106.111 90.39 106.218 90.4343 106.297 90.513C106.376 90.5918 106.42 90.6986 106.42 90.81V121.12C106.42 121.231 106.376 121.338 106.297 121.417C106.218 121.496 106.111 121.54 106 121.54Z" fill="black"/>
<path d="M106 88C105.889 88 105.782 87.9558 105.703 87.877C105.624 87.7982 105.58 87.6914 105.58 87.58V62.45C105.58 62.3386 105.624 62.2318 105.703 62.153C105.782 62.0743 105.889 62.03 106 62.03C106.111 62.03 106.218 62.0743 106.297 62.153C106.376 62.2318 106.42 62.3386 106.42 62.45V87.58C106.42 87.6914 106.376 87.7982 106.297 87.877C106.218 87.9558 106.111 88 106 88Z" fill="black"/>
<path d="M199.23 134.13C199.174 134.13 199.119 134.119 199.067 134.097C199.015 134.075 198.969 134.044 198.929 134.003C198.89 133.963 198.86 133.916 198.839 133.864C198.819 133.812 198.809 133.756 198.81 133.7V63.19C198.81 63.0786 198.854 62.9718 198.933 62.893C199.012 62.8143 199.119 62.77 199.23 62.77C199.341 62.77 199.448 62.8143 199.527 62.893C199.606 62.9718 199.65 63.0786 199.65 63.19V133.7C199.651 133.756 199.641 133.812 199.621 133.864C199.6 133.916 199.57 133.963 199.531 134.003C199.491 134.044 199.445 134.075 199.393 134.097C199.341 134.119 199.286 134.13 199.23 134.13V134.13Z" fill="black"/>
<path d="M273.66 92.68C273.07 83.68 266.66 79.47 261.61 77.54C260.127 76.9811 258.866 75.9527 258.022 74.6114C257.177 73.27 256.793 71.6893 256.93 70.11C256.985 69.351 256.985 68.589 256.93 67.83C256.717 63.4634 254.803 59.3536 251.599 56.3792C248.396 53.4048 244.155 51.8017 239.785 51.9128C235.415 52.0238 231.261 53.8401 228.212 56.9733C225.164 60.1066 223.461 64.3082 223.47 68.68V69C223.496 70.9094 222.969 72.7856 221.955 74.4034C220.94 76.0211 219.48 77.3116 217.75 78.12C213.15 80.28 208.08 84.52 207.98 92.69C207.962 96.8904 209.555 100.938 212.43 104C215.32 108.64 226.89 112.1 240.73 112.1C253.58 112.1 264.47 109.1 268.28 104.98C271.59 101.91 274 97.53 273.66 92.68Z" fill="#EFF3F6"/>
<path d="M261.61 77.54C260.127 76.9812 258.866 75.9528 258.022 74.6114C257.177 73.2701 256.793 71.6894 256.93 70.11C256.985 69.351 256.985 68.589 256.93 67.83C256.805 65.3565 256.132 62.9416 254.961 60.7596C253.789 58.5777 252.147 56.683 250.155 55.2125C248.162 53.742 245.867 52.7324 243.437 52.2564C241.006 51.7804 238.5 51.8499 236.1 52.46V53.04C236.1 53.04 249.1 54.56 249.98 63.79C250.86 73.02 248.64 77.86 252.49 84.58C256.34 91.3 254.82 112.35 232.6 111.27V111.68C235.295 111.953 238.002 112.089 240.71 112.09C253.56 112.09 264.45 109.09 268.26 104.97C271.57 101.91 273.96 97.53 273.64 92.68C273.07 83.7 266.68 79.47 261.61 77.54Z" fill="#DCE2E7"/>
<path d="M240.73 112.52C226.91 112.52 215.12 109.1 212.07 104.21C209.158 101.077 207.558 96.9469 207.6 92.6699C207.71 84.1599 213.1 79.8399 217.6 77.6699C219.251 76.9041 220.646 75.6794 221.62 74.142C222.593 72.6046 223.104 70.8196 223.09 69V68.68C223.089 66.3628 223.558 64.0694 224.467 61.9382C225.377 59.807 226.708 57.8821 228.382 56.2795C230.055 54.6769 232.036 53.4299 234.205 52.6136C236.374 51.7973 238.685 51.4287 241 51.5299C245.26 51.7425 249.292 53.5226 252.319 56.5278C255.347 59.533 257.156 63.5512 257.4 67.8099C257.45 68.5891 257.45 69.3708 257.4 70.15C257.268 71.6385 257.628 73.1293 258.425 74.3937C259.221 75.658 260.41 76.6263 261.81 77.15C267.09 79.15 273.53 83.48 274.13 92.65C274.211 95.0327 273.758 97.4033 272.804 99.5885C271.851 101.774 270.421 103.718 268.62 105.28C264.59 109.6 253.4 112.52 240.73 112.52ZM240.24 52.3499C235.912 52.3552 231.764 54.0781 228.706 57.14C225.648 60.2019 223.93 64.3524 223.93 68.68V69C223.957 70.9955 223.404 72.956 222.339 74.6439C221.274 76.3318 219.743 77.6747 217.93 78.51C213.64 80.51 208.51 84.6199 208.41 92.6999C208.385 96.7794 209.92 100.714 212.7 103.7C215.61 108.34 227.36 111.7 240.7 111.7C253.15 111.7 264.09 108.89 267.94 104.7C271.58 101.33 273.49 96.9799 273.21 92.6999C272.63 83.9699 266.48 79.85 261.43 77.93C259.857 77.3444 258.52 76.2576 257.625 74.8372C256.731 73.4168 256.328 71.7417 256.48 70.07C256.535 69.3276 256.535 68.5823 256.48 67.8399C256.248 63.8108 254.543 60.0077 251.688 57.1549C248.834 54.3021 245.029 52.599 241 52.3699L240.24 52.3499Z" fill="black"/>
<path d="M101.58 123.73C101.58 123.73 107.91 122.16 111.3 123.99C114.69 125.82 115.41 128.56 117.17 129.41C118.93 130.26 120.5 129.93 122.17 128.82C123.84 127.71 129.87 128.23 131.24 132.74C131.24 132.74 130 126.28 124.13 126.6C118.26 126.92 120.34 129.28 117.6 125.95C114.86 122.62 109.67 118.18 101.58 123.73Z" fill="#DCE2E7"/>
<path d="M131.58 134.47C131.526 134.471 131.473 134.46 131.423 134.44C131.373 134.419 131.328 134.389 131.29 134.35C131.243 134.306 131.207 134.251 131.184 134.19C131.161 134.13 131.153 134.064 131.16 134C131.188 133.057 131.025 132.119 130.682 131.241C130.338 130.363 129.82 129.563 129.16 128.89C128.546 128.257 127.811 127.753 126.998 127.41C126.186 127.066 125.312 126.889 124.43 126.89C123.084 126.888 121.77 127.304 120.67 128.08C120.458 128.227 120.216 128.325 119.962 128.364C119.707 128.404 119.446 128.386 119.2 128.31C118.931 128.231 118.683 128.091 118.475 127.903C118.267 127.714 118.105 127.481 118 127.22C116.62 123.8 112.81 121.51 108.53 121.51C106.953 121.478 105.388 121.796 103.949 122.443C102.51 123.09 101.233 124.049 100.21 125.25C99.8819 125.665 99.4357 125.97 98.9303 126.125C98.4249 126.281 97.8843 126.279 97.38 126.12C96.4342 125.828 95.4499 125.68 94.46 125.68C94.3987 125.689 94.3361 125.686 94.2765 125.669C94.2169 125.651 94.1617 125.622 94.1146 125.581C94.0676 125.541 94.0298 125.491 94.0039 125.435C93.978 125.378 93.9646 125.317 93.9646 125.255C93.9646 125.193 93.978 125.132 94.0039 125.075C94.0298 125.019 94.0676 124.969 94.1146 124.929C94.1617 124.888 94.2169 124.859 94.2765 124.842C94.3361 124.825 94.3987 124.821 94.46 124.83C95.5349 124.828 96.6038 124.99 97.63 125.31C97.972 125.419 98.3392 125.421 98.6824 125.316C99.0256 125.21 99.3284 125.002 99.55 124.72C100.659 123.427 102.042 122.397 103.599 121.705C105.156 121.013 106.847 120.677 108.55 120.72C113.17 120.72 117.29 123.22 118.8 126.95C118.856 127.094 118.945 127.224 119.059 127.328C119.174 127.432 119.311 127.508 119.46 127.55C119.585 127.59 119.718 127.601 119.848 127.582C119.978 127.563 120.102 127.514 120.21 127.44C121.653 126.421 123.414 125.955 125.173 126.125C126.931 126.296 128.57 127.093 129.79 128.37C130.528 129.135 131.104 130.042 131.484 131.035C131.863 132.028 132.039 133.088 132 134.15C131.997 134.204 131.984 134.257 131.961 134.306C131.938 134.354 131.906 134.398 131.866 134.434C131.826 134.47 131.779 134.498 131.728 134.517C131.678 134.535 131.624 134.543 131.57 134.54L131.58 134.47Z" fill="black"/>
<path d="M94.49 125.24C93.9949 125.237 93.5003 125.271 93.01 125.34Z" fill="white"/>
<path d="M93 125.76C92.8983 125.761 92.7996 125.725 92.7224 125.659C92.6451 125.593 92.5945 125.501 92.58 125.4C92.5656 125.289 92.5952 125.177 92.6624 125.087C92.7297 124.997 92.8293 124.937 92.94 124.92C93.4502 124.848 93.9648 124.812 94.48 124.81C94.5815 124.826 94.6741 124.877 94.741 124.955C94.8079 125.033 94.8446 125.132 94.8446 125.235C94.8446 125.338 94.8079 125.437 94.741 125.515C94.6741 125.593 94.5815 125.644 94.48 125.66C94.0048 125.658 93.5302 125.692 93.06 125.76H93Z" fill="black"/>
<path d="M195.17 65.44H109.23C109.164 65.4275 109.104 65.3922 109.06 65.3401C109.017 65.2881 108.994 65.2226 108.994 65.155C108.994 65.0874 109.017 65.0219 109.06 64.9699C109.104 64.9178 109.164 64.8825 109.23 64.87H195.17C195.236 64.8825 195.296 64.9178 195.34 64.9699C195.383 65.0219 195.406 65.0874 195.406 65.155C195.406 65.2226 195.383 65.2881 195.34 65.3401C195.296 65.3922 195.236 65.4275 195.17 65.44V65.44Z" fill="black"/>
<path d="M197.67 62.44H174.45C174.376 62.44 174.305 62.4105 174.252 62.358C174.199 62.3055 174.17 62.2343 174.17 62.16C174.172 62.0865 174.203 62.0168 174.255 61.9648C174.307 61.9128 174.377 61.8825 174.45 61.88H197.67C197.743 61.8825 197.813 61.9128 197.865 61.9648C197.917 62.0168 197.947 62.0865 197.95 62.16C197.95 62.2343 197.92 62.3055 197.868 62.358C197.815 62.4105 197.744 62.44 197.67 62.44V62.44Z" fill="black"/>
<path d="M171.52 62.44H113.93C113.893 62.4414 113.856 62.4351 113.821 62.4216C113.787 62.408 113.755 62.3874 113.729 62.3611C113.703 62.3348 113.682 62.3034 113.668 62.2688C113.655 62.2342 113.649 62.1972 113.65 62.16C113.65 62.0857 113.68 62.0145 113.732 61.962C113.785 61.9095 113.856 61.88 113.93 61.88H171.52C171.593 61.8825 171.663 61.9128 171.715 61.9648C171.767 62.0168 171.798 62.0865 171.8 62.16C171.8 62.2343 171.77 62.3055 171.718 62.358C171.665 62.4105 171.594 62.44 171.52 62.44Z" fill="black"/>
<path d="M81.25 61.5099C81.5396 61.5071 81.8224 61.4222 82.0657 61.265C82.3089 61.1078 82.5025 60.8848 82.624 60.6219C82.7455 60.359 82.7898 60.067 82.752 59.7799C82.7141 59.4928 82.5955 59.2223 82.41 58.9999C80.98 57.3299 78.1 56.1899 74.78 56.1899C74.252 56.1892 73.7245 56.2192 73.2 56.2799C72.9432 56.2803 72.6962 56.1818 72.51 56.0049C72.3238 55.8281 72.2128 55.5864 72.2 55.3299V55.3299C72.2 52.4399 68.55 50.0999 64.04 50.0999C62.8511 50.093 61.6678 50.265 60.53 50.6099C60.4112 50.6461 60.2862 50.6575 60.1627 50.6435C60.0393 50.6295 59.9201 50.5904 59.8123 50.5286C59.7046 50.4667 59.6106 50.3835 59.5363 50.284C59.4619 50.1845 59.4088 50.0708 59.38 49.9499C58.43 45.6599 53.83 42.3999 48.29 42.3999C42 42.3599 37 46.4699 37 51.5499C36.9901 51.7298 36.9901 51.9101 37 52.0899C35.7689 51.8839 34.5049 52.1311 33.4422 52.7856C32.3794 53.4402 31.5899 54.4578 31.22 55.6499C31.1483 55.8766 30.9916 56.0668 30.7828 56.1805C30.574 56.2942 30.3293 56.3227 30.1 56.2599C29.6384 56.1271 29.1604 56.0598 28.68 56.0599C27.8894 56.059 27.109 56.2387 26.3985 56.5853C25.6879 56.932 25.0659 57.4363 24.58 58.0599C24.3297 58.3754 24.1736 58.755 24.1294 59.1553C24.0853 59.5555 24.1549 59.9601 24.3304 60.3225C24.5058 60.6849 24.78 60.9905 25.1213 61.2041C25.4627 61.4176 25.8573 61.5306 26.26 61.5299L81.25 61.5099Z" fill="#E6EBEF"/>
<path d="M228.38 25.32C228.033 25.319 227.693 25.2187 227.401 25.031C227.109 24.8433 226.877 24.576 226.732 24.2606C226.587 23.9453 226.535 23.5951 226.583 23.2512C226.63 22.9074 226.775 22.5843 227 22.32C228.71 20.32 232.13 18.97 236.08 18.97C236.708 18.9706 237.336 19.0074 237.96 19.08C238.118 19.0969 238.278 19.0803 238.429 19.0311C238.581 18.9819 238.72 18.9014 238.838 18.7947C238.956 18.688 239.05 18.5577 239.114 18.4121C239.178 18.2666 239.211 18.1091 239.21 17.95C239.21 14.51 243.56 11.72 248.93 11.72C250.345 11.7157 251.753 11.9178 253.11 12.32C253.25 12.3639 253.398 12.3786 253.545 12.3633C253.691 12.3479 253.833 12.3028 253.961 12.2306C254.089 12.1585 254.202 12.061 254.291 11.9439C254.38 11.8269 254.444 11.6929 254.48 11.55C255.6 6.43005 261.08 2.55005 267.68 2.55005C275.1 2.55005 281.12 7.45005 281.12 13.55C281.12 13.76 281.12 13.97 281.12 14.19C281.408 14.1048 281.702 14.0413 282 14C283.334 13.9871 284.637 14.4028 285.717 15.1859C286.797 15.969 287.597 17.0781 288 18.35C288.083 18.6203 288.269 18.8471 288.518 18.9817C288.767 19.1163 289.058 19.1481 289.33 19.07C289.882 18.909 290.455 18.8281 291.03 18.83C291.969 18.8297 292.895 19.0418 293.741 19.4505C294.586 19.8592 295.327 20.4539 295.91 21.1901C296.207 21.5659 296.392 22.0176 296.443 22.4936C296.495 22.9696 296.412 23.4505 296.204 23.8815C295.995 24.3124 295.669 24.6759 295.263 24.9303C294.858 25.1847 294.389 25.3198 293.91 25.32H228.38Z" fill="#E6EBEF"/>
<path d="M240.13 134.25C240.075 134.251 240.021 134.242 239.97 134.222C239.919 134.202 239.873 134.172 239.834 134.133C239.794 134.095 239.763 134.05 239.742 133.999C239.721 133.949 239.71 133.895 239.71 133.84V84.63C239.71 84.5186 239.754 84.4117 239.833 84.333C239.912 84.2542 240.019 84.21 240.13 84.21C240.241 84.21 240.348 84.2542 240.427 84.333C240.506 84.4117 240.55 84.5186 240.55 84.63V133.84C240.55 133.895 240.539 133.949 240.518 133.999C240.497 134.05 240.466 134.095 240.426 134.133C240.387 134.172 240.341 134.202 240.29 134.222C240.239 134.242 240.185 134.251 240.13 134.25V134.25Z" fill="black"/>
<path d="M85.22 134.09C85.164 134.09 85.1085 134.079 85.0569 134.057C85.0053 134.035 84.9586 134.004 84.9194 133.963C84.8803 133.923 84.8496 133.876 84.8291 133.824C84.8085 133.772 84.7987 133.716 84.8 133.66V105.66C84.8 105.549 84.8442 105.442 84.923 105.363C85.0018 105.284 85.1086 105.24 85.22 105.24C85.3314 105.24 85.4382 105.284 85.517 105.363C85.5957 105.442 85.64 105.549 85.64 105.66V133.66C85.6413 133.716 85.6315 133.772 85.6109 133.824C85.5904 133.876 85.5597 133.923 85.5206 133.963C85.4814 134.004 85.4347 134.035 85.3831 134.057C85.3314 134.079 85.276 134.09 85.22 134.09Z" fill="black"/>
<path d="M239.92 100.7C239.835 100.702 239.751 100.677 239.68 100.63L228.49 92.77C228.4 92.7039 228.339 92.6054 228.321 92.4953C228.302 92.3851 228.327 92.2721 228.39 92.18C228.422 92.1344 228.463 92.0955 228.51 92.0657C228.557 92.036 228.609 92.0158 228.664 92.0065C228.719 91.9972 228.775 91.9989 228.829 92.0115C228.884 92.0241 228.935 92.0474 228.98 92.08L240.17 99.94C240.259 100.004 240.32 100.101 240.339 100.21C240.357 100.318 240.333 100.43 240.27 100.52C240.231 100.576 240.178 100.622 240.117 100.654C240.056 100.685 239.989 100.701 239.92 100.7V100.7Z" fill="black"/>
<path d="M240.31 106.55C240.243 106.549 240.177 106.533 240.116 106.504C240.056 106.474 240.002 106.432 239.96 106.38C239.897 106.288 239.872 106.175 239.891 106.065C239.909 105.955 239.97 105.856 240.06 105.79L248.91 99.43C248.955 99.3969 249.005 99.373 249.059 99.3596C249.113 99.3462 249.169 99.3436 249.224 99.352C249.279 99.3603 249.331 99.3795 249.379 99.4083C249.426 99.4372 249.467 99.4751 249.5 99.52C249.563 99.6121 249.588 99.7251 249.569 99.8352C249.551 99.9454 249.49 100.044 249.4 100.11L240.55 106.47C240.482 106.524 240.397 106.552 240.31 106.55V106.55Z" fill="black"/>
<path d="M152.27 52.87C154.827 52.87 156.9 50.4299 156.9 47.42C156.9 44.41 154.827 41.97 152.27 41.97C149.713 41.97 147.64 44.41 147.64 47.42C147.64 50.4299 149.713 52.87 152.27 52.87Z" fill="#EFF1EF"/>
<path d="M151.41 53.82C150.109 53.8498 148.828 53.4911 147.731 52.7898C146.634 52.0884 145.772 51.0761 145.253 49.8822C144.734 48.6883 144.583 47.3669 144.818 46.0866C145.054 44.8063 145.665 43.6252 146.575 42.6941C147.485 41.763 148.651 41.1241 149.926 40.859C151.2 40.5938 152.525 40.7145 153.731 41.2055C154.936 41.6966 155.968 42.5357 156.695 43.6159C157.421 44.696 157.81 45.9682 157.81 47.27C157.826 48.9861 157.162 50.6387 155.962 51.8662C154.763 53.0938 153.126 53.7962 151.41 53.82V53.82ZM151.41 41.57C150.277 41.5421 149.162 41.8526 148.206 42.4618C147.25 43.071 146.498 43.9511 146.045 44.9899C145.592 46.0287 145.459 47.1789 145.663 48.2937C145.867 49.4084 146.398 50.4371 147.19 51.2483C147.981 52.0596 148.996 52.6165 150.105 52.848C151.215 53.0795 152.368 52.9751 153.418 52.5481C154.467 52.1211 155.366 51.3909 155.999 50.4508C156.632 49.5106 156.97 48.4032 156.97 47.27C156.986 45.7775 156.41 44.3396 155.368 43.2712C154.326 42.2028 152.902 41.591 151.41 41.57V41.57Z" fill="black"/>
<path d="M152.26 53.61C150.795 53.3274 149.472 52.5486 148.514 51.4048C147.556 50.2609 147.021 48.8219 147 47.33C146.999 46.2711 147.263 45.2287 147.768 44.2978C148.273 43.3669 149.002 42.577 149.89 42C149.921 41.9797 149.955 41.9656 149.992 41.9586C150.028 41.9516 150.065 41.9518 150.102 41.9592C150.138 41.9667 150.172 41.9812 150.203 42.0019C150.233 42.0226 150.26 42.0491 150.28 42.08C150.3 42.1109 150.314 42.1454 150.321 42.1817C150.328 42.218 150.328 42.2554 150.321 42.2916C150.313 42.3278 150.299 42.3622 150.278 42.3928C150.257 42.4234 150.231 42.4497 150.2 42.47C149.385 42.9889 148.714 43.7039 148.248 44.5495C147.781 45.3951 147.534 46.3443 147.53 47.31C147.551 48.6683 148.038 49.978 148.911 51.0195C149.783 52.061 150.987 52.7709 152.32 53.03C152.356 53.0372 152.391 53.0514 152.421 53.0719C152.452 53.0924 152.478 53.1187 152.499 53.1493C152.519 53.18 152.533 53.2144 152.54 53.2505C152.547 53.2867 152.547 53.3239 152.54 53.36C152.529 53.4273 152.495 53.4888 152.444 53.5342C152.393 53.5797 152.328 53.6064 152.26 53.61V53.61Z" fill="black"/>
<path d="M162.94 122.45V87.11H182.25V122.45" fill="#DAD3E4"/>
<path d="M182.25 122.87C182.194 122.871 182.138 122.861 182.086 122.841C182.034 122.82 181.987 122.79 181.947 122.751C181.906 122.711 181.875 122.665 181.853 122.613C181.831 122.561 181.82 122.506 181.82 122.45V87.5399H163.36V122.45C163.36 122.561 163.316 122.668 163.237 122.747C163.158 122.826 163.051 122.87 162.94 122.87C162.829 122.87 162.722 122.826 162.643 122.747C162.564 122.668 162.52 122.561 162.52 122.45V87.1199C162.519 87.064 162.529 87.0083 162.549 86.9561C162.57 86.904 162.6 86.8565 162.639 86.8165C162.679 86.7764 162.725 86.7446 162.777 86.7228C162.829 86.7011 162.884 86.6899 162.94 86.6899H182.25C182.306 86.6899 182.361 86.7011 182.413 86.7228C182.465 86.7446 182.511 86.7764 182.551 86.8165C182.59 86.8565 182.62 86.904 182.641 86.9561C182.661 87.0083 182.671 87.064 182.67 87.1199V122.45C182.67 122.561 182.626 122.668 182.547 122.747C182.468 122.826 182.361 122.87 182.25 122.87V122.87Z" fill="black"/>
<path d="M181.61 134.27H151.61C151.554 134.271 151.498 134.261 151.446 134.241C151.394 134.22 151.347 134.19 151.307 134.151C151.266 134.111 151.235 134.065 151.213 134.013C151.191 133.961 151.18 133.906 151.18 133.85V128.1C151.18 128.044 151.191 127.989 151.213 127.937C151.235 127.885 151.266 127.839 151.307 127.799C151.347 127.76 151.394 127.73 151.446 127.709C151.498 127.689 151.554 127.679 151.61 127.68H156.61V122.47C156.604 122.413 156.61 122.356 156.627 122.302C156.644 122.248 156.671 122.197 156.707 122.154C156.743 122.11 156.788 122.074 156.838 122.048C156.888 122.021 156.943 122.005 157 122H181.58C181.636 122 181.691 122.011 181.743 122.033C181.795 122.055 181.841 122.086 181.881 122.127C181.92 122.167 181.95 122.214 181.971 122.266C181.991 122.318 182.001 122.374 182 122.43V133.81C182.005 133.866 182 133.922 181.983 133.976C181.966 134.03 181.939 134.08 181.902 134.123C181.866 134.165 181.821 134.201 181.771 134.226C181.721 134.251 181.666 134.266 181.61 134.27ZM152 133.43H181.2V122.89H157.45V128.1C157.45 128.211 157.406 128.318 157.327 128.397C157.248 128.476 157.141 128.52 157.03 128.52H152.03L152 133.43Z" fill="black"/>
<path d="M178.79 122.47V128.1H173.34V133.85H178.79H179.42H185.68V122.47H178.79Z" fill="#BAC2CA"/>
<path d="M185.68 134.27H173.33C173.219 134.27 173.112 134.226 173.033 134.147C172.954 134.068 172.91 133.961 172.91 133.85V128.1C172.91 127.989 172.954 127.882 173.033 127.803C173.112 127.724 173.219 127.68 173.33 127.68H178.33V122.47C178.329 122.414 178.339 122.358 178.359 122.306C178.38 122.254 178.41 122.207 178.449 122.167C178.489 122.126 178.535 122.095 178.587 122.073C178.639 122.051 178.694 122.04 178.75 122.04H185.64C185.696 122.04 185.751 122.051 185.803 122.073C185.855 122.095 185.901 122.126 185.941 122.167C185.98 122.207 186.01 122.254 186.031 122.306C186.051 122.358 186.061 122.414 186.06 122.47V133.85C186.06 133.955 186.022 134.056 185.951 134.134C185.881 134.211 185.784 134.26 185.68 134.27V134.27ZM173.76 133.43H185.25V122.89H179.25V128.1C179.25 128.156 179.239 128.211 179.217 128.263C179.195 128.315 179.164 128.361 179.123 128.401C179.083 128.44 179.036 128.47 178.984 128.491C178.932 128.511 178.876 128.521 178.82 128.52H173.82L173.76 133.43Z" fill="black"/>
<path d="M152.2 51.4C152.127 51.3975 152.057 51.3672 152.005 51.3152C151.953 51.2632 151.922 51.1934 151.92 51.12V42.91C151.932 42.8435 151.968 42.7835 152.02 42.7404C152.072 42.6972 152.137 42.6736 152.205 42.6736C152.273 42.6736 152.338 42.6972 152.39 42.7404C152.442 42.7835 152.478 42.8435 152.49 42.91V51.12C152.487 51.1951 152.456 51.2664 152.402 51.3186C152.348 51.3708 152.275 51.4 152.2 51.4Z" fill="black"/>
<path d="M157.21 47.3H148.63C148.564 47.2875 148.504 47.2522 148.46 47.2001C148.417 47.1481 148.394 47.0826 148.394 47.015C148.394 46.9474 148.417 46.8819 148.46 46.8298C148.504 46.7778 148.564 46.7425 148.63 46.73H157.21C157.276 46.7425 157.336 46.7778 157.38 46.8298C157.423 46.8819 157.446 46.9474 157.446 47.015C157.446 47.0826 157.423 47.1481 157.38 47.2001C157.336 47.2522 157.276 47.2875 157.21 47.3V47.3Z" fill="black"/>
<path d="M148.21 78.79H118.16V104.15H148.21V78.79Z" fill="#E6EBEF"/>
<path opacity="0.7" d="M116.87 98.96L124.18 78.79H117.59L116.87 80.44V98.96Z" fill="white"/>
<path opacity="0.7" d="M125.99 104.15H121.89L131.46 78.79H135.56L125.99 104.15Z" fill="white"/>
<path d="M148.46 104.77H116.75C116.694 104.771 116.638 104.761 116.586 104.741C116.534 104.72 116.487 104.69 116.447 104.651C116.406 104.611 116.375 104.565 116.353 104.513C116.331 104.461 116.32 104.406 116.32 104.35V77.41C116.32 77.354 116.331 77.2985 116.353 77.2469C116.375 77.1953 116.406 77.1485 116.447 77.1094C116.487 77.0703 116.534 77.0395 116.586 77.019C116.638 76.9985 116.694 76.9887 116.75 76.99H148.46C148.571 76.99 148.678 77.0342 148.757 77.113C148.836 77.1918 148.88 77.2986 148.88 77.41V104.35C148.88 104.461 148.836 104.568 148.757 104.647C148.678 104.726 148.571 104.77 148.46 104.77ZM117.17 103.92H148V77.84H117.17V103.92Z" fill="black"/>
<path d="M118.18 103.08C118.106 103.08 118.035 103.05 117.982 102.998C117.929 102.945 117.9 102.874 117.9 102.8V78.8C117.9 78.7257 117.929 78.6545 117.982 78.602C118.035 78.5495 118.106 78.52 118.18 78.52H148.58C148.617 78.5186 148.654 78.5248 148.689 78.5384C148.723 78.552 148.755 78.5726 148.781 78.5989C148.807 78.6251 148.828 78.6566 148.842 78.6912C148.855 78.7258 148.861 78.7628 148.86 78.8C148.86 78.8742 148.83 78.9455 148.778 78.998C148.725 79.0505 148.654 79.08 148.58 79.08H118.47V102.8C118.47 102.838 118.462 102.875 118.448 102.909C118.433 102.944 118.412 102.975 118.384 103.002C118.357 103.028 118.325 103.048 118.29 103.062C118.255 103.075 118.218 103.081 118.18 103.08V103.08Z" fill="black"/>
<path d="M127.6 102.75C127.489 102.75 127.382 102.706 127.303 102.627C127.224 102.548 127.18 102.441 127.18 102.33V89.19C127.18 89.1349 127.191 89.0803 127.212 89.0293C127.233 88.9783 127.264 88.932 127.303 88.893C127.342 88.854 127.388 88.8231 127.439 88.802C127.49 88.7809 127.545 88.77 127.6 88.77C127.711 88.77 127.818 88.8143 127.897 88.893C127.976 88.9718 128.02 89.0786 128.02 89.19V102.33C128.021 102.386 128.011 102.441 127.991 102.492C127.97 102.544 127.939 102.591 127.9 102.63C127.861 102.669 127.814 102.7 127.762 102.721C127.711 102.741 127.656 102.751 127.6 102.75V102.75Z" fill="black"/>
<path d="M127.6 87.34C127.489 87.34 127.382 87.2958 127.303 87.217C127.224 87.1382 127.18 87.0314 127.18 86.92V80.82C127.18 80.7086 127.224 80.6018 127.303 80.523C127.382 80.4443 127.489 80.4 127.6 80.4C127.656 80.3987 127.711 80.4086 127.762 80.4292C127.814 80.4498 127.861 80.4807 127.9 80.52C127.939 80.5593 127.97 80.6061 127.991 80.6577C128.011 80.7093 128.021 80.7645 128.02 80.82V86.92C128.02 87.0314 127.976 87.1382 127.897 87.217C127.818 87.2958 127.711 87.34 127.6 87.34Z" fill="black"/>
<path d="M137.57 95.7199C137.514 95.72 137.459 95.7088 137.407 95.687C137.355 95.6653 137.309 95.6335 137.269 95.5934C137.23 95.5533 137.2 95.5059 137.179 95.4537C137.159 95.4016 137.149 95.3459 137.15 95.2899V80.8199C137.166 80.7184 137.217 80.6258 137.295 80.559C137.373 80.4921 137.472 80.4553 137.575 80.4553C137.678 80.4553 137.777 80.4921 137.855 80.559C137.933 80.6258 137.984 80.7184 138 80.8199V95.2899C138 95.404 137.955 95.5134 137.874 95.594C137.793 95.6746 137.684 95.7199 137.57 95.7199Z" fill="black"/>
<path d="M137.57 102.75C137.459 102.75 137.352 102.706 137.273 102.627C137.194 102.548 137.15 102.441 137.15 102.33V97.5601C137.166 97.4585 137.217 97.366 137.295 97.2991C137.373 97.2322 137.472 97.1954 137.575 97.1954C137.678 97.1954 137.777 97.2322 137.855 97.2991C137.933 97.366 137.984 97.4585 138 97.5601V102.33C138 102.386 137.989 102.442 137.967 102.493C137.945 102.545 137.914 102.591 137.873 102.631C137.833 102.67 137.786 102.7 137.734 102.721C137.682 102.742 137.626 102.751 137.57 102.75V102.75Z" fill="black"/>
<path d="M148.44 91.51H120.08C119.969 91.51 119.862 91.4658 119.783 91.387C119.704 91.3083 119.66 91.2014 119.66 91.09C119.66 90.9787 119.704 90.8718 119.783 90.7931C119.862 90.7143 119.969 90.67 120.08 90.67H148.44C148.551 90.67 148.658 90.7143 148.737 90.7931C148.816 90.8718 148.86 90.9787 148.86 91.09C148.86 91.2014 148.816 91.3083 148.737 91.387C148.658 91.4658 148.551 91.51 148.44 91.51Z" fill="black"/>
<path d="M174.63 89.19H154.89L156.2 86.19C156.444 85.6267 156.735 85.0848 157.07 84.57C157.812 83.4631 158.78 82.5262 159.911 81.8211C161.042 81.1161 162.309 80.659 163.63 80.48V80.48L182.15 80.42L174.63 89.19Z" fill="#E6EBEF"/>
<path d="M174.63 89.61H154.89C154.82 89.6098 154.752 89.5923 154.691 89.5591C154.63 89.526 154.578 89.4782 154.54 89.42C154.508 89.3581 154.492 89.2895 154.492 89.22C154.492 89.1505 154.508 89.0819 154.54 89.02L155.85 86.02C156.104 85.4334 156.405 84.8682 156.75 84.33C157.526 83.1718 158.538 82.1915 159.721 81.4537C160.903 80.7159 162.229 80.2374 163.61 80.05L182.15 80C182.231 79.9995 182.31 80.023 182.378 80.0675C182.445 80.112 182.498 80.1755 182.53 80.25C182.565 80.3226 182.579 80.404 182.568 80.4841C182.557 80.5641 182.523 80.6392 182.47 80.7L175 89.47C174.955 89.5219 174.897 89.5619 174.833 89.5863C174.768 89.6107 174.698 89.6189 174.63 89.61V89.61ZM155.54 88.77H174.44L181.23 80.86H163.63C162.379 81.0378 161.18 81.4769 160.11 82.1488C159.04 82.8208 158.123 83.7105 157.42 84.76C157.099 85.2569 156.818 85.7785 156.58 86.32L155.54 88.77Z" fill="black"/>
<path d="M182.21 89.19H173.46L174.76 86.19C175.267 85.0351 175.959 83.971 176.81 83.04C178.067 81.7008 179.742 80.8296 181.56 80.57L182.2 80.48L182.21 89.19Z" fill="#BAC2CA"/>
<path d="M182.21 89.61H173.46C173.389 89.6114 173.318 89.5947 173.255 89.5615C173.192 89.5283 173.139 89.4796 173.1 89.42C173.068 89.358 173.052 89.2895 173.052 89.22C173.052 89.1504 173.068 89.0819 173.1 89.02L174.4 86.02C174.924 84.8195 175.644 83.7144 176.53 82.75C177.85 81.336 179.615 80.4182 181.53 80.15L182.16 80.05C182.221 80.0409 182.282 80.0451 182.341 80.0624C182.4 80.0796 182.454 80.1095 182.5 80.15C182.548 80.1877 182.587 80.2364 182.613 80.292C182.639 80.3476 182.652 80.4086 182.65 80.47V89.17C182.647 89.281 182.604 89.3873 182.53 89.47C182.49 89.5149 182.44 89.5507 182.385 89.5748C182.33 89.599 182.27 89.611 182.21 89.61V89.61ZM174.1 88.77H181.78V81H181.63C179.903 81.2395 178.31 82.0657 177.12 83.34C176.296 84.2254 175.62 85.2385 175.12 86.34L174.1 88.77Z" fill="black"/>
<path d="M129.48 104C129.482 102.718 128.991 101.484 128.109 100.553C127.226 99.6228 126.021 99.0667 124.74 99C123.78 99.0126 122.847 99.3235 122.071 99.8896C121.295 100.456 120.715 101.249 120.41 102.16C120.072 101.637 119.609 101.206 119.062 100.908C118.515 100.609 117.903 100.452 117.28 100.45C116.311 100.469 115.383 100.846 114.675 101.509C113.968 102.172 113.531 103.074 113.45 104.04" fill="white"/>
<path d="M113.45 104C113.339 103.985 113.237 103.928 113.167 103.841C113.096 103.753 113.061 103.642 113.07 103.53C113.158 102.728 113.471 101.967 113.973 101.335C114.475 100.704 115.146 100.228 115.908 99.9617C116.67 99.6959 117.492 99.6514 118.278 99.8334C119.064 100.015 119.782 100.416 120.35 100.99C120.782 100.191 121.421 99.5226 122.201 99.0562C122.98 98.5898 123.872 98.3424 124.78 98.34C126.143 98.3756 127.441 98.9344 128.403 99.9007C129.366 100.867 129.92 102.166 129.95 103.53C129.934 103.631 129.883 103.724 129.805 103.791C129.727 103.858 129.628 103.895 129.525 103.895C129.422 103.895 129.323 103.858 129.245 103.791C129.167 103.724 129.116 103.631 129.1 103.53C129.075 102.389 128.613 101.302 127.809 100.492C127.005 99.6828 125.92 99.213 124.78 99.18C123.924 99.1844 123.09 99.4489 122.388 99.9382C121.687 100.428 121.15 101.119 120.85 101.92C120.825 101.993 120.78 102.057 120.72 102.105C120.66 102.153 120.587 102.182 120.51 102.19C120.434 102.201 120.357 102.191 120.286 102.161C120.216 102.131 120.155 102.082 120.11 102.02C119.71 101.45 119.146 101.016 118.493 100.776C117.841 100.535 117.13 100.499 116.456 100.673C115.782 100.847 115.177 101.222 114.723 101.749C114.268 102.275 113.984 102.928 113.91 103.62C113.905 103.675 113.889 103.729 113.863 103.778C113.837 103.827 113.802 103.871 113.759 103.906C113.716 103.941 113.667 103.968 113.614 103.984C113.561 104 113.505 104.005 113.45 104Z" fill="black"/>
<path d="M127.51 104C127.506 102.813 127.96 101.67 128.778 100.809C129.596 99.9486 130.714 99.4367 131.9 99.38C132.788 99.3906 133.65 99.6776 134.367 100.201C135.083 100.724 135.619 101.458 135.9 102.3C136.215 101.818 136.645 101.421 137.151 101.145C137.657 100.87 138.224 100.723 138.8 100.72C139.696 100.737 140.555 101.086 141.209 101.699C141.863 102.312 142.266 103.146 142.34 104.04" fill="white"/>
<path d="M142.34 104C142.236 103.998 142.136 103.959 142.059 103.889C141.981 103.819 141.932 103.723 141.92 103.62C141.852 102.987 141.593 102.391 141.177 101.909C140.762 101.427 140.209 101.084 139.593 100.924C138.978 100.764 138.328 100.796 137.73 101.015C137.133 101.234 136.617 101.63 136.25 102.15C136.206 102.213 136.145 102.263 136.074 102.294C136.004 102.325 135.926 102.336 135.85 102.326C135.773 102.315 135.701 102.284 135.641 102.235C135.581 102.187 135.536 102.123 135.51 102.05C135.234 101.315 134.741 100.681 134.096 100.232C133.451 99.7842 132.685 99.5426 131.9 99.54C130.846 99.5604 129.84 99.9884 129.094 100.734C128.348 101.48 127.92 102.486 127.9 103.54C127.9 103.651 127.856 103.758 127.777 103.837C127.698 103.916 127.591 103.96 127.48 103.96C127.369 103.96 127.262 103.916 127.183 103.837C127.104 103.758 127.06 103.651 127.06 103.54C127.088 102.271 127.603 101.062 128.498 100.162C129.394 99.2632 130.601 98.7431 131.87 98.71C132.709 98.712 133.533 98.9383 134.256 99.3656C134.978 99.7928 135.574 100.405 135.98 101.14C136.516 100.623 137.185 100.265 137.912 100.108C138.64 99.9504 139.397 99.9991 140.099 100.249C140.8 100.498 141.418 100.938 141.883 101.52C142.348 102.101 142.641 102.801 142.73 103.54C142.737 103.595 142.733 103.65 142.718 103.703C142.703 103.756 142.677 103.806 142.643 103.849C142.608 103.892 142.565 103.927 142.517 103.953C142.468 103.979 142.415 103.995 142.36 104H142.34Z" fill="black"/>
<path d="M111.85 104.32H147.51V111.15H114.66C113.917 111.15 113.205 110.855 112.68 110.33C112.155 109.805 111.86 109.093 111.86 108.35V104.35L111.85 104.32Z" fill="#E6EBEF"/>
<path d="M147.52 111.58H114.66C113.803 111.58 112.982 111.24 112.376 110.634C111.77 110.028 111.43 109.207 111.43 108.35V104.35C111.43 104.239 111.474 104.132 111.553 104.053C111.632 103.974 111.739 103.93 111.85 103.93H147.52C147.631 103.93 147.738 103.974 147.817 104.053C147.896 104.132 147.94 104.239 147.94 104.35V111.18C147.935 111.288 147.888 111.39 147.81 111.464C147.732 111.539 147.628 111.58 147.52 111.58V111.58ZM112.28 104.75V108.35C112.283 108.98 112.534 109.584 112.98 110.03C113.426 110.476 114.03 110.727 114.66 110.73H147.09V104.73L112.28 104.75Z" fill="black"/>
<path d="M143.86 104.32H150.18V108.52C150.18 109.217 149.903 109.886 149.41 110.38C148.916 110.873 148.248 111.15 147.55 111.15H146.55C145.852 111.15 145.184 110.873 144.69 110.38C144.197 109.886 143.92 109.217 143.92 108.52V104.32H143.86Z" fill="#BAC2CA"/>
<path d="M147.54 111.58H146.54C145.728 111.58 144.95 111.258 144.376 110.684C143.802 110.11 143.48 109.332 143.48 108.52V104.32C143.48 104.209 143.524 104.102 143.603 104.023C143.682 103.944 143.789 103.9 143.9 103.9H150.22C150.331 103.9 150.438 103.944 150.517 104.023C150.596 104.102 150.64 104.209 150.64 104.32V108.52C150.64 108.925 150.56 109.326 150.403 109.7C150.247 110.074 150.018 110.413 149.73 110.698C149.441 110.983 149.099 111.207 148.723 111.359C148.347 111.51 147.945 111.585 147.54 111.58ZM144.28 104.75V108.52C144.283 109.107 144.518 109.669 144.934 110.083C145.35 110.498 145.913 110.73 146.5 110.73H147.5C148.087 110.73 148.65 110.498 149.066 110.083C149.482 109.669 149.717 109.107 149.72 108.52V104.75H144.28Z" fill="black"/>
<path d="M170.08 128.38H157.25C157.176 128.38 157.105 128.351 157.052 128.298C156.999 128.245 156.97 128.174 156.97 128.1C156.969 128.063 156.975 128.026 156.988 127.991C157.002 127.957 157.023 127.925 157.049 127.899C157.075 127.873 157.107 127.852 157.141 127.838C157.176 127.825 157.213 127.819 157.25 127.82H170.08C170.154 127.82 170.225 127.85 170.278 127.902C170.33 127.955 170.36 128.026 170.36 128.1C170.357 128.173 170.327 128.243 170.275 128.295C170.223 128.347 170.153 128.378 170.08 128.38V128.38Z" fill="black"/>
<path d="M172.3 96.82C172.758 96.82 173.13 96.4484 173.13 95.99C173.13 95.5316 172.758 95.16 172.3 95.16C171.842 95.16 171.47 95.5316 171.47 95.99C171.47 96.4484 171.842 96.82 172.3 96.82Z" fill="white"/>
<path d="M172.3 97.0999C172.077 97.1019 171.859 97.0374 171.673 96.9146C171.487 96.7918 171.342 96.6164 171.256 96.4108C171.171 96.2051 171.148 95.9786 171.192 95.7602C171.236 95.5417 171.344 95.3413 171.502 95.1845C171.66 95.0276 171.861 94.9216 172.08 94.8798C172.299 94.8381 172.525 94.8625 172.73 94.9501C172.935 95.0376 173.109 95.1843 173.23 95.3713C173.351 95.5583 173.414 95.7772 173.41 95.9999C173.405 96.2918 173.286 96.5701 173.079 96.7755C172.871 96.981 172.592 97.0974 172.3 97.0999V97.0999ZM172.3 95.4299C172.189 95.428 172.08 95.4591 171.986 95.5194C171.893 95.5797 171.819 95.6665 171.776 95.7686C171.732 95.8708 171.719 95.9837 171.74 96.0929C171.76 96.2022 171.813 96.3029 171.89 96.3823C171.968 96.4616 172.068 96.5159 172.177 96.5383C172.286 96.5608 172.399 96.5503 172.502 96.5082C172.605 96.4661 172.693 96.3944 172.755 96.3021C172.817 96.2098 172.85 96.1011 172.85 95.9899C172.85 95.8431 172.792 95.7022 172.69 95.5975C172.587 95.4927 172.447 95.4326 172.3 95.4299V95.4299Z" fill="black"/>
<path d="M90.83 105.83H79.52C79.406 105.83 79.2966 105.785 79.2159 105.704C79.1353 105.623 79.09 105.514 79.09 105.4V100.47C79.09 99.7671 79.3692 99.0931 79.8662 98.5961C80.3631 98.0991 81.0372 97.8199 81.74 97.8199H90.83C90.9414 97.8199 91.0482 97.8642 91.127 97.943C91.2057 98.0217 91.25 98.1286 91.25 98.2399V105.4C91.2513 105.456 91.2415 105.512 91.2209 105.564C91.2004 105.616 91.1697 105.663 91.1306 105.703C91.0914 105.743 91.0447 105.775 90.9931 105.797C90.9415 105.819 90.886 105.83 90.83 105.83V105.83ZM79.94 105H90.41V98.66H81.74C81.2617 98.6626 80.8039 98.8544 80.4666 99.1936C80.1293 99.5328 79.94 99.9916 79.94 100.47V105Z" fill="black"/>
<path d="M90.05 98.24H90.88C91.157 98.236 91.432 98.2871 91.689 98.3904C91.9461 98.4936 92.18 98.6469 92.3773 98.8414C92.5745 99.0359 92.7312 99.2676 92.8381 99.5232C92.945 99.7787 93 100.053 93 100.33V105.4H88V100.33C87.9999 99.7825 88.2146 99.2569 88.5979 98.8661C88.9813 98.4753 89.5027 98.2504 90.05 98.24V98.24Z" fill="#BAC2CA"/>
<path d="M93 105.83H88C87.944 105.83 87.8885 105.819 87.8369 105.797C87.7853 105.775 87.7386 105.743 87.6994 105.703C87.6603 105.663 87.6296 105.616 87.6091 105.564C87.5885 105.512 87.5787 105.456 87.58 105.4V100.33C87.5826 99.6651 87.8479 99.0282 88.3181 98.558C88.7882 98.0879 89.4251 97.8226 90.09 97.8199H90.93C91.5949 97.8226 92.2318 98.0879 92.7019 98.558C93.1721 99.0282 93.4374 99.6651 93.44 100.33V105.4C93.4414 105.458 93.431 105.515 93.4092 105.569C93.3875 105.622 93.355 105.67 93.3137 105.711C93.2724 105.751 93.2232 105.783 93.1693 105.803C93.1153 105.824 93.0577 105.833 93 105.83V105.83ZM88.39 105H92.55V100.35C92.5513 100.131 92.5094 99.9142 92.4265 99.7116C92.3437 99.5091 92.2216 99.3249 92.0673 99.1697C91.9131 99.0145 91.7296 98.8913 91.5276 98.8073C91.3255 98.7232 91.1088 98.6799 90.89 98.6799H90.05C89.8312 98.6799 89.6145 98.7232 89.4124 98.8073C89.2104 98.8913 89.0269 99.0145 88.8726 99.1697C88.7184 99.3249 88.5963 99.5091 88.5135 99.7116C88.4306 99.9142 88.3887 100.131 88.39 100.35V105Z" fill="black"/>
<path d="M85.65 101.47C85.5609 101.472 85.4736 101.444 85.4014 101.392C85.3292 101.34 85.2761 101.265 85.25 101.18L83.73 96.3099L82.93 96.5999C82.8781 96.619 82.823 96.6276 82.7678 96.6254C82.7126 96.6231 82.6584 96.61 82.6082 96.5868C82.5581 96.5636 82.513 96.5307 82.4756 96.4901C82.4381 96.4494 82.409 96.4018 82.39 96.3499C82.371 96.2981 82.3623 96.243 82.3646 96.1878C82.3668 96.1325 82.3799 96.0783 82.4032 96.0282C82.4264 95.978 82.4592 95.9329 82.4999 95.8955C82.5405 95.8581 82.5881 95.829 82.64 95.8099L83.85 95.3699C83.9022 95.3477 83.9583 95.3362 84.015 95.3362C84.0717 95.3362 84.1278 95.3477 84.18 95.3699C84.2324 95.396 84.279 95.4325 84.3168 95.4772C84.3547 95.5219 84.383 95.5739 84.4 95.6299L86.05 100.91C86.0672 100.962 86.0738 101.018 86.0695 101.073C86.0652 101.128 86.0501 101.182 86.025 101.231C85.9999 101.28 85.9654 101.324 85.9233 101.36C85.8813 101.396 85.8326 101.423 85.78 101.44C85.7393 101.459 85.695 101.469 85.65 101.47V101.47Z" fill="black"/>
<path d="M114.94 129.23C114.889 129.229 114.839 129.215 114.795 129.189C114.751 129.162 114.715 129.125 114.69 129.08C114.41 128.562 114.075 128.076 113.69 127.63C113.663 127.604 113.642 127.573 113.628 127.538C113.613 127.504 113.606 127.467 113.606 127.43C113.606 127.393 113.613 127.356 113.628 127.322C113.642 127.287 113.663 127.256 113.69 127.23C113.715 127.204 113.745 127.183 113.779 127.168C113.812 127.154 113.849 127.147 113.885 127.147C113.921 127.147 113.957 127.154 113.991 127.168C114.025 127.183 114.055 127.204 114.08 127.23C114.494 127.707 114.856 128.227 115.16 128.78C115.193 128.845 115.2 128.921 115.18 128.992C115.159 129.062 115.113 129.122 115.05 129.16C115.02 129.193 114.982 129.217 114.94 129.23V129.23Z" fill="black"/>
<path d="M112.53 126.46C112.472 126.458 112.415 126.437 112.37 126.4C110.938 125.359 109.245 124.736 107.48 124.6C107.442 124.6 107.405 124.593 107.371 124.578C107.336 124.563 107.305 124.542 107.278 124.515C107.252 124.487 107.232 124.455 107.218 124.42C107.205 124.385 107.199 124.348 107.2 124.31C107.2 124.273 107.207 124.236 107.222 124.202C107.237 124.168 107.259 124.137 107.286 124.112C107.313 124.086 107.345 124.067 107.381 124.055C107.416 124.042 107.453 124.037 107.49 124.04C109.378 124.182 111.186 124.862 112.7 126C112.759 126.044 112.799 126.11 112.81 126.183C112.822 126.256 112.804 126.33 112.76 126.39C112.729 126.418 112.693 126.439 112.653 126.451C112.613 126.463 112.571 126.466 112.53 126.46V126.46Z" fill="black"/>
<path d="M227.51 68.7C227.474 68.6975 227.438 68.6877 227.406 68.6711C227.373 68.6545 227.344 68.6315 227.321 68.6035C227.297 68.5754 227.28 68.543 227.27 68.508C227.259 68.473 227.256 68.4363 227.26 68.4C228.26 58.02 236.8 55.61 236.88 55.59C236.953 55.5715 237.03 55.5819 237.095 55.6193C237.161 55.6566 237.209 55.7178 237.23 55.79C237.248 55.8616 237.237 55.9375 237.2 56.0012C237.163 56.0649 237.101 56.1112 237.03 56.13C236.95 56.13 228.78 58.47 227.82 68.45C227.81 68.5234 227.772 68.5902 227.715 68.6366C227.657 68.6831 227.584 68.7058 227.51 68.7Z" fill="black"/>
<path d="M226.57 73.77C226.521 73.7847 226.469 73.7847 226.42 73.77C226.358 73.729 226.314 73.6656 226.297 73.593C226.28 73.5204 226.292 73.4441 226.33 73.38C226.71 72.5077 226.92 71.571 226.95 70.62C226.953 70.5832 226.962 70.5473 226.979 70.5143C226.995 70.4812 227.018 70.4518 227.046 70.4277C227.074 70.4035 227.106 70.3851 227.141 70.3735C227.176 70.3619 227.213 70.3573 227.25 70.36C227.322 70.3652 227.39 70.3983 227.439 70.4524C227.487 70.5065 227.513 70.5774 227.51 70.65C227.471 71.6856 227.233 72.7041 226.81 73.65C226.783 73.6885 226.747 73.7197 226.705 73.7406C226.663 73.7616 226.617 73.7717 226.57 73.77V73.77Z" fill="black"/>
<path d="M163.33 112.32C163.33 112.32 161.83 112.32 158.96 113.94C156.09 115.56 154.7 119.12 156.5 121.43C158.3 123.74 161.16 122.24 161.16 122.24L168.77 122.31C168.77 122.31 172.11 121.8 172.15 119.04C172.064 116.806 171.729 114.589 171.15 112.43L163.33 112.32Z" fill="white"/>
<path d="M173.22 110.5C174.15 107.21 173.41 105.96 173.41 105.96C172.039 105.989 170.723 106.507 169.7 107.42C168.555 107.081 167.335 107.081 166.19 107.42C165.17 106.509 163.858 105.991 162.49 105.96C162.49 105.96 161.74 107.21 162.67 110.5C162.67 110.5 161.31 113.83 164.56 115.1C165.655 115.551 166.831 115.775 168.015 115.758C169.2 115.74 170.368 115.483 171.45 115C172.209 114.743 172.84 114.204 173.212 113.495C173.584 112.786 173.669 111.96 173.45 111.19L173.22 110.5Z" fill="white"/>
<path d="M167.88 116.18C166.69 116.168 165.514 115.934 164.41 115.49C163.937 115.33 163.501 115.076 163.13 114.743C162.759 114.409 162.459 114.003 162.25 113.55C161.893 112.561 161.893 111.479 162.25 110.49C161.35 107.21 162.06 105.89 162.15 105.75C162.186 105.684 162.239 105.629 162.305 105.592C162.37 105.555 162.445 105.537 162.52 105.54C163.911 105.571 165.25 106.071 166.32 106.96C167.402 106.68 168.538 106.68 169.62 106.96C170.699 106.089 172.034 105.597 173.42 105.56C173.495 105.557 173.57 105.575 173.635 105.612C173.701 105.649 173.754 105.704 173.79 105.77C173.87 105.91 174.58 107.23 173.68 110.51L173.89 111.06C174.149 111.94 174.057 112.887 173.631 113.701C173.206 114.514 172.481 115.131 171.61 115.42H171.49C170.343 115.891 169.12 116.149 167.88 116.18V116.18ZM162.77 106.4C162.502 107.736 162.61 109.121 163.08 110.4C163.11 110.487 163.11 110.583 163.08 110.67C162.777 111.496 162.777 112.403 163.08 113.23C163.245 113.578 163.479 113.888 163.768 114.142C164.057 114.397 164.394 114.59 164.76 114.71C165.784 115.147 166.886 115.373 168 115.373C169.114 115.373 170.216 115.147 171.24 114.71H171.36C172.016 114.487 172.563 114.023 172.89 113.413C173.217 112.802 173.299 112.089 173.12 111.42L172.87 110.75C172.84 110.666 172.84 110.574 172.87 110.49C173.329 109.208 173.436 107.827 173.18 106.49C172.021 106.578 170.922 107.041 170.05 107.81C169.993 107.869 169.92 107.909 169.84 107.927C169.76 107.945 169.677 107.939 169.6 107.91C168.546 107.6 167.424 107.6 166.37 107.91C166.295 107.929 166.216 107.929 166.141 107.91C166.066 107.891 165.997 107.853 165.94 107.8C165.069 106.993 163.953 106.5 162.77 106.4V106.4Z" fill="black"/>
<path d="M162.78 110.86C162.741 110.869 162.699 110.869 162.66 110.86C162.594 110.828 162.543 110.771 162.517 110.703C162.491 110.634 162.492 110.558 162.52 110.49C162.948 109.625 163.588 108.882 164.38 108.33C163.837 107.634 163.209 107.009 162.51 106.47C162.459 106.416 162.43 106.345 162.43 106.27C162.43 106.196 162.459 106.124 162.51 106.07C162.532 106.04 162.559 106.015 162.591 105.996C162.622 105.978 162.658 105.965 162.694 105.961C162.731 105.956 162.768 105.959 162.803 105.969C162.839 105.979 162.872 105.997 162.9 106.02C163.724 106.655 164.451 107.407 165.06 108.25C165.075 108.285 165.083 108.322 165.083 108.36C165.083 108.398 165.075 108.435 165.06 108.47C165.038 108.543 164.992 108.606 164.93 108.65C164.11 109.143 163.443 109.852 163 110.7C162.98 110.743 162.949 110.781 162.911 110.809C162.872 110.837 162.827 110.854 162.78 110.86V110.86Z" fill="black"/>
<path d="M173.12 110.86C173.068 110.859 173.016 110.844 172.972 110.816C172.928 110.788 172.892 110.747 172.87 110.7C172.443 109.846 171.789 109.127 170.98 108.62C170.918 108.576 170.872 108.513 170.85 108.44C170.835 108.405 170.827 108.368 170.827 108.33C170.827 108.292 170.835 108.255 170.85 108.22C171.456 107.374 172.184 106.623 173.01 105.99C173.038 105.967 173.071 105.949 173.107 105.939C173.142 105.929 173.179 105.926 173.216 105.931C173.252 105.935 173.288 105.948 173.319 105.966C173.351 105.985 173.378 106.01 173.4 106.04C173.445 106.1 173.465 106.176 173.456 106.25C173.447 106.325 173.409 106.393 173.35 106.44C172.651 106.979 172.023 107.604 171.48 108.3C172.269 108.852 172.905 109.596 173.33 110.46C173.347 110.493 173.357 110.528 173.359 110.565C173.362 110.602 173.357 110.638 173.345 110.673C173.332 110.708 173.313 110.739 173.288 110.766C173.264 110.793 173.234 110.815 173.2 110.83C173.175 110.844 173.148 110.854 173.12 110.86V110.86Z" fill="black"/>
<path d="M168.47 113.27H167.64C167.566 113.27 167.495 113.241 167.442 113.188C167.39 113.136 167.36 113.064 167.36 112.99C167.359 112.953 167.365 112.916 167.378 112.881C167.392 112.847 167.413 112.815 167.439 112.789C167.465 112.763 167.497 112.742 167.531 112.728C167.566 112.715 167.603 112.709 167.64 112.71H168.47C168.544 112.71 168.615 112.74 168.668 112.792C168.72 112.845 168.75 112.916 168.75 112.99C168.748 113.063 168.717 113.133 168.665 113.185C168.613 113.237 168.543 113.268 168.47 113.27Z" fill="black"/>
<path d="M167.38 114.4C167.139 114.403 166.905 114.318 166.721 114.162C166.537 114.006 166.416 113.788 166.38 113.55C166.376 113.513 166.379 113.476 166.39 113.441C166.4 113.405 166.418 113.372 166.441 113.343C166.464 113.314 166.493 113.291 166.525 113.273C166.558 113.255 166.593 113.244 166.63 113.24C166.667 113.236 166.704 113.239 166.739 113.25C166.775 113.26 166.808 113.278 166.837 113.301C166.866 113.324 166.89 113.353 166.907 113.385C166.925 113.418 166.936 113.453 166.94 113.49C166.953 113.594 167.006 113.69 167.088 113.755C167.171 113.821 167.275 113.851 167.38 113.84V113.84C167.72 113.84 167.76 113.05 167.76 113.04C167.767 112.966 167.8 112.898 167.853 112.846C167.906 112.795 167.976 112.764 168.05 112.76C168.125 112.763 168.196 112.794 168.249 112.848C168.301 112.903 168.33 112.975 168.33 113.05C168.32 113.55 168.11 114.4 167.38 114.4Z" fill="black"/>
<path d="M168.64 114.4C167.91 114.4 167.7 113.55 167.69 113.05C167.69 112.975 167.719 112.903 167.771 112.848C167.824 112.794 167.895 112.763 167.97 112.76C168.044 112.76 168.115 112.79 168.168 112.842C168.22 112.895 168.25 112.966 168.25 113.04C168.25 113.04 168.3 113.84 168.64 113.84C168.745 113.851 168.85 113.821 168.932 113.755C169.014 113.69 169.067 113.594 169.08 113.49C169.092 113.416 169.132 113.349 169.191 113.303C169.251 113.256 169.325 113.234 169.4 113.24C169.473 113.25 169.538 113.288 169.583 113.346C169.628 113.404 169.649 113.477 169.64 113.55C169.604 113.788 169.483 114.006 169.299 114.162C169.115 114.318 168.881 114.403 168.64 114.4V114.4Z" fill="black"/>
<path d="M165.31 112.12C165.498 112.12 165.65 111.968 165.65 111.78C165.65 111.592 165.498 111.44 165.31 111.44C165.122 111.44 164.97 111.592 164.97 111.78C164.97 111.968 165.122 112.12 165.31 112.12Z" fill="black"/>
<path d="M170.63 112.01C170.818 112.01 170.97 111.858 170.97 111.67C170.97 111.482 170.818 111.33 170.63 111.33C170.442 111.33 170.29 111.482 170.29 111.67C170.29 111.858 170.442 112.01 170.63 112.01Z" fill="black"/>
<path d="M159.52 123H159.4C158.728 123.031 158.058 122.909 157.44 122.644C156.821 122.379 156.271 121.978 155.83 121.47C155.484 120.938 155.268 120.333 155.199 119.703C155.129 119.072 155.209 118.434 155.43 117.84C156.81 112.84 162.11 111.96 162.33 111.93C162.44 111.913 162.552 111.94 162.642 112.006C162.732 112.071 162.793 112.17 162.81 112.28C162.827 112.39 162.8 112.502 162.734 112.592C162.669 112.682 162.57 112.743 162.46 112.76C162.41 112.76 157.46 113.6 156.25 118.07C156.068 118.541 155.997 119.047 156.042 119.55C156.087 120.053 156.247 120.539 156.51 120.97C156.876 121.373 157.327 121.688 157.83 121.894C158.334 122.1 158.877 122.191 159.42 122.16C160.014 122.161 160.601 122.041 161.148 121.809C161.694 121.577 162.188 121.237 162.6 120.81L162.96 120.44C162.998 120.398 163.028 120.349 163.047 120.296C163.066 120.243 163.073 120.186 163.07 120.13C163.071 120.075 163.06 120.02 163.038 119.97C163.015 119.92 162.982 119.876 162.94 119.84C162.861 119.77 162.76 119.732 162.655 119.732C162.55 119.732 162.449 119.77 162.37 119.84C161.829 120.432 161.13 120.856 160.355 121.062C159.581 121.268 158.763 121.246 158 121C157.601 120.847 157.261 120.57 157.031 120.211C156.801 119.851 156.692 119.426 156.72 119C156.733 118.89 156.788 118.79 156.874 118.721C156.96 118.651 157.07 118.619 157.18 118.63C157.236 118.634 157.29 118.649 157.34 118.674C157.39 118.7 157.434 118.735 157.469 118.778C157.505 118.821 157.531 118.871 157.547 118.925C157.562 118.978 157.567 119.035 157.56 119.09C157.549 119.34 157.616 119.587 157.752 119.797C157.889 120.007 158.087 120.169 158.32 120.26C158.933 120.43 159.581 120.427 160.192 120.251C160.803 120.074 161.353 119.731 161.78 119.26C162.015 119.041 162.324 118.92 162.645 118.92C162.966 118.92 163.275 119.041 163.51 119.26C163.752 119.494 163.892 119.814 163.9 120.15C163.903 120.316 163.873 120.482 163.811 120.636C163.749 120.791 163.657 120.932 163.54 121.05L163.15 121.46C162.172 122.404 160.879 122.953 159.52 123Z" fill="black"/>
<path d="M167.28 122.86C164.62 122.86 161.23 122.86 161.23 122.86V122C161.23 122 164.61 122 167.23 122C167.87 122 168.39 122 168.8 122C169.131 121.992 169.445 121.855 169.675 121.617C169.905 121.379 170.033 121.061 170.03 120.73C170.027 120.389 169.89 120.062 169.65 119.82C169.411 119.59 169.092 119.461 168.76 119.46C167.861 119.479 166.962 119.432 166.07 119.32C165.959 119.3 165.86 119.238 165.795 119.147C165.729 119.055 165.703 118.941 165.72 118.83C165.727 118.775 165.746 118.722 165.774 118.674C165.802 118.626 165.84 118.585 165.885 118.552C165.93 118.519 165.981 118.496 166.035 118.484C166.089 118.471 166.145 118.47 166.2 118.48C167.045 118.593 167.898 118.637 168.75 118.61C169.309 118.619 169.844 118.837 170.25 119.22C170.648 119.622 170.871 120.165 170.87 120.73C170.876 121.274 170.671 121.798 170.298 122.193C169.925 122.589 169.413 122.824 168.87 122.85L167.28 122.86Z" fill="black"/>
<path d="M169.5 122.68C169.389 122.688 169.279 122.651 169.194 122.578C169.11 122.505 169.058 122.401 169.05 122.29C169.042 122.179 169.079 122.069 169.152 121.984C169.225 121.9 169.329 121.848 169.44 121.84C169.768 121.807 170.084 121.699 170.365 121.526C170.646 121.353 170.883 121.118 171.06 120.84C172.35 118.95 171.42 115.05 171.41 115.01C171.395 114.956 171.391 114.9 171.399 114.844C171.407 114.789 171.426 114.736 171.455 114.688C171.484 114.64 171.522 114.599 171.568 114.567C171.614 114.534 171.665 114.512 171.72 114.5C171.774 114.487 171.83 114.484 171.885 114.492C171.94 114.501 171.992 114.52 172.04 114.549C172.087 114.577 172.128 114.615 172.161 114.66C172.194 114.705 172.217 114.756 172.23 114.81C172.23 114.98 173.23 119.11 171.75 121.32C171.505 121.691 171.18 122.003 170.8 122.233C170.419 122.463 169.992 122.605 169.55 122.65L169.5 122.68Z" fill="black"/>
<path d="M48.36 134.63H45.36C45.2407 134.63 45.1262 134.583 45.0418 134.498C44.9574 134.414 44.91 134.299 44.91 134.18C44.91 134.061 44.9574 133.946 45.0418 133.862C45.1262 133.777 45.2407 133.73 45.36 133.73H48.36C48.4794 133.73 48.5938 133.777 48.6782 133.862C48.7626 133.946 48.81 134.061 48.81 134.18C48.81 134.299 48.7626 134.414 48.6782 134.498C48.5938 134.583 48.4794 134.63 48.36 134.63V134.63Z" fill="black"/>
<path d="M285.91 134.18C285.91 134.3 285.863 134.416 285.779 134.502C285.695 134.588 285.58 134.637 285.46 134.64H51C50.8797 134.637 50.7653 134.588 50.6812 134.502C50.5971 134.416 50.55 134.3 50.55 134.18C50.55 134.061 50.5974 133.946 50.6818 133.862C50.7662 133.777 50.8807 133.73 51 133.73H285.46C285.519 133.73 285.578 133.742 285.632 133.764C285.687 133.787 285.736 133.82 285.778 133.862C285.82 133.904 285.853 133.953 285.876 134.008C285.898 134.062 285.91 134.121 285.91 134.18Z" fill="black"/>
<path d="M291.85 134.53H288.85C288.731 134.53 288.616 134.483 288.532 134.398C288.447 134.314 288.4 134.199 288.4 134.08C288.4 133.961 288.447 133.846 288.532 133.762C288.616 133.677 288.731 133.63 288.85 133.63H291.85C291.969 133.63 292.084 133.677 292.168 133.762C292.253 133.846 292.3 133.961 292.3 134.08C292.3 134.199 292.253 134.314 292.168 134.398C292.084 134.483 291.969 134.53 291.85 134.53V134.53Z" fill="black"/>
</svg>
